STARTFONT 2.1
FONT -Virach-Fixed-Medium-R-Normal--24-240-75-75-C-70-XTIS620.2529-1
SIZE 24 75 75
FONTBOUNDINGBOX 12 24 0 -4
STARTPROPERTIES 4
FONT_ASCENT 20
FONT_DESCENT 4
DEFAULT_CHAR 8481
COPYRIGHT "Virach Thai font 12x24"
ENDPROPERTIES
CHARS 1744
STARTCHAR 2121
ENCODING 8481
SWIDTH 714 0
DWIDTH 12 0
BBX 12 24 0 -4
BITMAP
0000
0000
0000
0000
0000
0000
0000
0000
0000
0000
0000
0000
0000
0000
0000
0000
0000
0000
0000
0000
0000
0000
0000
0000
ENDCHAR
STARTCHAR 2130
ENCODING 8496
SWIDTH 714 0
DWIDTH 12 0
BBX 12 24 0 -4
BITMAP
0000
0000
0000
0000
0000
0000
0000
0000
0000
7e00
c300
8180
f180
6180
6180
6180
6180
6180
6180
6180
0000
0000
0000
0000
ENDCHAR
STARTCHAR 2131
ENCODING 8497
SWIDTH 714 0
DWIDTH 12 0
BBX 12 24 0 -4
BITMAP
0000
0100
0300
6e00
d800
c600
db00
6e00
0000
7e00
c300
8180
f180
6180
6180
6180
6180
6180
6180
6180
0000
0000
0000
0000
ENDCHAR
STARTCHAR 2132
ENCODING 8498
SWIDTH 714 0
DWIDTH 12 0
BBX 12 24 0 -4
BITMAP
0000
0000
0000
0000
0c00
0c00
0c00
0c00
0000
7e00
c300
8180
f180
6180
6180
6180
6180
6180
6180
6180
0000
0000
0000
0000
ENDCHAR
STARTCHAR 2133
ENCODING 8499
SWIDTH 714 0
DWIDTH 12 0
BBX 12 24 0 -4
BITMAP
0000
0000
0000
0000
1c40
14c0
0d80
1f00
0000
7e00
c300
8180
f180
6180
6180
6180
6180
6180
6180
6180
0000
0000
0000
0000
ENDCHAR
STARTCHAR 2134
ENCODING 8500
SWIDTH 714 0
DWIDTH 12 0
BBX 12 24 0 -4
BITMAP
0000
0000
0000
0000
3640
6b40
6340
3780
0000
7e00
c300
8180
f180
6180
6180
6180
6180
6180
6180
6180
0000
0000
0000
0000
ENDCHAR
STARTCHAR 2135
ENCODING 8501
SWIDTH 714 0
DWIDTH 12 0
BBX 12 24 0 -4
BITMAP
0000
0000
0000
0000
0c00
1e00
1e00
0c00
0000
7e00
c300
8180
f180
6180
6180
6180
6180
6180
6180
6180
0000
0000
0000
0000
ENDCHAR
STARTCHAR 2136
ENCODING 8502
SWIDTH 714 0
DWIDTH 12 0
BBX 12 24 0 -4
BITMAP
0000
0000
0000
0000
0020
03c0
0500
0300
0000
7e00
c300
8180
f180
6180
6180
6180
6180
6180
6180
6180
0000
0000
0000
0000
ENDCHAR
STARTCHAR 2137
ENCODING 8503
SWIDTH 714 0
DWIDTH 12 0
BBX 12 24 0 -4
BITMAP
0000
0000
0000
0000
1800
2400
1800
0000
0000
7e00
c300
8180
f180
6180
6180
6180
6180
6180
6180
6180
0000
0000
0000
0000
ENDCHAR
STARTCHAR 2138
ENCODING 8504
SWIDTH 714 0
DWIDTH 12 0
BBX 12 24 0 -4
BITMAP
0000
0000
0000
0000
7080
d980
f300
7e00
0000
7e00
c300
8180
f180
6180
6180
6180
6180
6180
6180
6180
0000
0000
0000
0000
ENDCHAR
STARTCHAR 213a
ENCODING 8506
SWIDTH 714 0
DWIDTH 12 0
BBX 12 24 0 -4
BITMAP
0c00
0c00
0c00
0c00
7080
d980
f300
7e00
0000
7e00
c300
8180
f180
6180
6180
6180
6180
6180
6180
6180
0000
0000
0000
0000
ENDCHAR
STARTCHAR 213b
ENCODING 8507
SWIDTH 714 0
DWIDTH 12 0
BBX 12 24 0 -4
BITMAP
1c40
14c0
0d80
1f00
7080
d980
f300
7e00
0000
7e00
c300
8180
f180
6180
6180
6180
6180
6180
6180
6180
0000
0000
0000
0000
ENDCHAR
STARTCHAR 213c
ENCODING 8508
SWIDTH 714 0
DWIDTH 12 0
BBX 12 24 0 -4
BITMAP
3640
6b40
6340
3780
7080
d980
f300
7e00
0000
7e00
c300
8180
f180
6180
6180
6180
6180
6180
6180
6180
0000
0000
0000
0000
ENDCHAR
STARTCHAR 213d
ENCODING 8509
SWIDTH 714 0
DWIDTH 12 0
BBX 12 24 0 -4
BITMAP
0c00
1e00
1e00
0c00
7080
d980
f300
7e00
0000
7e00
c300
8180
f180
6180
6180
6180
6180
6180
6180
6180
0000
0000
0000
0000
ENDCHAR
STARTCHAR 2140
ENCODING 8512
SWIDTH 714 0
DWIDTH 12 0
BBX 12 24 0 -4
BITMAP
0000
0000
0000
0000
7c00
c200
fd00
0300
0000
7e00
c300
8180
f180
6180
6180
6180
6180
6180
6180
6180
0000
0000
0000
0000
ENDCHAR
STARTCHAR 2142
ENCODING 8514
SWIDTH 714 0
DWIDTH 12 0
BBX 12 24 0 -4
BITMAP
0c00
0c00
0c00
0c00
7c00
c200
fd00
0300
0000
7e00
c300
8180
f180
6180
6180
6180
6180
6180
6180
6180
0000
0000
0000
0000
ENDCHAR
STARTCHAR 2143
ENCODING 8515
SWIDTH 714 0
DWIDTH 12 0
BBX 12 24 0 -4
BITMAP
1c40
14c0
0d80
1f00
7c00
c200
fd00
0300
0000
7e00
c300
8180
f180
6180
6180
6180
6180
6180
6180
6180
0000
0000
0000
0000
ENDCHAR
STARTCHAR 2144
ENCODING 8516
SWIDTH 714 0
DWIDTH 12 0
BBX 12 24 0 -4
BITMAP
3640
6b40
6340
3780
7c00
c200
fd00
0300
0000
7e00
c300
8180
f180
6180
6180
6180
6180
6180
6180
6180
0000
0000
0000
0000
ENDCHAR
STARTCHAR 2145
ENCODING 8517
SWIDTH 714 0
DWIDTH 12 0
BBX 12 24 0 -4
BITMAP
0c00
1e00
1e00
0c00
7c00
c200
fd00
0300
0000
7e00
c300
8180
f180
6180
6180
6180
6180
6180
6180
6180
0000
0000
0000
0000
ENDCHAR
STARTCHAR 2148
ENCODING 8520
SWIDTH 714 0
DWIDTH 12 0
BBX 12 24 0 -4
BITMAP
0000
0000
0000
0000
7300
8b00
f700
0f00
0000
7e00
c300
8180
f180
6180
6180
6180
6180
6180
6180
6180
0000
0000
0000
0000
ENDCHAR
STARTCHAR 214a
ENCODING 8522
SWIDTH 714 0
DWIDTH 12 0
BBX 12 24 0 -4
BITMAP
0c00
0c00
0c00
0c00
7300
8b00
f700
0f00
0000
7e00
c300
8180
f180
6180
6180
6180
6180
6180
6180
6180
0000
0000
0000
0000
ENDCHAR
STARTCHAR 214b
ENCODING 8523
SWIDTH 714 0
DWIDTH 12 0
BBX 12 24 0 -4
BITMAP
1c40
14c0
0d80
1f00
7300
8b00
f700
0f00
0000
7e00
c300
8180
f180
6180
6180
6180
6180
6180
6180
6180
0000
0000
0000
0000
ENDCHAR
STARTCHAR 214c
ENCODING 8524
SWIDTH 714 0
DWIDTH 12 0
BBX 12 24 0 -4
BITMAP
3640
6b40
6340
3780
7300
8b00
f700
0f00
0000
7e00
c300
8180
f180
6180
6180
6180
6180
6180
6180
6180
0000
0000
0000
0000
ENDCHAR
STARTCHAR 214d
ENCODING 8525
SWIDTH 714 0
DWIDTH 12 0
BBX 12 24 0 -4
BITMAP
0c00
1e00
1e00
0c00
7300
8b00
f700
0f00
0000
7e00
c300
8180
f180
6180
6180
6180
6180
6180
6180
6180
0000
0000
0000
0000
ENDCHAR
STARTCHAR 2150
ENCODING 8528
SWIDTH 714 0
DWIDTH 12 0
BBX 12 24 0 -4
BITMAP
0000
0000
0000
0000
7700
c900
f600
1f00
0000
7e00
c300
8180
f180
6180
6180
6180
6180
6180
6180
6180
0000
0000
0000
0000
ENDCHAR
STARTCHAR 2152
ENCODING 8530
SWIDTH 714 0
DWIDTH 12 0
BBX 12 24 0 -4
BITMAP
0c00
0c00
0c00
0c00
7700
c900
f600
1f00
0000
7e00
c300
8180
f180
6180
6180
6180
6180
6180
6180
6180
0000
0000
0000
0000
ENDCHAR
STARTCHAR 2153
ENCODING 8531
SWIDTH 714 0
DWIDTH 12 0
BBX 12 24 0 -4
BITMAP
1c40
14c0
0d80
1f00
7700
c900
f600
1f00
0000
7e00
c300
8180
f180
6180
6180
6180
6180
6180
6180
6180
0000
0000
0000
0000
ENDCHAR
STARTCHAR 2154
ENCODING 8532
SWIDTH 714 0
DWIDTH 12 0
BBX 12 24 0 -4
BITMAP
3640
6b40
6340
3780
7700
c900
f600
1f00
0000
7e00
c300
8180
f180
6180
6180
6180
6180
6180
6180
6180
0000
0000
0000
0000
ENDCHAR
STARTCHAR 2155
ENCODING 8533
SWIDTH 714 0
DWIDTH 12 0
BBX 12 24 0 -4
BITMAP
0c00
1e00
1e00
0c00
7700
c900
f600
1f00
0000
7e00
c300
8180
f180
6180
6180
6180
6180
6180
6180
6180
0000
0000
0000
0000
ENDCHAR
STARTCHAR 2158
ENCODING 8536
SWIDTH 714 0
DWIDTH 12 0
BBX 12 24 0 -4
BITMAP
0000
0000
0000
0000
4d80
ad80
9d80
0580
0000
7e00
c300
8180
f180
6180
6180
6180
6180
6180
6180
6180
0000
0000
0000
0000
ENDCHAR
STARTCHAR 215a
ENCODING 8538
SWIDTH 714 0
DWIDTH 12 0
BBX 12 24 0 -4
BITMAP
0c00
0c00
0c00
0c00
4d80
ad80
9d80
0580
0000
7e00
c300
8180
f180
6180
6180
6180
6180
6180
6180
6180
0000
0000
0000
0000
ENDCHAR
STARTCHAR 215b
ENCODING 8539
SWIDTH 714 0
DWIDTH 12 0
BBX 12 24 0 -4
BITMAP
1c40
14c0
0d80
1f00
4d80
ad80
9d80
0580
0000
7e00
c300
8180
f180
6180
6180
6180
6180
6180
6180
6180
0000
0000
0000
0000
ENDCHAR
STARTCHAR 215c
ENCODING 8540
SWIDTH 714 0
DWIDTH 12 0
BBX 12 24 0 -4
BITMAP
3640
6b40
6340
3780
4d80
ad80
9d80
0580
0000
7e00
c300
8180
f180
6180
6180
6180
6180
6180
6180
6180
0000
0000
0000
0000
ENDCHAR
STARTCHAR 215d
ENCODING 8541
SWIDTH 714 0
DWIDTH 12 0
BBX 12 24 0 -4
BITMAP
0c00
1e00
1e00
0c00
4d80
ad80
9d80
0580
0000
7e00
c300
8180
f180
6180
6180
6180
6180
6180
6180
6180
0000
0000
0000
0000
ENDCHAR
STARTCHAR 2160
ENCODING 8544
SWIDTH 714 0
DWIDTH 12 0
BBX 12 24 0 -4
BITMAP
0000
0000
0000
0000
0000
0000
0000
0000
0000
7e00
c300
8180
f180
6180
6180
6180
6180
6180
6180
6180
0f00
1300
0f00
0300
ENDCHAR
STARTCHAR 2162
ENCODING 8546
SWIDTH 714 0
DWIDTH 12 0
BBX 12 24 0 -4
BITMAP
0000
0000
0000
0000
0c00
0c00
0c00
0c00
0000
7e00
c300
8180
f180
6180
6180
6180
6180
6180
6180
6180
0f00
1300
0f00
0300
ENDCHAR
STARTCHAR 2163
ENCODING 8547
SWIDTH 714 0
DWIDTH 12 0
BBX 12 24 0 -4
BITMAP
0000
0000
0000
0000
1c40
14c0
0d80
1f00
0000
7e00
c300
8180
f180
6180
6180
6180
6180
6180
6180
6180
0f00
1300
0f00
0300
ENDCHAR
STARTCHAR 2164
ENCODING 8548
SWIDTH 714 0
DWIDTH 12 0
BBX 12 24 0 -4
BITMAP
0000
0000
0000
0000
3640
6b40
6340
3780
0000
7e00
c300
8180
f180
6180
6180
6180
6180
6180
6180
6180
0f00
1300
0f00
0300
ENDCHAR
STARTCHAR 2165
ENCODING 8549
SWIDTH 714 0
DWIDTH 12 0
BBX 12 24 0 -4
BITMAP
0000
0000
0000
0000
0c00
1e00
1e00
0c00
0000
7e00
c300
8180
f180
6180
6180
6180
6180
6180
6180
6180
0f00
1300
0f00
0300
ENDCHAR
STARTCHAR 2168
ENCODING 8552
SWIDTH 714 0
DWIDTH 12 0
BBX 12 24 0 -4
BITMAP
0000
0000
0000
0000
0000
0000
0000
0000
0000
7e00
c300
8180
f180
6180
6180
6180
6180
6180
6180
6180
3b00
2b00
3b00
0f00
ENDCHAR
STARTCHAR 216a
ENCODING 8554
SWIDTH 714 0
DWIDTH 12 0
BBX 12 24 0 -4
BITMAP
0000
0000
0000
0000
0c00
0c00
0c00
0c00
0000
7e00
c300
8180
f180
6180
6180
6180
6180
6180
6180
6180
3b00
2b00
3b00
0f00
ENDCHAR
STARTCHAR 216b
ENCODING 8555
SWIDTH 714 0
DWIDTH 12 0
BBX 12 24 0 -4
BITMAP
0000
0000
0000
0000
1c40
14c0
0d80
1f00
0000
7e00
c300
8180
f180
6180
6180
6180
6180
6180
6180
6180
3b00
2b00
3b00
0f00
ENDCHAR
STARTCHAR 216c
ENCODING 8556
SWIDTH 714 0
DWIDTH 12 0
BBX 12 24 0 -4
BITMAP
0000
0000
0000
0000
3640
6b40
6340
3780
0000
7e00
c300
8180
f180
6180
6180
6180
6180
6180
6180
6180
3b00
2b00
3b00
0f00
ENDCHAR
STARTCHAR 216d
ENCODING 8557
SWIDTH 714 0
DWIDTH 12 0
BBX 12 24 0 -4
BITMAP
0000
0000
0000
0000
0c00
1e00
1e00
0c00
0000
7e00
c300
8180
f180
6180
6180
6180
6180
6180
6180
6180
3b00
2b00
3b00
0f00
ENDCHAR
STARTCHAR 2170
ENCODING 8560
SWIDTH 714 0
DWIDTH 12 0
BBX 12 24 0 -4
BITMAP
0000
0000
0000
0000
0000
0000
0000
0000
0000
7e00
c300
8180
f180
6180
6180
6180
6180
6180
6180
6180
0000
1800
1800
0000
ENDCHAR
STARTCHAR 2178
ENCODING 8568
SWIDTH 714 0
DWIDTH 12 0
BBX 12 24 0 -4
BITMAP
0000
0000
0f00
1000
3800
4000
4200
3c00
0000
7e00
c300
8180
f180
6180
6180
6180
6180
6180
6180
6180
0000
0000
0000
0000
ENDCHAR
STARTCHAR 2230
ENCODING 8752
SWIDTH 714 0
DWIDTH 12 0
BBX 12 24 0 -4
BITMAP
0000
0000
0000
0000
0000
0000
0000
0000
0000
6300
9300
9300
7300
3300
3300
3300
3300
3300
3300
1e00
0000
0000
0000
0000
ENDCHAR
STARTCHAR 2231
ENCODING 8753
SWIDTH 714 0
DWIDTH 12 0
BBX 12 24 0 -4
BITMAP
0000
0100
0300
6e00
d800
c600
db00
6e00
0000
6300
9300
9300
7300
3300
3300
3300
3300
3300
3300
1e00
0000
0000
0000
0000
ENDCHAR
STARTCHAR 2232
ENCODING 8754
SWIDTH 714 0
DWIDTH 12 0
BBX 12 24 0 -4
BITMAP
0000
0000
0000
0000
0c00
0c00
0c00
0c00
0000
6300
9300
9300
7300
3300
3300
3300
3300
3300
3300
1e00
0000
0000
0000
0000
ENDCHAR
STARTCHAR 2233
ENCODING 8755
SWIDTH 714 0
DWIDTH 12 0
BBX 12 24 0 -4
BITMAP
0000
0000
0000
0000
1c40
14c0
0d80
1f00
0000
6300
9300
9300
7300
3300
3300
3300
3300
3300
3300
1e00
0000
0000
0000
0000
ENDCHAR
STARTCHAR 2236
ENCODING 8758
SWIDTH 714 0
DWIDTH 12 0
BBX 12 24 0 -4
BITMAP
0000
0000
0000
0000
0020
03c0
0500
0300
0000
6300
9300
9300
7300
3300
3300
3300
3300
3300
3300
1e00
0000
0000
0000
0000
ENDCHAR
STARTCHAR 2237
ENCODING 8759
SWIDTH 714 0
DWIDTH 12 0
BBX 12 24 0 -4
BITMAP
0000
0000
0000
0000
1800
2400
1800
0000
0000
6300
9300
9300
7300
3300
3300
3300
3300
3300
3300
1e00
0000
0000
0000
0000
ENDCHAR
STARTCHAR 2238
ENCODING 8760
SWIDTH 714 0
DWIDTH 12 0
BBX 12 24 0 -4
BITMAP
0000
0000
0000
0000
7080
d980
f300
7e00
0000
6300
9300
9300
7300
3300
3300
3300
3300
3300
3300
1e00
0000
0000
0000
0000
ENDCHAR
STARTCHAR 223a
ENCODING 8762
SWIDTH 714 0
DWIDTH 12 0
BBX 12 24 0 -4
BITMAP
0c00
0c00
0c00
0c00
7080
d980
f300
7e00
0000
6300
9300
9300
7300
3300
3300
3300
3300
3300
3300
1e00
0000
0000
0000
0000
ENDCHAR
STARTCHAR 223b
ENCODING 8763
SWIDTH 714 0
DWIDTH 12 0
BBX 12 24 0 -4
BITMAP
1c40
14c0
0d80
1f00
7080
d980
f300
7e00
0000
6300
9300
9300
7300
3300
3300
3300
3300
3300
3300
1e00
0000
0000
0000
0000
ENDCHAR
STARTCHAR 2240
ENCODING 8768
SWIDTH 714 0
DWIDTH 12 0
BBX 12 24 0 -4
BITMAP
0000
0000
0000
0000
7c00
c200
fd00
0300
0000
6300
9300
9300
7300
3300
3300
3300
3300
3300
3300
1e00
0000
0000
0000
0000
ENDCHAR
STARTCHAR 2242
ENCODING 8770
SWIDTH 714 0
DWIDTH 12 0
BBX 12 24 0 -4
BITMAP
0c00
0c00
0c00
0c00
7c00
c200
fd00
0300
0000
6300
9300
9300
7300
3300
3300
3300
3300
3300
3300
1e00
0000
0000
0000
0000
ENDCHAR
STARTCHAR 2243
ENCODING 8771
SWIDTH 714 0
DWIDTH 12 0
BBX 12 24 0 -4
BITMAP
1c40
14c0
0d80
1f00
7c00
c200
fd00
0300
0000
6300
9300
9300
7300
3300
3300
3300
3300
3300
3300
1e00
0000
0000
0000
0000
ENDCHAR
STARTCHAR 2248
ENCODING 8776
SWIDTH 714 0
DWIDTH 12 0
BBX 12 24 0 -4
BITMAP
0000
0000
0000
0000
7300
8b00
f700
0f00
0000
6300
9300
9300
7300
3300
3300
3300
3300
3300
3300
1e00
0000
0000
0000
0000
ENDCHAR
STARTCHAR 224a
ENCODING 8778
SWIDTH 714 0
DWIDTH 12 0
BBX 12 24 0 -4
BITMAP
0c00
0c00
0c00
0c00
7300
8b00
f700
0f00
0000
6300
9300
9300
7300
3300
3300
3300
3300
3300
3300
1e00
0000
0000
0000
0000
ENDCHAR
STARTCHAR 224b
ENCODING 8779
SWIDTH 714 0
DWIDTH 12 0
BBX 12 24 0 -4
BITMAP
1c40
14c0
0d80
1f00
7300
8b00
f700
0f00
0000
6300
9300
9300
7300
3300
3300
3300
3300
3300
3300
1e00
0000
0000
0000
0000
ENDCHAR
STARTCHAR 2250
ENCODING 8784
SWIDTH 714 0
DWIDTH 12 0
BBX 12 24 0 -4
BITMAP
0000
0000
0000
0000
7700
c900
f600
1f00
0000
6300
9300
9300
7300
3300
3300
3300
3300
3300
3300
1e00
0000
0000
0000
0000
ENDCHAR
STARTCHAR 2252
ENCODING 8786
SWIDTH 714 0
DWIDTH 12 0
BBX 12 24 0 -4
BITMAP
0c00
0c00
0c00
0c00
7700
c900
f600
1f00
0000
6300
9300
9300
7300
3300
3300
3300
3300
3300
3300
1e00
0000
0000
0000
0000
ENDCHAR
STARTCHAR 2253
ENCODING 8787
SWIDTH 714 0
DWIDTH 12 0
BBX 12 24 0 -4
BITMAP
1c40
14c0
0d80
1f00
7700
c900
f600
1f00
0000
6300
9300
9300
7300
3300
3300
3300
3300
3300
3300
1e00
0000
0000
0000
0000
ENDCHAR
STARTCHAR 2258
ENCODING 8792
SWIDTH 714 0
DWIDTH 12 0
BBX 12 24 0 -4
BITMAP
0000
0000
0000
0000
4d80
ad80
9d80
0580
0000
6300
9300
9300
7300
3300
3300
3300
3300
3300
3300
1e00
0000
0000
0000
0000
ENDCHAR
STARTCHAR 225a
ENCODING 8794
SWIDTH 714 0
DWIDTH 12 0
BBX 12 24 0 -4
BITMAP
0c00
0c00
0c00
0c00
4d80
ad80
9d80
0580
0000
6300
9300
9300
7300
3300
3300
3300
3300
3300
3300
1e00
0000
0000
0000
0000
ENDCHAR
STARTCHAR 225b
ENCODING 8795
SWIDTH 714 0
DWIDTH 12 0
BBX 12 24 0 -4
BITMAP
1c40
14c0
0d80
1f00
4d80
ad80
9d80
0580
0000
6300
9300
9300
7300
3300
3300
3300
3300
3300
3300
1e00
0000
0000
0000
0000
ENDCHAR
STARTCHAR 2260
ENCODING 8800
SWIDTH 714 0
DWIDTH 12 0
BBX 12 24 0 -4
BITMAP
0000
0000
0000
0000
0000
0000
0000
0000
0000
6300
9300
9300
7300
3300
3300
3300
3300
3300
3300
1e00
0f00
1300
0f00
0300
ENDCHAR
STARTCHAR 2262
ENCODING 8802
SWIDTH 714 0
DWIDTH 12 0
BBX 12 24 0 -4
BITMAP
0000
0000
0000
0000
0c00
0c00
0c00
0c00
0000
6300
9300
9300
7300
3300
3300
3300
3300
3300
3300
1e00
0f00
1300
0f00
0300
ENDCHAR
STARTCHAR 2263
ENCODING 8803
SWIDTH 714 0
DWIDTH 12 0
BBX 12 24 0 -4
BITMAP
0000
0000
0000
0000
1c40
14c0
0d80
1f00
0000
6300
9300
9300
7300
3300
3300
3300
3300
3300
3300
1e00
0f00
1300
0f00
0300
ENDCHAR
STARTCHAR 2268
ENCODING 8808
SWIDTH 714 0
DWIDTH 12 0
BBX 12 24 0 -4
BITMAP
0000
0000
0000
0000
0000
0000
0000
0000
0000
6300
9300
9300
7300
3300
3300
3300
3300
3300
3300
1e00
3b00
2b00
3b00
0f00
ENDCHAR
STARTCHAR 226a
ENCODING 8810
SWIDTH 714 0
DWIDTH 12 0
BBX 12 24 0 -4
BITMAP
0000
0000
0000
0000
0c00
0c00
0c00
0c00
0000
6300
9300
9300
7300
3300
3300
3300
3300
3300
3300
1e00
3b00
2b00
3b00
0f00
ENDCHAR
STARTCHAR 226b
ENCODING 8811
SWIDTH 714 0
DWIDTH 12 0
BBX 12 24 0 -4
BITMAP
0000
0000
0000
0000
1c40
14c0
0d80
1f00
0000
6300
9300
9300
7300
3300
3300
3300
3300
3300
3300
1e00
3b00
2b00
3b00
0f00
ENDCHAR
STARTCHAR 2270
ENCODING 8816
SWIDTH 714 0
DWIDTH 12 0
BBX 12 24 0 -4
BITMAP
0000
0000
0000
0000
0000
0000
0000
0000
0000
6300
9300
9300
7300
3300
3300
3300
3300
3300
3300
1e00
0000
1800
1800
0000
ENDCHAR
STARTCHAR 2278
ENCODING 8824
SWIDTH 714 0
DWIDTH 12 0
BBX 12 24 0 -4
BITMAP
0000
0000
0f00
1000
3800
4000
4200
3c00
0000
6300
9300
9300
7300
3300
3300
3300
3300
3300
3300
1e00
0000
0000
0000
0000
ENDCHAR
STARTCHAR 2330
ENCODING 9008
SWIDTH 714 0
DWIDTH 12 0
BBX 12 24 0 -4
BITMAP
0000
0000
0000
0000
0000
0000
0000
0000
0000
6c60
9660
d660
a660
4660
0660
0660
0660
0660
0660
03c0
0000
0000
0000
0000
ENDCHAR
STARTCHAR 2331
ENCODING 9009
SWIDTH 714 0
DWIDTH 12 0
BBX 12 24 0 -4
BITMAP
0000
0100
0300
6e00
d800
c600
db00
6e00
0000
6c60
9660
d660
a660
4660
0660
0660
0660
0660
0660
03c0
0000
0000
0000
0000
ENDCHAR
STARTCHAR 2332
ENCODING 9010
SWIDTH 714 0
DWIDTH 12 0
BBX 12 24 0 -4
BITMAP
0000
0000
0000
0000
0c00
0c00
0c00
0c00
0000
6c60
9660
d660
a660
4660
0660
0660
0660
0660
0660
03c0
0000
0000
0000
0000
ENDCHAR
STARTCHAR 2333
ENCODING 9011
SWIDTH 714 0
DWIDTH 12 0
BBX 12 24 0 -4
BITMAP
0000
0000
0000
0000
1c40
14c0
0d80
1f00
0000
6c60
9660
d660
a660
4660
0660
0660
0660
0660
0660
03c0
0000
0000
0000
0000
ENDCHAR
STARTCHAR 2336
ENCODING 9014
SWIDTH 714 0
DWIDTH 12 0
BBX 12 24 0 -4
BITMAP
0000
0000
0000
0000
0020
03c0
0500
0300
0000
6c60
9660
d660
a660
4660
0660
0660
0660
0660
0660
03c0
0000
0000
0000
0000
ENDCHAR
STARTCHAR 2337
ENCODING 9015
SWIDTH 714 0
DWIDTH 12 0
BBX 12 24 0 -4
BITMAP
0000
0000
0000
0000
1800
2400
1800
0000
0000
6c60
9660
d660
a660
4660
0660
0660
0660
0660
0660
03c0
0000
0000
0000
0000
ENDCHAR
STARTCHAR 2338
ENCODING 9016
SWIDTH 714 0
DWIDTH 12 0
BBX 12 24 0 -4
BITMAP
0000
0000
0000
0000
7080
d980
f300
7e00
0000
6c60
9660
d660
a660
4660
0660
0660
0660
0660
0660
03c0
0000
0000
0000
0000
ENDCHAR
STARTCHAR 233a
ENCODING 9018
SWIDTH 714 0
DWIDTH 12 0
BBX 12 24 0 -4
BITMAP
0c00
0c00
0c00
0c00
7080
d980
f300
7e00
0000
6c60
9660
d660
a660
4660
0660
0660
0660
0660
0660
03c0
0000
0000
0000
0000
ENDCHAR
STARTCHAR 233b
ENCODING 9019
SWIDTH 714 0
DWIDTH 12 0
BBX 12 24 0 -4
BITMAP
1c40
14c0
0d80
1f00
7080
d980
f300
7e00
0000
6c60
9660
d660
a660
4660
0660
0660
0660
0660
0660
03c0
0000
0000
0000
0000
ENDCHAR
STARTCHAR 2340
ENCODING 9024
SWIDTH 714 0
DWIDTH 12 0
BBX 12 24 0 -4
BITMAP
0000
0000
0000
0000
7c00
c200
fd00
0300
0000
6c60
9660
d660
a660
4660
0660
0660
0660
0660
0660
03c0
0000
0000
0000
0000
ENDCHAR
STARTCHAR 2342
ENCODING 9026
SWIDTH 714 0
DWIDTH 12 0
BBX 12 24 0 -4
BITMAP
0c00
0c00
0c00
0c00
7c00
c200
fd00
0300
0000
6c60
9660
d660
a660
4660
0660
0660
0660
0660
0660
03c0
0000
0000
0000
0000
ENDCHAR
STARTCHAR 2343
ENCODING 9027
SWIDTH 714 0
DWIDTH 12 0
BBX 12 24 0 -4
BITMAP
1c40
14c0
0d80
1f00
7c00
c200
fd00
0300
0000
6c60
9660
d660
a660
4660
0660
0660
0660
0660
0660
03c0
0000
0000
0000
0000
ENDCHAR
STARTCHAR 2348
ENCODING 9032
SWIDTH 714 0
DWIDTH 12 0
BBX 12 24 0 -4
BITMAP
0000
0000
0000
0000
7300
8b00
f700
0f00
0000
6c60
9660
d660
a660
4660
0660
0660
0660
0660
0660
03c0
0000
0000
0000
0000
ENDCHAR
STARTCHAR 234a
ENCODING 9034
SWIDTH 714 0
DWIDTH 12 0
BBX 12 24 0 -4
BITMAP
0c00
0c00
0c00
0c00
7300
8b00
f700
0f00
0000
6c60
9660
d660
a660
4660
0660
0660
0660
0660
0660
03c0
0000
0000
0000
0000
ENDCHAR
STARTCHAR 234b
ENCODING 9035
SWIDTH 714 0
DWIDTH 12 0
BBX 12 24 0 -4
BITMAP
1c40
14c0
0d80
1f00
7300
8b00
f700
0f00
0000
6c60
9660
d660
a660
4660
0660
0660
0660
0660
0660
03c0
0000
0000
0000
0000
ENDCHAR
STARTCHAR 2350
ENCODING 9040
SWIDTH 714 0
DWIDTH 12 0
BBX 12 24 0 -4
BITMAP
0000
0000
0000
0000
7700
c900
f600
1f00
0000
6c60
9660
d660
a660
4660
0660
0660
0660
0660
0660
03c0
0000
0000
0000
0000
ENDCHAR
STARTCHAR 2352
ENCODING 9042
SWIDTH 714 0
DWIDTH 12 0
BBX 12 24 0 -4
BITMAP
0c00
0c00
0c00
0c00
7700
c900
f600
1f00
0000
6c60
9660
d660
a660
4660
0660
0660
0660
0660
0660
03c0
0000
0000
0000
0000
ENDCHAR
STARTCHAR 2353
ENCODING 9043
SWIDTH 714 0
DWIDTH 12 0
BBX 12 24 0 -4
BITMAP
1c40
14c0
0d80
1f00
7700
c900
f600
1f00
0000
6c60
9660
d660
a660
4660
0660
0660
0660
0660
0660
03c0
0000
0000
0000
0000
ENDCHAR
STARTCHAR 2358
ENCODING 9048
SWIDTH 714 0
DWIDTH 12 0
BBX 12 24 0 -4
BITMAP
0000
0000
0000
0000
4d80
ad80
9d80
0580
0000
6c60
9660
d660
a660
4660
0660
0660
0660
0660
0660
03c0
0000
0000
0000
0000
ENDCHAR
STARTCHAR 235a
ENCODING 9050
SWIDTH 714 0
DWIDTH 12 0
BBX 12 24 0 -4
BITMAP
0c00
0c00
0c00
0c00
4d80
ad80
9d80
0580
0000
6c60
9660
d660
a660
4660
0660
0660
0660
0660
0660
03c0
0000
0000
0000
0000
ENDCHAR
STARTCHAR 235b
ENCODING 9051
SWIDTH 714 0
DWIDTH 12 0
BBX 12 24 0 -4
BITMAP
1c40
14c0
0d80
1f00
4d80
ad80
9d80
0580
0000
6c60
9660
d660
a660
4660
0660
0660
0660
0660
0660
03c0
0000
0000
0000
0000
ENDCHAR
STARTCHAR 2360
ENCODING 9056
SWIDTH 714 0
DWIDTH 12 0
BBX 12 24 0 -4
BITMAP
0000
0000
0000
0000
0000
0000
0000
0000
0000
6c60
9660
d660
a660
4660
0660
0660
0660
0660
0660
03c0
0f00
1300
0f00
0300
ENDCHAR
STARTCHAR 2362
ENCODING 9058
SWIDTH 714 0
DWIDTH 12 0
BBX 12 24 0 -4
BITMAP
0000
0000
0000
0000
0c00
0c00
0c00
0c00
0000
6c60
9660
d660
a660
4660
0660
0660
0660
0660
0660
03c0
0f00
1300
0f00
0300
ENDCHAR
STARTCHAR 2363
ENCODING 9059
SWIDTH 714 0
DWIDTH 12 0
BBX 12 24 0 -4
BITMAP
0000
0000
0000
0000
1c40
14c0
0d80
1f00
0000
6c60
9660
d660
a660
4660
0660
0660
0660
0660
0660
03c0
0f00
1300
0f00
0300
ENDCHAR
STARTCHAR 2368
ENCODING 9064
SWIDTH 714 0
DWIDTH 12 0
BBX 12 24 0 -4
BITMAP
0000
0000
0000
0000
0000
0000
0000
0000
0000
6c60
9660
d660
a660
4660
0660
0660
0660
0660
0660
03c0
3b00
2b00
3b00
0f00
ENDCHAR
STARTCHAR 236a
ENCODING 9066
SWIDTH 714 0
DWIDTH 12 0
BBX 12 24 0 -4
BITMAP
0000
0000
0000
0000
0c00
0c00
0c00
0c00
0000
6c60
9660
d660
a660
4660
0660
0660
0660
0660
0660
03c0
3b00
2b00
3b00
0f00
ENDCHAR
STARTCHAR 236b
ENCODING 9067
SWIDTH 714 0
DWIDTH 12 0
BBX 12 24 0 -4
BITMAP
0000
0000
0000
0000
1c40
14c0
0d80
1f00
0000
6c60
9660
d660
a660
4660
0660
0660
0660
0660
0660
03c0
3b00
2b00
3b00
0f00
ENDCHAR
STARTCHAR 2370
ENCODING 9072
SWIDTH 714 0
DWIDTH 12 0
BBX 12 24 0 -4
BITMAP
0000
0000
0000
0000
0000
0000
0000
0000
0000
6c60
9660
d660
a660
4660
0660
0660
0660
0660
0660
03c0
0000
1800
1800
0000
ENDCHAR
STARTCHAR 2378
ENCODING 9080
SWIDTH 714 0
DWIDTH 12 0
BBX 12 24 0 -4
BITMAP
0000
0000
0f00
1000
3800
4000
4200
3c00
0000
6c60
9660
d660
a660
4660
0660
0660
0660
0660
0660
03c0
0000
0000
0000
0000
ENDCHAR
STARTCHAR 2430
ENCODING 9264
SWIDTH 714 0
DWIDTH 12 0
BBX 12 24 0 -4
BITMAP
0000
0000
0000
0000
0000
0000
0000
0000
0000
3e00
4300
8180
9980
a580
7980
6180
6180
6180
6180
6180
0000
0000
0000
0000
ENDCHAR
STARTCHAR 2431
ENCODING 9265
SWIDTH 714 0
DWIDTH 12 0
BBX 12 24 0 -4
BITMAP
0000
0100
0300
6e00
d800
c600
db00
6e00
0000
3e00
4300
8180
9980
a580
7980
6180
6180
6180
6180
6180
0000
0000
0000
0000
ENDCHAR
STARTCHAR 2432
ENCODING 9266
SWIDTH 714 0
DWIDTH 12 0
BBX 12 24 0 -4
BITMAP
0000
0000
0000
0000
0c00
0c00
0c00
0c00
0000
3e00
4300
8180
9980
a580
7980
6180
6180
6180
6180
6180
0000
0000
0000
0000
ENDCHAR
STARTCHAR 2433
ENCODING 9267
SWIDTH 714 0
DWIDTH 12 0
BBX 12 24 0 -4
BITMAP
0000
0000
0000
0000
1c40
14c0
0d80
1f00
0000
3e00
4300
8180
9980
a580
7980
6180
6180
6180
6180
6180
0000
0000
0000
0000
ENDCHAR
STARTCHAR 2434
ENCODING 9268
SWIDTH 714 0
DWIDTH 12 0
BBX 12 24 0 -4
BITMAP
0000
0000
0000
0000
3640
6b40
6340
3780
0000
3e00
4300
8180
9980
a580
7980
6180
6180
6180
6180
6180
0000
0000
0000
0000
ENDCHAR
STARTCHAR 2436
ENCODING 9270
SWIDTH 714 0
DWIDTH 12 0
BBX 12 24 0 -4
BITMAP
0000
0000
0000
0000
0020
03c0
0500
0300
0000
3e00
4300
8180
9980
a580
7980
6180
6180
6180
6180
6180
0000
0000
0000
0000
ENDCHAR
STARTCHAR 2437
ENCODING 9271
SWIDTH 714 0
DWIDTH 12 0
BBX 12 24 0 -4
BITMAP
0000
0000
0000
0000
1800
2400
1800
0000
0000
3e00
4300
8180
9980
a580
7980
6180
6180
6180
6180
6180
0000
0000
0000
0000
ENDCHAR
STARTCHAR 2438
ENCODING 9272
SWIDTH 714 0
DWIDTH 12 0
BBX 12 24 0 -4
BITMAP
0000
0000
0000
0000
7080
d980
f300
7e00
0000
3e00
4300
8180
9980
a580
7980
6180
6180
6180
6180
6180
0000
0000
0000
0000
ENDCHAR
STARTCHAR 243a
ENCODING 9274
SWIDTH 714 0
DWIDTH 12 0
BBX 12 24 0 -4
BITMAP
0c00
0c00
0c00
0c00
7080
d980
f300
7e00
0000
3e00
4300
8180
9980
a580
7980
6180
6180
6180
6180
6180
0000
0000
0000
0000
ENDCHAR
STARTCHAR 243b
ENCODING 9275
SWIDTH 714 0
DWIDTH 12 0
BBX 12 24 0 -4
BITMAP
1c40
14c0
0d80
1f00
7080
d980
f300
7e00
0000
3e00
4300
8180
9980
a580
7980
6180
6180
6180
6180
6180
0000
0000
0000
0000
ENDCHAR
STARTCHAR 243c
ENCODING 9276
SWIDTH 714 0
DWIDTH 12 0
BBX 12 24 0 -4
BITMAP
3640
6b40
6340
3780
7080
d980
f300
7e00
0000
3e00
4300
8180
9980
a580
7980
6180
6180
6180
6180
6180
0000
0000
0000
0000
ENDCHAR
STARTCHAR 2440
ENCODING 9280
SWIDTH 714 0
DWIDTH 12 0
BBX 12 24 0 -4
BITMAP
0000
0000
0000
0000
7c00
c200
fd00
0300
0000
3e00
4300
8180
9980
a580
7980
6180
6180
6180
6180
6180
0000
0000
0000
0000
ENDCHAR
STARTCHAR 2442
ENCODING 9282
SWIDTH 714 0
DWIDTH 12 0
BBX 12 24 0 -4
BITMAP
0c00
0c00
0c00
0c00
7c00
c200
fd00
0300
0000
3e00
4300
8180
9980
a580
7980
6180
6180
6180
6180
6180
0000
0000
0000
0000
ENDCHAR
STARTCHAR 2443
ENCODING 9283
SWIDTH 714 0
DWIDTH 12 0
BBX 12 24 0 -4
BITMAP
1c40
14c0
0d80
1f00
7c00
c200
fd00
0300
0000
3e00
4300
8180
9980
a580
7980
6180
6180
6180
6180
6180
0000
0000
0000
0000
ENDCHAR
STARTCHAR 2444
ENCODING 9284
SWIDTH 714 0
DWIDTH 12 0
BBX 12 24 0 -4
BITMAP
3640
6b40
6340
3780
7c00
c200
fd00
0300
0000
3e00
4300
8180
9980
a580
7980
6180
6180
6180
6180
6180
0000
0000
0000
0000
ENDCHAR
STARTCHAR 2448
ENCODING 9288
SWIDTH 714 0
DWIDTH 12 0
BBX 12 24 0 -4
BITMAP
0000
0000
0000
0000
7300
8b00
f700
0f00
0000
3e00
4300
8180
9980
a580
7980
6180
6180
6180
6180
6180
0000
0000
0000
0000
ENDCHAR
STARTCHAR 244a
ENCODING 9290
SWIDTH 714 0
DWIDTH 12 0
BBX 12 24 0 -4
BITMAP
0c00
0c00
0c00
0c00
7300
8b00
f700
0f00
0000
3e00
4300
8180
9980
a580
7980
6180
6180
6180
6180
6180
0000
0000
0000
0000
ENDCHAR
STARTCHAR 244b
ENCODING 9291
SWIDTH 714 0
DWIDTH 12 0
BBX 12 24 0 -4
BITMAP
1c40
14c0
0d80
1f00
7300
8b00
f700
0f00
0000
3e00
4300
8180
9980
a580
7980
6180
6180
6180
6180
6180
0000
0000
0000
0000
ENDCHAR
STARTCHAR 244c
ENCODING 9292
SWIDTH 714 0
DWIDTH 12 0
BBX 12 24 0 -4
BITMAP
3640
6b40
6340
3780
7300
8b00
f700
0f00
0000
3e00
4300
8180
9980
a580
7980
6180
6180
6180
6180
6180
0000
0000
0000
0000
ENDCHAR
STARTCHAR 2450
ENCODING 9296
SWIDTH 714 0
DWIDTH 12 0
BBX 12 24 0 -4
BITMAP
0000
0000
0000
0000
7700
c900
f600
1f00
0000
3e00
4300
8180
9980
a580
7980
6180
6180
6180
6180
6180
0000
0000
0000
0000
ENDCHAR
STARTCHAR 2452
ENCODING 9298
SWIDTH 714 0
DWIDTH 12 0
BBX 12 24 0 -4
BITMAP
0c00
0c00
0c00
0c00
7700
c900
f600
1f00
0000
3e00
4300
8180
9980
a580
7980
6180
6180
6180
6180
6180
0000
0000
0000
0000
ENDCHAR
STARTCHAR 2453
ENCODING 9299
SWIDTH 714 0
DWIDTH 12 0
BBX 12 24 0 -4
BITMAP
1c40
14c0
0d80
1f00
7700
c900
f600
1f00
0000
3e00
4300
8180
9980
a580
7980
6180
6180
6180
6180
6180
0000
0000
0000
0000
ENDCHAR
STARTCHAR 2454
ENCODING 9300
SWIDTH 714 0
DWIDTH 12 0
BBX 12 24 0 -4
BITMAP
3640
6b40
6340
3780
7700
c900
f600
1f00
0000
3e00
4300
8180
9980
a580
7980
6180
6180
6180
6180
6180
0000
0000
0000
0000
ENDCHAR
STARTCHAR 2458
ENCODING 9304
SWIDTH 714 0
DWIDTH 12 0
BBX 12 24 0 -4
BITMAP
0000
0000
0000
0000
4d80
ad80
9d80
0580
0000
3e00
4300
8180
9980
a580
7980
6180
6180
6180
6180
6180
0000
0000
0000
0000
ENDCHAR
STARTCHAR 245a
ENCODING 9306
SWIDTH 714 0
DWIDTH 12 0
BBX 12 24 0 -4
BITMAP
0c00
0c00
0c00
0c00
4d80
ad80
9d80
0580
0000
3e00
4300
8180
9980
a580
7980
6180
6180
6180
6180
6180
0000
0000
0000
0000
ENDCHAR
STARTCHAR 245b
ENCODING 9307
SWIDTH 714 0
DWIDTH 12 0
BBX 12 24 0 -4
BITMAP
1c40
14c0
0d80
1f00
4d80
ad80
9d80
0580
0000
3e00
4300
8180
9980
a580
7980
6180
6180
6180
6180
6180
0000
0000
0000
0000
ENDCHAR
STARTCHAR 245c
ENCODING 9308
SWIDTH 714 0
DWIDTH 12 0
BBX 12 24 0 -4
BITMAP
3640
6b40
6340
3780
4d80
ad80
9d80
0580
0000
3e00
4300
8180
9980
a580
7980
6180
6180
6180
6180
6180
0000
0000
0000
0000
ENDCHAR
STARTCHAR 2460
ENCODING 9312
SWIDTH 714 0
DWIDTH 12 0
BBX 12 24 0 -4
BITMAP
0000
0000
0000
0000
0000
0000
0000
0000
0000
3e00
4300
8180
9980
a580
7980
6180
6180
6180
6180
6180
0f00
1300
0f00
0300
ENDCHAR
STARTCHAR 2462
ENCODING 9314
SWIDTH 714 0
DWIDTH 12 0
BBX 12 24 0 -4
BITMAP
0000
0000
0000
0000
0c00
0c00
0c00
0c00
0000
3e00
4300
8180
9980
a580
7980
6180
6180
6180
6180
6180
0f00
1300
0f00
0300
ENDCHAR
STARTCHAR 2463
ENCODING 9315
SWIDTH 714 0
DWIDTH 12 0
BBX 12 24 0 -4
BITMAP
0000
0000
0000
0000
1c40
14c0
0d80
1f00
0000
3e00
4300
8180
9980
a580
7980
6180
6180
6180
6180
6180
0f00
1300
0f00
0300
ENDCHAR
STARTCHAR 2464
ENCODING 9316
SWIDTH 714 0
DWIDTH 12 0
BBX 12 24 0 -4
BITMAP
0000
0000
0000
0000
3640
6b40
6340
3780
0000
3e00
4300
8180
9980
a580
7980
6180
6180
6180
6180
6180
0f00
1300
0f00
0300
ENDCHAR
STARTCHAR 2468
ENCODING 9320
SWIDTH 714 0
DWIDTH 12 0
BBX 12 24 0 -4
BITMAP
0000
0000
0000
0000
0000
0000
0000
0000
0000
3e00
4300
8180
9980
a580
7980
6180
6180
6180
6180
6180
3b00
2b00
3b00
0f00
ENDCHAR
STARTCHAR 246a
ENCODING 9322
SWIDTH 714 0
DWIDTH 12 0
BBX 12 24 0 -4
BITMAP
0000
0000
0000
0000
0c00
0c00
0c00
0c00
0000
3e00
4300
8180
9980
a580
7980
6180
6180
6180
6180
6180
3b00
2b00
3b00
0f00
ENDCHAR
STARTCHAR 246b
ENCODING 9323
SWIDTH 714 0
DWIDTH 12 0
BBX 12 24 0 -4
BITMAP
0000
0000
0000
0000
1c40
14c0
0d80
1f00
0000
3e00
4300
8180
9980
a580
7980
6180
6180
6180
6180
6180
3b00
2b00
3b00
0f00
ENDCHAR
STARTCHAR 246c
ENCODING 9324
SWIDTH 714 0
DWIDTH 12 0
BBX 12 24 0 -4
BITMAP
0000
0000
0000
0000
3640
6b40
6340
3780
0000
3e00
4300
8180
9980
a580
7980
6180
6180
6180
6180
6180
3b00
2b00
3b00
0f00
ENDCHAR
STARTCHAR 2470
ENCODING 9328
SWIDTH 714 0
DWIDTH 12 0
BBX 12 24 0 -4
BITMAP
0000
0000
0000
0000
0000
0000
0000
0000
0000
3e00
4300
8180
9980
a580
7980
6180
6180
6180
6180
6180
0000
1800
1800
0000
ENDCHAR
STARTCHAR 2478
ENCODING 9336
SWIDTH 714 0
DWIDTH 12 0
BBX 12 24 0 -4
BITMAP
0000
0000
0f00
1000
3800
4000
4200
3c00
0000
3e00
4300
8180
9980
a580
7980
6180
6180
6180
6180
6180
0000
0000
0000
0000
ENDCHAR
STARTCHAR 2530
ENCODING 9520
SWIDTH 714 0
DWIDTH 12 0
BBX 12 24 0 -4
BITMAP
0000
0000
0000
0000
0000
0000
0000
0000
0000
3600
4900
8180
9980
a580
7980
6180
6180
6180
6180
6180
0000
0000
0000
0000
ENDCHAR
STARTCHAR 2531
ENCODING 9521
SWIDTH 714 0
DWIDTH 12 0
BBX 12 24 0 -4
BITMAP
0000
0100
0300
6e00
d800
c600
db00
6e00
0000
3600
4900
8180
9980
a580
7980
6180
6180
6180
6180
6180
0000
0000
0000
0000
ENDCHAR
STARTCHAR 2532
ENCODING 9522
SWIDTH 714 0
DWIDTH 12 0
BBX 12 24 0 -4
BITMAP
0000
0000
0000
0000
0c00
0c00
0c00
0c00
0000
3600
4900
8180
9980
a580
7980
6180
6180
6180
6180
6180
0000
0000
0000
0000
ENDCHAR
STARTCHAR 2533
ENCODING 9523
SWIDTH 714 0
DWIDTH 12 0
BBX 12 24 0 -4
BITMAP
0000
0000
0000
0000
1c40
14c0
0d80
1f00
0000
3600
4900
8180
9980
a580
7980
6180
6180
6180
6180
6180
0000
0000
0000
0000
ENDCHAR
STARTCHAR 2534
ENCODING 9524
SWIDTH 714 0
DWIDTH 12 0
BBX 12 24 0 -4
BITMAP
0000
0000
0000
0000
3640
6b40
6340
3780
0000
3600
4900
8180
9980
a580
7980
6180
6180
6180
6180
6180
0000
0000
0000
0000
ENDCHAR
STARTCHAR 2536
ENCODING 9526
SWIDTH 714 0
DWIDTH 12 0
BBX 12 24 0 -4
BITMAP
0000
0000
0000
0000
0020
03c0
0500
0300
0000
3600
4900
8180
9980
a580
7980
6180
6180
6180
6180
6180
0000
0000
0000
0000
ENDCHAR
STARTCHAR 2537
ENCODING 9527
SWIDTH 714 0
DWIDTH 12 0
BBX 12 24 0 -4
BITMAP
0000
0000
0000
0000
1800
2400
1800
0000
0000
3600
4900
8180
9980
a580
7980
6180
6180
6180
6180
6180
0000
0000
0000
0000
ENDCHAR
STARTCHAR 2538
ENCODING 9528
SWIDTH 714 0
DWIDTH 12 0
BBX 12 24 0 -4
BITMAP
0000
0000
0000
0000
7080
d980
f300
7e00
0000
3600
4900
8180
9980
a580
7980
6180
6180
6180
6180
6180
0000
0000
0000
0000
ENDCHAR
STARTCHAR 253a
ENCODING 9530
SWIDTH 714 0
DWIDTH 12 0
BBX 12 24 0 -4
BITMAP
0c00
0c00
0c00
0c00
7080
d980
f300
7e00
0000
3600
4900
8180
9980
a580
7980
6180
6180
6180
6180
6180
0000
0000
0000
0000
ENDCHAR
STARTCHAR 253b
ENCODING 9531
SWIDTH 714 0
DWIDTH 12 0
BBX 12 24 0 -4
BITMAP
1c40
14c0
0d80
1f00
7080
d980
f300
7e00
0000
3600
4900
8180
9980
a580
7980
6180
6180
6180
6180
6180
0000
0000
0000
0000
ENDCHAR
STARTCHAR 253c
ENCODING 9532
SWIDTH 714 0
DWIDTH 12 0
BBX 12 24 0 -4
BITMAP
3640
6b40
6340
3780
7080
d980
f300
7e00
0000
3600
4900
8180
9980
a580
7980
6180
6180
6180
6180
6180
0000
0000
0000
0000
ENDCHAR
STARTCHAR 2540
ENCODING 9536
SWIDTH 714 0
DWIDTH 12 0
BBX 12 24 0 -4
BITMAP
0000
0000
0000
0000
7c00
c200
fd00
0300
0000
3600
4900
8180
9980
a580
7980
6180
6180
6180
6180
6180
0000
0000
0000
0000
ENDCHAR
STARTCHAR 2542
ENCODING 9538
SWIDTH 714 0
DWIDTH 12 0
BBX 12 24 0 -4
BITMAP
0c00
0c00
0c00
0c00
7c00
c200
fd00
0300
0000
3600
4900
8180
9980
a580
7980
6180
6180
6180
6180
6180
0000
0000
0000
0000
ENDCHAR
STARTCHAR 2543
ENCODING 9539
SWIDTH 714 0
DWIDTH 12 0
BBX 12 24 0 -4
BITMAP
1c40
14c0
0d80
1f00
7c00
c200
fd00
0300
0000
3600
4900
8180
9980
a580
7980
6180
6180
6180
6180
6180
0000
0000
0000
0000
ENDCHAR
STARTCHAR 2544
ENCODING 9540
SWIDTH 714 0
DWIDTH 12 0
BBX 12 24 0 -4
BITMAP
3640
6b40
6340
3780
7c00
c200
fd00
0300
0000
3600
4900
8180
9980
a580
7980
6180
6180
6180
6180
6180
0000
0000
0000
0000
ENDCHAR
STARTCHAR 2548
ENCODING 9544
SWIDTH 714 0
DWIDTH 12 0
BBX 12 24 0 -4
BITMAP
0000
0000
0000
0000
7300
8b00
f700
0f00
0000
3600
4900
8180
9980
a580
7980
6180
6180
6180
6180
6180
0000
0000
0000
0000
ENDCHAR
STARTCHAR 254a
ENCODING 9546
SWIDTH 714 0
DWIDTH 12 0
BBX 12 24 0 -4
BITMAP
0c00
0c00
0c00
0c00
7300
8b00
f700
0f00
0000
3600
4900
8180
9980
a580
7980
6180
6180
6180
6180
6180
0000
0000
0000
0000
ENDCHAR
STARTCHAR 254b
ENCODING 9547
SWIDTH 714 0
DWIDTH 12 0
BBX 12 24 0 -4
BITMAP
1c40
14c0
0d80
1f00
7300
8b00
f700
0f00
0000
3600
4900
8180
9980
a580
7980
6180
6180
6180
6180
6180
0000
0000
0000
0000
ENDCHAR
STARTCHAR 254c
ENCODING 9548
SWIDTH 714 0
DWIDTH 12 0
BBX 12 24 0 -4
BITMAP
3640
6b40
6340
3780
7300
8b00
f700
0f00
0000
3600
4900
8180
9980
a580
7980
6180
6180
6180
6180
6180
0000
0000
0000
0000
ENDCHAR
STARTCHAR 2550
ENCODING 9552
SWIDTH 714 0
DWIDTH 12 0
BBX 12 24 0 -4
BITMAP
0000
0000
0000
0000
7700
c900
f600
1f00
0000
3600
4900
8180
9980
a580
7980
6180
6180
6180
6180
6180
0000
0000
0000
0000
ENDCHAR
STARTCHAR 2552
ENCODING 9554
SWIDTH 714 0
DWIDTH 12 0
BBX 12 24 0 -4
BITMAP
0c00
0c00
0c00
0c00
7700
c900
f600
1f00
0000
3600
4900
8180
9980
a580
7980
6180
6180
6180
6180
6180
0000
0000
0000
0000
ENDCHAR
STARTCHAR 2553
ENCODING 9555
SWIDTH 714 0
DWIDTH 12 0
BBX 12 24 0 -4
BITMAP
1c40
14c0
0d80
1f00
7700
c900
f600
1f00
0000
3600
4900
8180
9980
a580
7980
6180
6180
6180
6180
6180
0000
0000
0000
0000
ENDCHAR
STARTCHAR 2554
ENCODING 9556
SWIDTH 714 0
DWIDTH 12 0
BBX 12 24 0 -4
BITMAP
3640
6b40
6340
3780
7700
c900
f600
1f00
0000
3600
4900
8180
9980
a580
7980
6180
6180
6180
6180
6180
0000
0000
0000
0000
ENDCHAR
STARTCHAR 2558
ENCODING 9560
SWIDTH 714 0
DWIDTH 12 0
BBX 12 24 0 -4
BITMAP
0000
0000
0000
0000
4d80
ad80
9d80
0580
0000
3600
4900
8180
9980
a580
7980
6180
6180
6180
6180
6180
0000
0000
0000
0000
ENDCHAR
STARTCHAR 255a
ENCODING 9562
SWIDTH 714 0
DWIDTH 12 0
BBX 12 24 0 -4
BITMAP
0c00
0c00
0c00
0c00
4d80
ad80
9d80
0580
0000
3600
4900
8180
9980
a580
7980
6180
6180
6180
6180
6180
0000
0000
0000
0000
ENDCHAR
STARTCHAR 255b
ENCODING 9563
SWIDTH 714 0
DWIDTH 12 0
BBX 12 24 0 -4
BITMAP
1c40
14c0
0d80
1f00
4d80
ad80
9d80
0580
0000
3600
4900
8180
9980
a580
7980
6180
6180
6180
6180
6180
0000
0000
0000
0000
ENDCHAR
STARTCHAR 255c
ENCODING 9564
SWIDTH 714 0
DWIDTH 12 0
BBX 12 24 0 -4
BITMAP
3640
6b40
6340
3780
4d80
ad80
9d80
0580
0000
3600
4900
8180
9980
a580
7980
6180
6180
6180
6180
6180
0000
0000
0000
0000
ENDCHAR
STARTCHAR 2560
ENCODING 9568
SWIDTH 714 0
DWIDTH 12 0
BBX 12 24 0 -4
BITMAP
0000
0000
0000
0000
0000
0000
0000
0000
0000
3600
4900
8180
9980
a580
7980
6180
6180
6180
6180
6180
0f00
1300
0f00
0300
ENDCHAR
STARTCHAR 2562
ENCODING 9570
SWIDTH 714 0
DWIDTH 12 0
BBX 12 24 0 -4
BITMAP
0000
0000
0000
0000
0c00
0c00
0c00
0c00
0000
3600
4900
8180
9980
a580
7980
6180
6180
6180
6180
6180
0f00
1300
0f00
0300
ENDCHAR
STARTCHAR 2563
ENCODING 9571
SWIDTH 714 0
DWIDTH 12 0
BBX 12 24 0 -4
BITMAP
0000
0000
0000
0000
1c40
14c0
0d80
1f00
0000
3600
4900
8180
9980
a580
7980
6180
6180
6180
6180
6180
0f00
1300
0f00
0300
ENDCHAR
STARTCHAR 2564
ENCODING 9572
SWIDTH 714 0
DWIDTH 12 0
BBX 12 24 0 -4
BITMAP
0000
0000
0000
0000
3640
6b40
6340
3780
0000
3600
4900
8180
9980
a580
7980
6180
6180
6180
6180
6180
0f00
1300
0f00
0300
ENDCHAR
STARTCHAR 2568
ENCODING 9576
SWIDTH 714 0
DWIDTH 12 0
BBX 12 24 0 -4
BITMAP
0000
0000
0000
0000
0000
0000
0000
0000
0000
3600
4900
8180
9980
a580
7980
6180
6180
6180
6180
6180
3b00
2b00
3b00
0f00
ENDCHAR
STARTCHAR 256a
ENCODING 9578
SWIDTH 714 0
DWIDTH 12 0
BBX 12 24 0 -4
BITMAP
0000
0000
0000
0000
0c00
0c00
0c00
0c00
0000
3600
4900
8180
9980
a580
7980
6180
6180
6180
6180
6180
3b00
2b00
3b00
0f00
ENDCHAR
STARTCHAR 256b
ENCODING 9579
SWIDTH 714 0
DWIDTH 12 0
BBX 12 24 0 -4
BITMAP
0000
0000
0000
0000
1c40
14c0
0d80
1f00
0000
3600
4900
8180
9980
a580
7980
6180
6180
6180
6180
6180
3b00
2b00
3b00
0f00
ENDCHAR
STARTCHAR 256c
ENCODING 9580
SWIDTH 714 0
DWIDTH 12 0
BBX 12 24 0 -4
BITMAP
0000
0000
0000
0000
3640
6b40
6340
3780
0000
3600
4900
8180
9980
a580
7980
6180
6180
6180
6180
6180
3b00
2b00
3b00
0f00
ENDCHAR
STARTCHAR 2570
ENCODING 9584
SWIDTH 714 0
DWIDTH 12 0
BBX 12 24 0 -4
BITMAP
0000
0000
0000
0000
0000
0000
0000
0000
0000
3600
4900
8180
9980
a580
7980
6180
6180
6180
6180
6180
0000
1800
1800
0000
ENDCHAR
STARTCHAR 2578
ENCODING 9592
SWIDTH 714 0
DWIDTH 12 0
BBX 12 24 0 -4
BITMAP
0000
0000
0f00
1000
3800
4000
4200
3c00
0000
3600
4900
8180
9980
a580
7980
6180
6180
6180
6180
6180
0000
0000
0000
0000
ENDCHAR
STARTCHAR 2630
ENCODING 9776
SWIDTH 714 0
DWIDTH 12 0
BBX 12 24 0 -4
BITMAP
0000
0000
0000
0000
0000
0000
0000
0000
0000
6c60
9260
c660
4c60
0c60
0c60
0c60
1e60
2d60
2ce0
1840
0000
0000
0000
0000
ENDCHAR
STARTCHAR 2631
ENCODING 9777
SWIDTH 714 0
DWIDTH 12 0
BBX 12 24 0 -4
BITMAP
0000
0100
0300
6e00
d800
c600
db00
6e00
0000
6c60
9260
c660
4c60
0c60
0c60
0c60
1e60
2d60
2ce0
1840
0000
0000
0000
0000
ENDCHAR
STARTCHAR 2632
ENCODING 9778
SWIDTH 714 0
DWIDTH 12 0
BBX 12 24 0 -4
BITMAP
0000
0000
0000
0000
0c00
0c00
0c00
0c00
0000
6c60
9260
c660
4c60
0c60
0c60
0c60
1e60
2d60
2ce0
1840
0000
0000
0000
0000
ENDCHAR
STARTCHAR 2633
ENCODING 9779
SWIDTH 714 0
DWIDTH 12 0
BBX 12 24 0 -4
BITMAP
0000
0000
0000
0000
1c40
14c0
0d80
1f00
0000
6c60
9260
c660
4c60
0c60
0c60
0c60
1e60
2d60
2ce0
1840
0000
0000
0000
0000
ENDCHAR
STARTCHAR 2634
ENCODING 9780
SWIDTH 714 0
DWIDTH 12 0
BBX 12 24 0 -4
BITMAP
0000
0000
0000
0000
3640
6b40
6340
3780
0000
6c60
9260
c660
4c60
0c60
0c60
0c60
1e60
2d60
2ce0
1840
0000
0000
0000
0000
ENDCHAR
STARTCHAR 2636
ENCODING 9782
SWIDTH 714 0
DWIDTH 12 0
BBX 12 24 0 -4
BITMAP
0000
0000
0000
0000
0020
03c0
0500
0300
0000
6c60
9260
c660
4c60
0c60
0c60
0c60
1e60
2d60
2ce0
1840
0000
0000
0000
0000
ENDCHAR
STARTCHAR 2637
ENCODING 9783
SWIDTH 714 0
DWIDTH 12 0
BBX 12 24 0 -4
BITMAP
0000
0000
0000
0000
1800
2400
1800
0000
0000
6c60
9260
c660
4c60
0c60
0c60
0c60
1e60
2d60
2ce0
1840
0000
0000
0000
0000
ENDCHAR
STARTCHAR 2638
ENCODING 9784
SWIDTH 714 0
DWIDTH 12 0
BBX 12 24 0 -4
BITMAP
0000
0000
0000
0000
7080
d980
f300
7e00
0000
6c60
9260
c660
4c60
0c60
0c60
0c60
1e60
2d60
2ce0
1840
0000
0000
0000
0000
ENDCHAR
STARTCHAR 263a
ENCODING 9786
SWIDTH 714 0
DWIDTH 12 0
BBX 12 24 0 -4
BITMAP
0c00
0c00
0c00
0c00
7080
d980
f300
7e00
0000
6c60
9260
c660
4c60
0c60
0c60
0c60
1e60
2d60
2ce0
1840
0000
0000
0000
0000
ENDCHAR
STARTCHAR 263b
ENCODING 9787
SWIDTH 714 0
DWIDTH 12 0
BBX 12 24 0 -4
BITMAP
1c40
14c0
0d80
1f00
7080
d980
f300
7e00
0000
6c60
9260
c660
4c60
0c60
0c60
0c60
1e60
2d60
2ce0
1840
0000
0000
0000
0000
ENDCHAR
STARTCHAR 263c
ENCODING 9788
SWIDTH 714 0
DWIDTH 12 0
BBX 12 24 0 -4
BITMAP
3640
6b40
6340
3780
7080
d980
f300
7e00
0000
6c60
9260
c660
4c60
0c60
0c60
0c60
1e60
2d60
2ce0
1840
0000
0000
0000
0000
ENDCHAR
STARTCHAR 2640
ENCODING 9792
SWIDTH 714 0
DWIDTH 12 0
BBX 12 24 0 -4
BITMAP
0000
0000
0000
0000
7c00
c200
fd00
0300
0000
6c60
9260
c660
4c60
0c60
0c60
0c60
1e60
2d60
2ce0
1840
0000
0000
0000
0000
ENDCHAR
STARTCHAR 2642
ENCODING 9794
SWIDTH 714 0
DWIDTH 12 0
BBX 12 24 0 -4
BITMAP
0c00
0c00
0c00
0c00
7c00
c200
fd00
0300
0000
6c60
9260
c660
4c60
0c60
0c60
0c60
1e60
2d60
2ce0
1840
0000
0000
0000
0000
ENDCHAR
STARTCHAR 2643
ENCODING 9795
SWIDTH 714 0
DWIDTH 12 0
BBX 12 24 0 -4
BITMAP
1c40
14c0
0d80
1f00
7c00
c200
fd00
0300
0000
6c60
9260
c660
4c60
0c60
0c60
0c60
1e60
2d60
2ce0
1840
0000
0000
0000
0000
ENDCHAR
STARTCHAR 2644
ENCODING 9796
SWIDTH 714 0
DWIDTH 12 0
BBX 12 24 0 -4
BITMAP
3640
6b40
6340
3780
7c00
c200
fd00
0300
0000
6c60
9260
c660
4c60
0c60
0c60
0c60
1e60
2d60
2ce0
1840
0000
0000
0000
0000
ENDCHAR
STARTCHAR 2648
ENCODING 9800
SWIDTH 714 0
DWIDTH 12 0
BBX 12 24 0 -4
BITMAP
0000
0000
0000
0000
7300
8b00
f700
0f00
0000
6c60
9260
c660
4c60
0c60
0c60
0c60
1e60
2d60
2ce0
1840
0000
0000
0000
0000
ENDCHAR
STARTCHAR 264a
ENCODING 9802
SWIDTH 714 0
DWIDTH 12 0
BBX 12 24 0 -4
BITMAP
0c00
0c00
0c00
0c00
7300
8b00
f700
0f00
0000
6c60
9260
c660
4c60
0c60
0c60
0c60
1e60
2d60
2ce0
1840
0000
0000
0000
0000
ENDCHAR
STARTCHAR 264b
ENCODING 9803
SWIDTH 714 0
DWIDTH 12 0
BBX 12 24 0 -4
BITMAP
1c40
14c0
0d80
1f00
7300
8b00
f700
0f00
0000
6c60
9260
c660
4c60
0c60
0c60
0c60
1e60
2d60
2ce0
1840
0000
0000
0000
0000
ENDCHAR
STARTCHAR 264c
ENCODING 9804
SWIDTH 714 0
DWIDTH 12 0
BBX 12 24 0 -4
BITMAP
3640
6b40
6340
3780
7300
8b00
f700
0f00
0000
6c60
9260
c660
4c60
0c60
0c60
0c60
1e60
2d60
2ce0
1840
0000
0000
0000
0000
ENDCHAR
STARTCHAR 2650
ENCODING 9808
SWIDTH 714 0
DWIDTH 12 0
BBX 12 24 0 -4
BITMAP
0000
0000
0000
0000
7700
c900
f600
1f00
0000
6c60
9260
c660
4c60
0c60
0c60
0c60
1e60
2d60
2ce0
1840
0000
0000
0000
0000
ENDCHAR
STARTCHAR 2652
ENCODING 9810
SWIDTH 714 0
DWIDTH 12 0
BBX 12 24 0 -4
BITMAP
0c00
0c00
0c00
0c00
7700
c900
f600
1f00
0000
6c60
9260
c660
4c60
0c60
0c60
0c60
1e60
2d60
2ce0
1840
0000
0000
0000
0000
ENDCHAR
STARTCHAR 2653
ENCODING 9811
SWIDTH 714 0
DWIDTH 12 0
BBX 12 24 0 -4
BITMAP
1c40
14c0
0d80
1f00
7700
c900
f600
1f00
0000
6c60
9260
c660
4c60
0c60
0c60
0c60
1e60
2d60
2ce0
1840
0000
0000
0000
0000
ENDCHAR
STARTCHAR 2654
ENCODING 9812
SWIDTH 714 0
DWIDTH 12 0
BBX 12 24 0 -4
BITMAP
3640
6b40
6340
3780
7700
c900
f600
1f00
0000
6c60
9260
c660
4c60
0c60
0c60
0c60
1e60
2d60
2ce0
1840
0000
0000
0000
0000
ENDCHAR
STARTCHAR 2658
ENCODING 9816
SWIDTH 714 0
DWIDTH 12 0
BBX 12 24 0 -4
BITMAP
0000
0000
0000
0000
4d80
ad80
9d80
0580
0000
6c60
9260
c660
4c60
0c60
0c60
0c60
1e60
2d60
2ce0
1840
0000
0000
0000
0000
ENDCHAR
STARTCHAR 265a
ENCODING 9818
SWIDTH 714 0
DWIDTH 12 0
BBX 12 24 0 -4
BITMAP
0c00
0c00
0c00
0c00
4d80
ad80
9d80
0580
0000
6c60
9260
c660
4c60
0c60
0c60
0c60
1e60
2d60
2ce0
1840
0000
0000
0000
0000
ENDCHAR
STARTCHAR 265b
ENCODING 9819
SWIDTH 714 0
DWIDTH 12 0
BBX 12 24 0 -4
BITMAP
1c40
14c0
0d80
1f00
4d80
ad80
9d80
0580
0000
6c60
9260
c660
4c60
0c60
0c60
0c60
1e60
2d60
2ce0
1840
0000
0000
0000
0000
ENDCHAR
STARTCHAR 265c
ENCODING 9820
SWIDTH 714 0
DWIDTH 12 0
BBX 12 24 0 -4
BITMAP
3640
6b40
6340
3780
4d80
ad80
9d80
0580
0000
6c60
9260
c660
4c60
0c60
0c60
0c60
1e60
2d60
2ce0
1840
0000
0000
0000
0000
ENDCHAR
STARTCHAR 2660
ENCODING 9824
SWIDTH 714 0
DWIDTH 12 0
BBX 12 24 0 -4
BITMAP
0000
0000
0000
0000
0000
0000
0000
0000
0000
6c60
9260
c660
4c60
0c60
0c60
0c60
1e60
2d60
2ce0
1840
0f00
1300
0f00
0300
ENDCHAR
STARTCHAR 2662
ENCODING 9826
SWIDTH 714 0
DWIDTH 12 0
BBX 12 24 0 -4
BITMAP
0000
0000
0000
0000
0c00
0c00
0c00
0c00
0000
6c60
9260
c660
4c60
0c60
0c60
0c60
1e60
2d60
2ce0
1840
0f00
1300
0f00
0300
ENDCHAR
STARTCHAR 2663
ENCODING 9827
SWIDTH 714 0
DWIDTH 12 0
BBX 12 24 0 -4
BITMAP
0000
0000
0000
0000
1c40
14c0
0d80
1f00
0000
6c60
9260
c660
4c60
0c60
0c60
0c60
1e60
2d60
2ce0
1840
0f00
1300
0f00
0300
ENDCHAR
STARTCHAR 2664
ENCODING 9828
SWIDTH 714 0
DWIDTH 12 0
BBX 12 24 0 -4
BITMAP
0000
0000
0000
0000
3640
6b40
6340
3780
0000
6c60
9260
c660
4c60
0c60
0c60
0c60
1e60
2d60
2ce0
1840
0f00
1300
0f00
0300
ENDCHAR
STARTCHAR 2668
ENCODING 9832
SWIDTH 714 0
DWIDTH 12 0
BBX 12 24 0 -4
BITMAP
0000
0000
0000
0000
0000
0000
0000
0000
0000
6c60
9260
c660
4c60
0c60
0c60
0c60
1e60
2d60
2ce0
1840
3b00
2b00
3b00
0f00
ENDCHAR
STARTCHAR 266a
ENCODING 9834
SWIDTH 714 0
DWIDTH 12 0
BBX 12 24 0 -4
BITMAP
0000
0000
0000
0000
0c00
0c00
0c00
0c00
0000
6c60
9260
c660
4c60
0c60
0c60
0c60
1e60
2d60
2ce0
1840
3b00
2b00
3b00
0f00
ENDCHAR
STARTCHAR 266b
ENCODING 9835
SWIDTH 714 0
DWIDTH 12 0
BBX 12 24 0 -4
BITMAP
0000
0000
0000
0000
1c40
14c0
0d80
1f00
0000
6c60
9260
c660
4c60
0c60
0c60
0c60
1e60
2d60
2ce0
1840
3b00
2b00
3b00
0f00
ENDCHAR
STARTCHAR 266c
ENCODING 9836
SWIDTH 714 0
DWIDTH 12 0
BBX 12 24 0 -4
BITMAP
0000
0000
0000
0000
3640
6b40
6340
3780
0000
6c60
9260
c660
4c60
0c60
0c60
0c60
1e60
2d60
2ce0
1840
3b00
2b00
3b00
0f00
ENDCHAR
STARTCHAR 2670
ENCODING 9840
SWIDTH 714 0
DWIDTH 12 0
BBX 12 24 0 -4
BITMAP
0000
0000
0000
0000
0000
0000
0000
0000
0000
6c60
9260
c660
4c60
0c60
0c60
0c60
1e60
2d60
2ce0
1840
0000
1800
1800
0000
ENDCHAR
STARTCHAR 2678
ENCODING 9848
SWIDTH 714 0
DWIDTH 12 0
BBX 12 24 0 -4
BITMAP
0000
0000
0f00
1000
3800
4000
4200
3c00
0000
6c60
9260
c660
4c60
0c60
0c60
0c60
1e60
2d60
2ce0
1840
0000
0000
0000
0000
ENDCHAR
STARTCHAR 2730
ENCODING 10032
SWIDTH 714 0
DWIDTH 12 0
BBX 12 24 0 -4
BITMAP
0000
0000
0000
0000
0000
0000
0000
0000
0000
1800
2c00
2c00
1c00
0c00
0c00
8c00
4c00
2c00
1c00
0800
0000
0000
0000
0000
ENDCHAR
STARTCHAR 2731
ENCODING 10033
SWIDTH 714 0
DWIDTH 12 0
BBX 12 24 0 -4
BITMAP
0000
0100
0300
6e00
d800
c600
db00
6e00
0000
1800
2c00
2c00
1c00
0c00
0c00
8c00
4c00
2c00
1c00
0800
0000
0000
0000
0000
ENDCHAR
STARTCHAR 2732
ENCODING 10034
SWIDTH 714 0
DWIDTH 12 0
BBX 12 24 0 -4
BITMAP
0000
0000
0000
0000
0c00
0c00
0c00
0c00
0000
1800
2c00
2c00
1c00
0c00
0c00
8c00
4c00
2c00
1c00
0800
0000
0000
0000
0000
ENDCHAR
STARTCHAR 2733
ENCODING 10035
SWIDTH 714 0
DWIDTH 12 0
BBX 12 24 0 -4
BITMAP
0000
0000
0000
0000
1c40
14c0
0d80
1f00
0000
1800
2c00
2c00
1c00
0c00
0c00
8c00
4c00
2c00
1c00
0800
0000
0000
0000
0000
ENDCHAR
STARTCHAR 2734
ENCODING 10036
SWIDTH 714 0
DWIDTH 12 0
BBX 12 24 0 -4
BITMAP
0000
0000
0000
0000
3640
6b40
6340
3780
0000
1800
2c00
2c00
1c00
0c00
0c00
8c00
4c00
2c00
1c00
0800
0000
0000
0000
0000
ENDCHAR
STARTCHAR 2735
ENCODING 10037
SWIDTH 714 0
DWIDTH 12 0
BBX 12 24 0 -4
BITMAP
0000
0000
0000
0000
0c00
1e00
1e00
0c00
0000
1800
2c00
2c00
1c00
0c00
0c00
8c00
4c00
2c00
1c00
0800
0000
0000
0000
0000
ENDCHAR
STARTCHAR 2736
ENCODING 10038
SWIDTH 714 0
DWIDTH 12 0
BBX 12 24 0 -4
BITMAP
0000
0000
0000
0000
0020
03c0
0500
0300
0000
1800
2c00
2c00
1c00
0c00
0c00
8c00
4c00
2c00
1c00
0800
0000
0000
0000
0000
ENDCHAR
STARTCHAR 2737
ENCODING 10039
SWIDTH 714 0
DWIDTH 12 0
BBX 12 24 0 -4
BITMAP
0000
0000
0000
0000
1800
2400
1800
0000
0000
1800
2c00
2c00
1c00
0c00
0c00
8c00
4c00
2c00
1c00
0800
0000
0000
0000
0000
ENDCHAR
STARTCHAR 2738
ENCODING 10040
SWIDTH 714 0
DWIDTH 12 0
BBX 12 24 0 -4
BITMAP
0000
0000
0000
0000
7080
d980
f300
7e00
0000
1800
2c00
2c00
1c00
0c00
0c00
8c00
4c00
2c00
1c00
0800
0000
0000
0000
0000
ENDCHAR
STARTCHAR 273a
ENCODING 10042
SWIDTH 714 0
DWIDTH 12 0
BBX 12 24 0 -4
BITMAP
0c00
0c00
0c00
0c00
7080
d980
f300
7e00
0000
1800
2c00
2c00
1c00
0c00
0c00
8c00
4c00
2c00
1c00
0800
0000
0000
0000
0000
ENDCHAR
STARTCHAR 273b
ENCODING 10043
SWIDTH 714 0
DWIDTH 12 0
BBX 12 24 0 -4
BITMAP
1c40
14c0
0d80
1f00
7080
d980
f300
7e00
0000
1800
2c00
2c00
1c00
0c00
0c00
8c00
4c00
2c00
1c00
0800
0000
0000
0000
0000
ENDCHAR
STARTCHAR 273c
ENCODING 10044
SWIDTH 714 0
DWIDTH 12 0
BBX 12 24 0 -4
BITMAP
3640
6b40
6340
3780
7080
d980
f300
7e00
0000
1800
2c00
2c00
1c00
0c00
0c00
8c00
4c00
2c00
1c00
0800
0000
0000
0000
0000
ENDCHAR
STARTCHAR 273d
ENCODING 10045
SWIDTH 714 0
DWIDTH 12 0
BBX 12 24 0 -4
BITMAP
0c00
1e00
1e00
0c00
7080
d980
f300
7e00
0000
1800
2c00
2c00
1c00
0c00
0c00
8c00
4c00
2c00
1c00
0800
0000
0000
0000
0000
ENDCHAR
STARTCHAR 2740
ENCODING 10048
SWIDTH 714 0
DWIDTH 12 0
BBX 12 24 0 -4
BITMAP
0000
0000
0000
0000
7c00
c200
fd00
0300
0000
1800
2c00
2c00
1c00
0c00
0c00
8c00
4c00
2c00
1c00
0800
0000
0000
0000
0000
ENDCHAR
STARTCHAR 2742
ENCODING 10050
SWIDTH 714 0
DWIDTH 12 0
BBX 12 24 0 -4
BITMAP
0c00
0c00
0c00
0c00
7c00
c200
fd00
0300
0000
1800
2c00
2c00
1c00
0c00
0c00
8c00
4c00
2c00
1c00
0800
0000
0000
0000
0000
ENDCHAR
STARTCHAR 2743
ENCODING 10051
SWIDTH 714 0
DWIDTH 12 0
BBX 12 24 0 -4
BITMAP
1c40
14c0
0d80
1f00
7c00
c200
fd00
0300
0000
1800
2c00
2c00
1c00
0c00
0c00
8c00
4c00
2c00
1c00
0800
0000
0000
0000
0000
ENDCHAR
STARTCHAR 2744
ENCODING 10052
SWIDTH 714 0
DWIDTH 12 0
BBX 12 24 0 -4
BITMAP
3640
6b40
6340
3780
7c00
c200
fd00
0300
0000
1800
2c00
2c00
1c00
0c00
0c00
8c00
4c00
2c00
1c00
0800
0000
0000
0000
0000
ENDCHAR
STARTCHAR 2745
ENCODING 10053
SWIDTH 714 0
DWIDTH 12 0
BBX 12 24 0 -4
BITMAP
0c00
1e00
1e00
0c00
7c00
c200
fd00
0300
0000
1800
2c00
2c00
1c00
0c00
0c00
8c00
4c00
2c00
1c00
0800
0000
0000
0000
0000
ENDCHAR
STARTCHAR 2748
ENCODING 10056
SWIDTH 714 0
DWIDTH 12 0
BBX 12 24 0 -4
BITMAP
0000
0000
0000
0000
7300
8b00
f700
0f00
0000
1800
2c00
2c00
1c00
0c00
0c00
8c00
4c00
2c00
1c00
0800
0000
0000
0000
0000
ENDCHAR
STARTCHAR 274a
ENCODING 10058
SWIDTH 714 0
DWIDTH 12 0
BBX 12 24 0 -4
BITMAP
0c00
0c00
0c00
0c00
7300
8b00
f700
0f00
0000
1800
2c00
2c00
1c00
0c00
0c00
8c00
4c00
2c00
1c00
0800
0000
0000
0000
0000
ENDCHAR
STARTCHAR 274b
ENCODING 10059
SWIDTH 714 0
DWIDTH 12 0
BBX 12 24 0 -4
BITMAP
1c40
14c0
0d80
1f00
7300
8b00
f700
0f00
0000
1800
2c00
2c00
1c00
0c00
0c00
8c00
4c00
2c00
1c00
0800
0000
0000
0000
0000
ENDCHAR
STARTCHAR 274c
ENCODING 10060
SWIDTH 714 0
DWIDTH 12 0
BBX 12 24 0 -4
BITMAP
3640
6b40
6340
3780
7300
8b00
f700
0f00
0000
1800
2c00
2c00
1c00
0c00
0c00
8c00
4c00
2c00
1c00
0800
0000
0000
0000
0000
ENDCHAR
STARTCHAR 274d
ENCODING 10061
SWIDTH 714 0
DWIDTH 12 0
BBX 12 24 0 -4
BITMAP
0c00
1e00
1e00
0c00
7300
8b00
f700
0f00
0000
1800
2c00
2c00
1c00
0c00
0c00
8c00
4c00
2c00
1c00
0800
0000
0000
0000
0000
ENDCHAR
STARTCHAR 2750
ENCODING 10064
SWIDTH 714 0
DWIDTH 12 0
BBX 12 24 0 -4
BITMAP
0000
0000
0000
0000
7700
c900
f600
1f00
0000
1800
2c00
2c00
1c00
0c00
0c00
8c00
4c00
2c00
1c00
0800
0000
0000
0000
0000
ENDCHAR
STARTCHAR 2752
ENCODING 10066
SWIDTH 714 0
DWIDTH 12 0
BBX 12 24 0 -4
BITMAP
0c00
0c00
0c00
0c00
7700
c900
f600
1f00
0000
1800
2c00
2c00
1c00
0c00
0c00
8c00
4c00
2c00
1c00
0800
0000
0000
0000
0000
ENDCHAR
STARTCHAR 2753
ENCODING 10067
SWIDTH 714 0
DWIDTH 12 0
BBX 12 24 0 -4
BITMAP
1c40
14c0
0d80
1f00
7700
c900
f600
1f00
0000
1800
2c00
2c00
1c00
0c00
0c00
8c00
4c00
2c00
1c00
0800
0000
0000
0000
0000
ENDCHAR
STARTCHAR 2754
ENCODING 10068
SWIDTH 714 0
DWIDTH 12 0
BBX 12 24 0 -4
BITMAP
3640
6b40
6340
3780
7700
c900
f600
1f00
0000
1800
2c00
2c00
1c00
0c00
0c00
8c00
4c00
2c00
1c00
0800
0000
0000
0000
0000
ENDCHAR
STARTCHAR 2755
ENCODING 10069
SWIDTH 714 0
DWIDTH 12 0
BBX 12 24 0 -4
BITMAP
0c00
1e00
1e00
0c00
7700
c900
f600
1f00
0000
1800
2c00
2c00
1c00
0c00
0c00
8c00
4c00
2c00
1c00
0800
0000
0000
0000
0000
ENDCHAR
STARTCHAR 2758
ENCODING 10072
SWIDTH 714 0
DWIDTH 12 0
BBX 12 24 0 -4
BITMAP
0000
0000
0000
0000
4d80
ad80
9d80
0580
0000
1800
2c00
2c00
1c00
0c00
0c00
8c00
4c00
2c00
1c00
0800
0000
0000
0000
0000
ENDCHAR
STARTCHAR 275a
ENCODING 10074
SWIDTH 714 0
DWIDTH 12 0
BBX 12 24 0 -4
BITMAP
0c00
0c00
0c00
0c00
4d80
ad80
9d80
0580
0000
1800
2c00
2c00
1c00
0c00
0c00
8c00
4c00
2c00
1c00
0800
0000
0000
0000
0000
ENDCHAR
STARTCHAR 275b
ENCODING 10075
SWIDTH 714 0
DWIDTH 12 0
BBX 12 24 0 -4
BITMAP
1c40
14c0
0d80
1f00
4d80
ad80
9d80
0580
0000
1800
2c00
2c00
1c00
0c00
0c00
8c00
4c00
2c00
1c00
0800
0000
0000
0000
0000
ENDCHAR
STARTCHAR 275c
ENCODING 10076
SWIDTH 714 0
DWIDTH 12 0
BBX 12 24 0 -4
BITMAP
3640
6b40
6340
3780
4d80
ad80
9d80
0580
0000
1800
2c00
2c00
1c00
0c00
0c00
8c00
4c00
2c00
1c00
0800
0000
0000
0000
0000
ENDCHAR
STARTCHAR 275d
ENCODING 10077
SWIDTH 714 0
DWIDTH 12 0
BBX 12 24 0 -4
BITMAP
0c00
1e00
1e00
0c00
4d80
ad80
9d80
0580
0000
1800
2c00
2c00
1c00
0c00
0c00
8c00
4c00
2c00
1c00
0800
0000
0000
0000
0000
ENDCHAR
STARTCHAR 2760
ENCODING 10080
SWIDTH 714 0
DWIDTH 12 0
BBX 12 24 0 -4
BITMAP
0000
0000
0000
0000
0000
0000
0000
0000
0000
1800
2c00
2c00
1c00
0c00
0c00
8c00
4c00
2c00
1c00
0800
0f00
1300
0f00
0300
ENDCHAR
STARTCHAR 2762
ENCODING 10082
SWIDTH 714 0
DWIDTH 12 0
BBX 12 24 0 -4
BITMAP
0000
0000
0000
0000
0c00
0c00
0c00
0c00
0000
1800
2c00
2c00
1c00
0c00
0c00
8c00
4c00
2c00
1c00
0800
0f00
1300
0f00
0300
ENDCHAR
STARTCHAR 2763
ENCODING 10083
SWIDTH 714 0
DWIDTH 12 0
BBX 12 24 0 -4
BITMAP
0000
0000
0000
0000
1c40
14c0
0d80
1f00
0000
1800
2c00
2c00
1c00
0c00
0c00
8c00
4c00
2c00
1c00
0800
0f00
1300
0f00
0300
ENDCHAR
STARTCHAR 2764
ENCODING 10084
SWIDTH 714 0
DWIDTH 12 0
BBX 12 24 0 -4
BITMAP
0000
0000
0000
0000
3640
6b40
6340
3780
0000
1800
2c00
2c00
1c00
0c00
0c00
8c00
4c00
2c00
1c00
0800
0f00
1300
0f00
0300
ENDCHAR
STARTCHAR 2765
ENCODING 10085
SWIDTH 714 0
DWIDTH 12 0
BBX 12 24 0 -4
BITMAP
0000
0000
0000
0000
0c00
1e00
1e00
0c00
0000
1800
2c00
2c00
1c00
0c00
0c00
8c00
4c00
2c00
1c00
0800
0f00
1300
0f00
0300
ENDCHAR
STARTCHAR 2768
ENCODING 10088
SWIDTH 714 0
DWIDTH 12 0
BBX 12 24 0 -4
BITMAP
0000
0000
0000
0000
0000
0000
0000
0000
0000
1800
2c00
2c00
1c00
0c00
0c00
8c00
4c00
2c00
1c00
0800
3b00
2b00
3b00
0f00
ENDCHAR
STARTCHAR 276a
ENCODING 10090
SWIDTH 714 0
DWIDTH 12 0
BBX 12 24 0 -4
BITMAP
0000
0000
0000
0000
0c00
0c00
0c00
0c00
0000
1800
2c00
2c00
1c00
0c00
0c00
8c00
4c00
2c00
1c00
0800
3b00
2b00
3b00
0f00
ENDCHAR
STARTCHAR 276b
ENCODING 10091
SWIDTH 714 0
DWIDTH 12 0
BBX 12 24 0 -4
BITMAP
0000
0000
0000
0000
1c40
14c0
0d80
1f00
0000
1800
2c00
2c00
1c00
0c00
0c00
8c00
4c00
2c00
1c00
0800
3b00
2b00
3b00
0f00
ENDCHAR
STARTCHAR 276c
ENCODING 10092
SWIDTH 714 0
DWIDTH 12 0
BBX 12 24 0 -4
BITMAP
0000
0000
0000
0000
3640
6b40
6340
3780
0000
1800
2c00
2c00
1c00
0c00
0c00
8c00
4c00
2c00
1c00
0800
3b00
2b00
3b00
0f00
ENDCHAR
STARTCHAR 276d
ENCODING 10093
SWIDTH 714 0
DWIDTH 12 0
BBX 12 24 0 -4
BITMAP
0000
0000
0000
0000
0c00
1e00
1e00
0c00
0000
1800
2c00
2c00
1c00
0c00
0c00
8c00
4c00
2c00
1c00
0800
3b00
2b00
3b00
0f00
ENDCHAR
STARTCHAR 2770
ENCODING 10096
SWIDTH 714 0
DWIDTH 12 0
BBX 12 24 0 -4
BITMAP
0000
0000
0000
0000
0000
0000
0000
0000
0000
1800
2c00
2c00
1c00
0c00
0c00
8c00
4c00
2c00
1c00
0800
0000
1800
1800
0000
ENDCHAR
STARTCHAR 2778
ENCODING 10104
SWIDTH 714 0
DWIDTH 12 0
BBX 12 24 0 -4
BITMAP
0000
0000
0f00
1000
3800
4000
4200
3c00
0000
1800
2c00
2c00
1c00
0c00
0c00
8c00
4c00
2c00
1c00
0800
0000
0000
0000
0000
ENDCHAR
STARTCHAR 2830
ENCODING 10288
SWIDTH 714 0
DWIDTH 12 0
BBX 12 24 0 -4
BITMAP
0000
0000
0000
0000
0000
0000
0000
0000
0000
7e00
8300
3300
5b00
3b00
1b00
1b00
1b00
1b00
1b00
0e00
0000
0000
0000
0000
ENDCHAR
STARTCHAR 2831
ENCODING 10289
SWIDTH 714 0
DWIDTH 12 0
BBX 12 24 0 -4
BITMAP
0000
0100
0300
6e00
d800
c600
db00
6e00
0000
7e00
8300
3300
5b00
3b00
1b00
1b00
1b00
1b00
1b00
0e00
0000
0000
0000
0000
ENDCHAR
STARTCHAR 2832
ENCODING 10290
SWIDTH 714 0
DWIDTH 12 0
BBX 12 24 0 -4
BITMAP
0000
0000
0000
0000
0c00
0c00
0c00
0c00
0000
7e00
8300
3300
5b00
3b00
1b00
1b00
1b00
1b00
1b00
0e00
0000
0000
0000
0000
ENDCHAR
STARTCHAR 2833
ENCODING 10291
SWIDTH 714 0
DWIDTH 12 0
BBX 12 24 0 -4
BITMAP
0000
0000
0000
0000
1c40
14c0
0d80
1f00
0000
7e00
8300
3300
5b00
3b00
1b00
1b00
1b00
1b00
1b00
0e00
0000
0000
0000
0000
ENDCHAR
STARTCHAR 2834
ENCODING 10292
SWIDTH 714 0
DWIDTH 12 0
BBX 12 24 0 -4
BITMAP
0000
0000
0000
0000
3640
6b40
6340
3780
0000
7e00
8300
3300
5b00
3b00
1b00
1b00
1b00
1b00
1b00
0e00
0000
0000
0000
0000
ENDCHAR
STARTCHAR 2835
ENCODING 10293
SWIDTH 714 0
DWIDTH 12 0
BBX 12 24 0 -4
BITMAP
0000
0000
0000
0000
0c00
1e00
1e00
0c00
0000
7e00
8300
3300
5b00
3b00
1b00
1b00
1b00
1b00
1b00
0e00
0000
0000
0000
0000
ENDCHAR
STARTCHAR 2836
ENCODING 10294
SWIDTH 714 0
DWIDTH 12 0
BBX 12 24 0 -4
BITMAP
0000
0000
0000
0000
0020
03c0
0500
0300
0000
7e00
8300
3300
5b00
3b00
1b00
1b00
1b00
1b00
1b00
0e00
0000
0000
0000
0000
ENDCHAR
STARTCHAR 2837
ENCODING 10295
SWIDTH 714 0
DWIDTH 12 0
BBX 12 24 0 -4
BITMAP
0000
0000
0000
0000
1800
2400
1800
0000
0000
7e00
8300
3300
5b00
3b00
1b00
1b00
1b00
1b00
1b00
0e00
0000
0000
0000
0000
ENDCHAR
STARTCHAR 2838
ENCODING 10296
SWIDTH 714 0
DWIDTH 12 0
BBX 12 24 0 -4
BITMAP
0000
0000
0000
0000
7080
d980
f300
7e00
0000
7e00
8300
3300
5b00
3b00
1b00
1b00
1b00
1b00
1b00
0e00
0000
0000
0000
0000
ENDCHAR
STARTCHAR 283a
ENCODING 10298
SWIDTH 714 0
DWIDTH 12 0
BBX 12 24 0 -4
BITMAP
0c00
0c00
0c00
0c00
7080
d980
f300
7e00
0000
7e00
8300
3300
5b00
3b00
1b00
1b00
1b00
1b00
1b00
0e00
0000
0000
0000
0000
ENDCHAR
STARTCHAR 283b
ENCODING 10299
SWIDTH 714 0
DWIDTH 12 0
BBX 12 24 0 -4
BITMAP
1c40
14c0
0d80
1f00
7080
d980
f300
7e00
0000
7e00
8300
3300
5b00
3b00
1b00
1b00
1b00
1b00
1b00
0e00
0000
0000
0000
0000
ENDCHAR
STARTCHAR 283c
ENCODING 10300
SWIDTH 714 0
DWIDTH 12 0
BBX 12 24 0 -4
BITMAP
3640
6b40
6340
3780
7080
d980
f300
7e00
0000
7e00
8300
3300
5b00
3b00
1b00
1b00
1b00
1b00
1b00
0e00
0000
0000
0000
0000
ENDCHAR
STARTCHAR 283d
ENCODING 10301
SWIDTH 714 0
DWIDTH 12 0
BBX 12 24 0 -4
BITMAP
0c00
1e00
1e00
0c00
7080
d980
f300
7e00
0000
7e00
8300
3300
5b00
3b00
1b00
1b00
1b00
1b00
1b00
0e00
0000
0000
0000
0000
ENDCHAR
STARTCHAR 2840
ENCODING 10304
SWIDTH 714 0
DWIDTH 12 0
BBX 12 24 0 -4
BITMAP
0000
0000
0000
0000
7c00
c200
fd00
0300
0000
7e00
8300
3300
5b00
3b00
1b00
1b00
1b00
1b00
1b00
0e00
0000
0000
0000
0000
ENDCHAR
STARTCHAR 2842
ENCODING 10306
SWIDTH 714 0
DWIDTH 12 0
BBX 12 24 0 -4
BITMAP
0c00
0c00
0c00
0c00
7c00
c200
fd00
0300
0000
7e00
8300
3300
5b00
3b00
1b00
1b00
1b00
1b00
1b00
0e00
0000
0000
0000
0000
ENDCHAR
STARTCHAR 2843
ENCODING 10307
SWIDTH 714 0
DWIDTH 12 0
BBX 12 24 0 -4
BITMAP
1c40
14c0
0d80
1f00
7c00
c200
fd00
0300
0000
7e00
8300
3300
5b00
3b00
1b00
1b00
1b00
1b00
1b00
0e00
0000
0000
0000
0000
ENDCHAR
STARTCHAR 2844
ENCODING 10308
SWIDTH 714 0
DWIDTH 12 0
BBX 12 24 0 -4
BITMAP
3640
6b40
6340
3780
7c00
c200
fd00
0300
0000
7e00
8300
3300
5b00
3b00
1b00
1b00
1b00
1b00
1b00
0e00
0000
0000
0000
0000
ENDCHAR
STARTCHAR 2845
ENCODING 10309
SWIDTH 714 0
DWIDTH 12 0
BBX 12 24 0 -4
BITMAP
0c00
1e00
1e00
0c00
7c00
c200
fd00
0300
0000
7e00
8300
3300
5b00
3b00
1b00
1b00
1b00
1b00
1b00
0e00
0000
0000
0000
0000
ENDCHAR
STARTCHAR 2848
ENCODING 10312
SWIDTH 714 0
DWIDTH 12 0
BBX 12 24 0 -4
BITMAP
0000
0000
0000
0000
7300
8b00
f700
0f00
0000
7e00
8300
3300
5b00
3b00
1b00
1b00
1b00
1b00
1b00
0e00
0000
0000
0000
0000
ENDCHAR
STARTCHAR 284a
ENCODING 10314
SWIDTH 714 0
DWIDTH 12 0
BBX 12 24 0 -4
BITMAP
0c00
0c00
0c00
0c00
7300
8b00
f700
0f00
0000
7e00
8300
3300
5b00
3b00
1b00
1b00
1b00
1b00
1b00
0e00
0000
0000
0000
0000
ENDCHAR
STARTCHAR 284b
ENCODING 10315
SWIDTH 714 0
DWIDTH 12 0
BBX 12 24 0 -4
BITMAP
1c40
14c0
0d80
1f00
7300
8b00
f700
0f00
0000
7e00
8300
3300
5b00
3b00
1b00
1b00
1b00
1b00
1b00
0e00
0000
0000
0000
0000
ENDCHAR
STARTCHAR 284c
ENCODING 10316
SWIDTH 714 0
DWIDTH 12 0
BBX 12 24 0 -4
BITMAP
3640
6b40
6340
3780
7300
8b00
f700
0f00
0000
7e00
8300
3300
5b00
3b00
1b00
1b00
1b00
1b00
1b00
0e00
0000
0000
0000
0000
ENDCHAR
STARTCHAR 284d
ENCODING 10317
SWIDTH 714 0
DWIDTH 12 0
BBX 12 24 0 -4
BITMAP
0c00
1e00
1e00
0c00
7300
8b00
f700
0f00
0000
7e00
8300
3300
5b00
3b00
1b00
1b00
1b00
1b00
1b00
0e00
0000
0000
0000
0000
ENDCHAR
STARTCHAR 2850
ENCODING 10320
SWIDTH 714 0
DWIDTH 12 0
BBX 12 24 0 -4
BITMAP
0000
0000
0000
0000
7700
c900
f600
1f00
0000
7e00
8300
3300
5b00
3b00
1b00
1b00
1b00
1b00
1b00
0e00
0000
0000
0000
0000
ENDCHAR
STARTCHAR 2852
ENCODING 10322
SWIDTH 714 0
DWIDTH 12 0
BBX 12 24 0 -4
BITMAP
0c00
0c00
0c00
0c00
7700
c900
f600
1f00
0000
7e00
8300
3300
5b00
3b00
1b00
1b00
1b00
1b00
1b00
0e00
0000
0000
0000
0000
ENDCHAR
STARTCHAR 2853
ENCODING 10323
SWIDTH 714 0
DWIDTH 12 0
BBX 12 24 0 -4
BITMAP
1c40
14c0
0d80
1f00
7700
c900
f600
1f00
0000
7e00
8300
3300
5b00
3b00
1b00
1b00
1b00
1b00
1b00
0e00
0000
0000
0000
0000
ENDCHAR
STARTCHAR 2854
ENCODING 10324
SWIDTH 714 0
DWIDTH 12 0
BBX 12 24 0 -4
BITMAP
3640
6b40
6340
3780
7700
c900
f600
1f00
0000
7e00
8300
3300
5b00
3b00
1b00
1b00
1b00
1b00
1b00
0e00
0000
0000
0000
0000
ENDCHAR
STARTCHAR 2855
ENCODING 10325
SWIDTH 714 0
DWIDTH 12 0
BBX 12 24 0 -4
BITMAP
0c00
1e00
1e00
0c00
7700
c900
f600
1f00
0000
7e00
8300
3300
5b00
3b00
1b00
1b00
1b00
1b00
1b00
0e00
0000
0000
0000
0000
ENDCHAR
STARTCHAR 2858
ENCODING 10328
SWIDTH 714 0
DWIDTH 12 0
BBX 12 24 0 -4
BITMAP
0000
0000
0000
0000
4d80
ad80
9d80
0580
0000
7e00
8300
3300
5b00
3b00
1b00
1b00
1b00
1b00
1b00
0e00
0000
0000
0000
0000
ENDCHAR
STARTCHAR 285a
ENCODING 10330
SWIDTH 714 0
DWIDTH 12 0
BBX 12 24 0 -4
BITMAP
0c00
0c00
0c00
0c00
4d80
ad80
9d80
0580
0000
7e00
8300
3300
5b00
3b00
1b00
1b00
1b00
1b00
1b00
0e00
0000
0000
0000
0000
ENDCHAR
STARTCHAR 285b
ENCODING 10331
SWIDTH 714 0
DWIDTH 12 0
BBX 12 24 0 -4
BITMAP
1c40
14c0
0d80
1f00
4d80
ad80
9d80
0580
0000
7e00
8300
3300
5b00
3b00
1b00
1b00
1b00
1b00
1b00
0e00
0000
0000
0000
0000
ENDCHAR
STARTCHAR 285c
ENCODING 10332
SWIDTH 714 0
DWIDTH 12 0
BBX 12 24 0 -4
BITMAP
3640
6b40
6340
3780
4d80
ad80
9d80
0580
0000
7e00
8300
3300
5b00
3b00
1b00
1b00
1b00
1b00
1b00
0e00
0000
0000
0000
0000
ENDCHAR
STARTCHAR 285d
ENCODING 10333
SWIDTH 714 0
DWIDTH 12 0
BBX 12 24 0 -4
BITMAP
0c00
1e00
1e00
0c00
4d80
ad80
9d80
0580
0000
7e00
8300
3300
5b00
3b00
1b00
1b00
1b00
1b00
1b00
0e00
0000
0000
0000
0000
ENDCHAR
STARTCHAR 2860
ENCODING 10336
SWIDTH 714 0
DWIDTH 12 0
BBX 12 24 0 -4
BITMAP
0000
0000
0000
0000
0000
0000
0000
0000
0000
7e00
8300
3300
5b00
3b00
1b00
1b00
1b00
1b00
1b00
0e00
0f00
1300
0f00
0300
ENDCHAR
STARTCHAR 2862
ENCODING 10338
SWIDTH 714 0
DWIDTH 12 0
BBX 12 24 0 -4
BITMAP
0000
0000
0000
0000
0c00
0c00
0c00
0c00
0000
7e00
8300
3300
5b00
3b00
1b00
1b00
1b00
1b00
1b00
0e00
0f00
1300
0f00
0300
ENDCHAR
STARTCHAR 2863
ENCODING 10339
SWIDTH 714 0
DWIDTH 12 0
BBX 12 24 0 -4
BITMAP
0000
0000
0000
0000
1c40
14c0
0d80
1f00
0000
7e00
8300
3300
5b00
3b00
1b00
1b00
1b00
1b00
1b00
0e00
0f00
1300
0f00
0300
ENDCHAR
STARTCHAR 2864
ENCODING 10340
SWIDTH 714 0
DWIDTH 12 0
BBX 12 24 0 -4
BITMAP
0000
0000
0000
0000
3640
6b40
6340
3780
0000
7e00
8300
3300
5b00
3b00
1b00
1b00
1b00
1b00
1b00
0e00
0f00
1300
0f00
0300
ENDCHAR
STARTCHAR 2865
ENCODING 10341
SWIDTH 714 0
DWIDTH 12 0
BBX 12 24 0 -4
BITMAP
0000
0000
0000
0000
0c00
1e00
1e00
0c00
0000
7e00
8300
3300
5b00
3b00
1b00
1b00
1b00
1b00
1b00
0e00
0f00
1300
0f00
0300
ENDCHAR
STARTCHAR 2868
ENCODING 10344
SWIDTH 714 0
DWIDTH 12 0
BBX 12 24 0 -4
BITMAP
0000
0000
0000
0000
0000
0000
0000
0000
0000
7e00
8300
3300
5b00
3b00
1b00
1b00
1b00
1b00
1b00
0e00
3b00
2b00
3b00
0f00
ENDCHAR
STARTCHAR 286a
ENCODING 10346
SWIDTH 714 0
DWIDTH 12 0
BBX 12 24 0 -4
BITMAP
0000
0000
0000
0000
0c00
0c00
0c00
0c00
0000
7e00
8300
3300
5b00
3b00
1b00
1b00
1b00
1b00
1b00
0e00
3b00
2b00
3b00
0f00
ENDCHAR
STARTCHAR 286b
ENCODING 10347
SWIDTH 714 0
DWIDTH 12 0
BBX 12 24 0 -4
BITMAP
0000
0000
0000
0000
1c40
14c0
0d80
1f00
0000
7e00
8300
3300
5b00
3b00
1b00
1b00
1b00
1b00
1b00
0e00
3b00
2b00
3b00
0f00
ENDCHAR
STARTCHAR 286c
ENCODING 10348
SWIDTH 714 0
DWIDTH 12 0
BBX 12 24 0 -4
BITMAP
0000
0000
0000
0000
3640
6b40
6340
3780
0000
7e00
8300
3300
5b00
3b00
1b00
1b00
1b00
1b00
1b00
0e00
3b00
2b00
3b00
0f00
ENDCHAR
STARTCHAR 286d
ENCODING 10349
SWIDTH 714 0
DWIDTH 12 0
BBX 12 24 0 -4
BITMAP
0000
0000
0000
0000
0c00
1e00
1e00
0c00
0000
7e00
8300
3300
5b00
3b00
1b00
1b00
1b00
1b00
1b00
0e00
3b00
2b00
3b00
0f00
ENDCHAR
STARTCHAR 2870
ENCODING 10352
SWIDTH 714 0
DWIDTH 12 0
BBX 12 24 0 -4
BITMAP
0000
0000
0000
0000
0000
0000
0000
0000
0000
7e00
8300
3300
5b00
3b00
1b00
1b00
1b00
1b00
1b00
0e00
0000
1800
1800
0000
ENDCHAR
STARTCHAR 2878
ENCODING 10360
SWIDTH 714 0
DWIDTH 12 0
BBX 12 24 0 -4
BITMAP
0000
0000
0f00
1000
3800
4000
4200
3c00
0000
7e00
8300
3300
5b00
3b00
1b00
1b00
1b00
1b00
1b00
0e00
0000
0000
0000
0000
ENDCHAR
STARTCHAR 2930
ENCODING 10544
SWIDTH 714 0
DWIDTH 12 0
BBX 12 24 0 -4
BITMAP
0000
0000
0000
0000
0000
0000
0000
0000
0000
3e00
4300
8180
3180
5980
5980
3980
1bc0
1da0
19a0
18c0
0000
0000
0000
0000
ENDCHAR
STARTCHAR 2931
ENCODING 10545
SWIDTH 714 0
DWIDTH 12 0
BBX 12 24 0 -4
BITMAP
0000
0100
0300
6e00
d800
c600
db00
6e00
0000
3e00
4300
8180
3180
5980
5980
3980
1bc0
1da0
19a0
18c0
0000
0000
0000
0000
ENDCHAR
STARTCHAR 2932
ENCODING 10546
SWIDTH 714 0
DWIDTH 12 0
BBX 12 24 0 -4
BITMAP
0000
0000
0000
0000
0c00
0c00
0c00
0c00
0000
3e00
4300
8180
3180
5980
5980
3980
1bc0
1da0
19a0
18c0
0000
0000
0000
0000
ENDCHAR
STARTCHAR 2933
ENCODING 10547
SWIDTH 714 0
DWIDTH 12 0
BBX 12 24 0 -4
BITMAP
0000
0000
0000
0000
1c40
14c0
0d80
1f00
0000
3e00
4300
8180
3180
5980
5980
3980
1bc0
1da0
19a0
18c0
0000
0000
0000
0000
ENDCHAR
STARTCHAR 2936
ENCODING 10550
SWIDTH 714 0
DWIDTH 12 0
BBX 12 24 0 -4
BITMAP
0000
0000
0000
0000
0020
03c0
0500
0300
0000
3e00
4300
8180
3180
5980
5980
3980
1bc0
1da0
19a0
18c0
0000
0000
0000
0000
ENDCHAR
STARTCHAR 2937
ENCODING 10551
SWIDTH 714 0
DWIDTH 12 0
BBX 12 24 0 -4
BITMAP
0000
0000
0000
0000
1800
2400
1800
0000
0000
3e00
4300
8180
3180
5980
5980
3980
1bc0
1da0
19a0
18c0
0000
0000
0000
0000
ENDCHAR
STARTCHAR 2938
ENCODING 10552
SWIDTH 714 0
DWIDTH 12 0
BBX 12 24 0 -4
BITMAP
0000
0000
0000
0000
7080
d980
f300
7e00
0000
3e00
4300
8180
3180
5980
5980
3980
1bc0
1da0
19a0
18c0
0000
0000
0000
0000
ENDCHAR
STARTCHAR 293a
ENCODING 10554
SWIDTH 714 0
DWIDTH 12 0
BBX 12 24 0 -4
BITMAP
0c00
0c00
0c00
0c00
7080
d980
f300
7e00
0000
3e00
4300
8180
3180
5980
5980
3980
1bc0
1da0
19a0
18c0
0000
0000
0000
0000
ENDCHAR
STARTCHAR 293b
ENCODING 10555
SWIDTH 714 0
DWIDTH 12 0
BBX 12 24 0 -4
BITMAP
1c40
14c0
0d80
1f00
7080
d980
f300
7e00
0000
3e00
4300
8180
3180
5980
5980
3980
1bc0
1da0
19a0
18c0
0000
0000
0000
0000
ENDCHAR
STARTCHAR 2940
ENCODING 10560
SWIDTH 714 0
DWIDTH 12 0
BBX 12 24 0 -4
BITMAP
0000
0000
0000
0000
7c00
c200
fd00
0300
0000
3e00
4300
8180
3180
5980
5980
3980
1bc0
1da0
19a0
18c0
0000
0000
0000
0000
ENDCHAR
STARTCHAR 2942
ENCODING 10562
SWIDTH 714 0
DWIDTH 12 0
BBX 12 24 0 -4
BITMAP
0c00
0c00
0c00
0c00
7c00
c200
fd00
0300
0000
3e00
4300
8180
3180
5980
5980
3980
1bc0
1da0
19a0
18c0
0000
0000
0000
0000
ENDCHAR
STARTCHAR 2943
ENCODING 10563
SWIDTH 714 0
DWIDTH 12 0
BBX 12 24 0 -4
BITMAP
1c40
14c0
0d80
1f00
7c00
c200
fd00
0300
0000
3e00
4300
8180
3180
5980
5980
3980
1bc0
1da0
19a0
18c0
0000
0000
0000
0000
ENDCHAR
STARTCHAR 2948
ENCODING 10568
SWIDTH 714 0
DWIDTH 12 0
BBX 12 24 0 -4
BITMAP
0000
0000
0000
0000
7300
8b00
f700
0f00
0000
3e00
4300
8180
3180
5980
5980
3980
1bc0
1da0
19a0
18c0
0000
0000
0000
0000
ENDCHAR
STARTCHAR 294a
ENCODING 10570
SWIDTH 714 0
DWIDTH 12 0
BBX 12 24 0 -4
BITMAP
0c00
0c00
0c00
0c00
7300
8b00
f700
0f00
0000
3e00
4300
8180
3180
5980
5980
3980
1bc0
1da0
19a0
18c0
0000
0000
0000
0000
ENDCHAR
STARTCHAR 294b
ENCODING 10571
SWIDTH 714 0
DWIDTH 12 0
BBX 12 24 0 -4
BITMAP
1c40
14c0
0d80
1f00
7300
8b00
f700
0f00
0000
3e00
4300
8180
3180
5980
5980
3980
1bc0
1da0
19a0
18c0
0000
0000
0000
0000
ENDCHAR
STARTCHAR 2950
ENCODING 10576
SWIDTH 714 0
DWIDTH 12 0
BBX 12 24 0 -4
BITMAP
0000
0000
0000
0000
7700
c900
f600
1f00
0000
3e00
4300
8180
3180
5980
5980
3980
1bc0
1da0
19a0
18c0
0000
0000
0000
0000
ENDCHAR
STARTCHAR 2952
ENCODING 10578
SWIDTH 714 0
DWIDTH 12 0
BBX 12 24 0 -4
BITMAP
0c00
0c00
0c00
0c00
7700
c900
f600
1f00
0000
3e00
4300
8180
3180
5980
5980
3980
1bc0
1da0
19a0
18c0
0000
0000
0000
0000
ENDCHAR
STARTCHAR 2953
ENCODING 10579
SWIDTH 714 0
DWIDTH 12 0
BBX 12 24 0 -4
BITMAP
1c40
14c0
0d80
1f00
7700
c900
f600
1f00
0000
3e00
4300
8180
3180
5980
5980
3980
1bc0
1da0
19a0
18c0
0000
0000
0000
0000
ENDCHAR
STARTCHAR 2958
ENCODING 10584
SWIDTH 714 0
DWIDTH 12 0
BBX 12 24 0 -4
BITMAP
0000
0000
0000
0000
4d80
ad80
9d80
0580
0000
3e00
4300
8180
3180
5980
5980
3980
1bc0
1da0
19a0
18c0
0000
0000
0000
0000
ENDCHAR
STARTCHAR 295a
ENCODING 10586
SWIDTH 714 0
DWIDTH 12 0
BBX 12 24 0 -4
BITMAP
0c00
0c00
0c00
0c00
4d80
ad80
9d80
0580
0000
3e00
4300
8180
3180
5980
5980
3980
1bc0
1da0
19a0
18c0
0000
0000
0000
0000
ENDCHAR
STARTCHAR 295b
ENCODING 10587
SWIDTH 714 0
DWIDTH 12 0
BBX 12 24 0 -4
BITMAP
1c40
14c0
0d80
1f00
4d80
ad80
9d80
0580
0000
3e00
4300
8180
3180
5980
5980
3980
1bc0
1da0
19a0
18c0
0000
0000
0000
0000
ENDCHAR
STARTCHAR 2960
ENCODING 10592
SWIDTH 714 0
DWIDTH 12 0
BBX 12 24 0 -4
BITMAP
0000
0000
0000
0000
0000
0000
0000
0000
0000
3e00
4300
8180
3180
5980
5980
3980
1bc0
1da0
19a0
18c0
0f00
1300
0f00
0300
ENDCHAR
STARTCHAR 2962
ENCODING 10594
SWIDTH 714 0
DWIDTH 12 0
BBX 12 24 0 -4
BITMAP
0000
0000
0000
0000
0c00
0c00
0c00
0c00
0000
3e00
4300
8180
3180
5980
5980
3980
1bc0
1da0
19a0
18c0
0f00
1300
0f00
0300
ENDCHAR
STARTCHAR 2963
ENCODING 10595
SWIDTH 714 0
DWIDTH 12 0
BBX 12 24 0 -4
BITMAP
0000
0000
0000
0000
1c40
14c0
0d80
1f00
0000
3e00
4300
8180
3180
5980
5980
3980
1bc0
1da0
19a0
18c0
0f00
1300
0f00
0300
ENDCHAR
STARTCHAR 2968
ENCODING 10600
SWIDTH 714 0
DWIDTH 12 0
BBX 12 24 0 -4
BITMAP
0000
0000
0000
0000
0000
0000
0000
0000
0000
3e00
4300
8180
3180
5980
5980
3980
1bc0
1da0
19a0
18c0
3b00
2b00
3b00
0f00
ENDCHAR
STARTCHAR 296a
ENCODING 10602
SWIDTH 714 0
DWIDTH 12 0
BBX 12 24 0 -4
BITMAP
0000
0000
0000
0000
0c00
0c00
0c00
0c00
0000
3e00
4300
8180
3180
5980
5980
3980
1bc0
1da0
19a0
18c0
3b00
2b00
3b00
0f00
ENDCHAR
STARTCHAR 296b
ENCODING 10603
SWIDTH 714 0
DWIDTH 12 0
BBX 12 24 0 -4
BITMAP
0000
0000
0000
0000
1c40
14c0
0d80
1f00
0000
3e00
4300
8180
3180
5980
5980
3980
1bc0
1da0
19a0
18c0
3b00
2b00
3b00
0f00
ENDCHAR
STARTCHAR 2970
ENCODING 10608
SWIDTH 714 0
DWIDTH 12 0
BBX 12 24 0 -4
BITMAP
0000
0000
0000
0000
0000
0000
0000
0000
0000
3e00
4300
8180
3180
5980
5980
3980
1bc0
1da0
19a0
18c0
0000
1800
1800
0000
ENDCHAR
STARTCHAR 2978
ENCODING 10616
SWIDTH 714 0
DWIDTH 12 0
BBX 12 24 0 -4
BITMAP
0000
0000
0f00
1000
3800
4000
4200
3c00
0000
3e00
4300
8180
3180
5980
5980
3980
1bc0
1da0
19a0
18c0
0000
0000
0000
0000
ENDCHAR
STARTCHAR 2a30
ENCODING 10800
SWIDTH 714 0
DWIDTH 12 0
BBX 12 24 0 -4
BITMAP
0000
0000
0000
0000
0000
0000
0000
00c0
00c0
70c0
9980
db00
5980
1980
1980
1980
1980
1980
1980
3f00
0000
0000
0000
0000
ENDCHAR
STARTCHAR 2a31
ENCODING 10801
SWIDTH 714 0
DWIDTH 12 0
BBX 12 24 0 -4
BITMAP
0000
0100
0300
6e00
d800
c600
db00
6e00
00c0
70c0
9980
db00
5980
1980
1980
1980
1980
1980
1980
3f00
0000
0000
0000
0000
ENDCHAR
STARTCHAR 2a32
ENCODING 10802
SWIDTH 714 0
DWIDTH 12 0
BBX 12 24 0 -4
BITMAP
0000
0000
0000
0000
0c00
0c00
0c00
0c00
00c0
70c0
9980
db00
5980
1980
1980
1980
1980
1980
1980
3f00
0000
0000
0000
0000
ENDCHAR
STARTCHAR 2a33
ENCODING 10803
SWIDTH 714 0
DWIDTH 12 0
BBX 12 24 0 -4
BITMAP
0000
0000
0000
0000
1c40
14c0
0d80
1f00
00c0
70c0
9980
db00
5980
1980
1980
1980
1980
1980
1980
3f00
0000
0000
0000
0000
ENDCHAR
STARTCHAR 2a34
ENCODING 10804
SWIDTH 714 0
DWIDTH 12 0
BBX 12 24 0 -4
BITMAP
0000
0000
0000
0000
3640
6b40
6340
3780
00c0
70c0
9980
db00
5980
1980
1980
1980
1980
1980
1980
3f00
0000
0000
0000
0000
ENDCHAR
STARTCHAR 2a36
ENCODING 10806
SWIDTH 714 0
DWIDTH 12 0
BBX 12 24 0 -4
BITMAP
0000
0000
0000
0000
0020
03c0
0500
0300
00c0
70c0
9980
db00
5980
1980
1980
1980
1980
1980
1980
3f00
0000
0000
0000
0000
ENDCHAR
STARTCHAR 2a37
ENCODING 10807
SWIDTH 714 0
DWIDTH 12 0
BBX 12 24 0 -4
BITMAP
0000
0000
0000
0000
1800
2400
1800
0000
00c0
70c0
9980
db00
5980
1980
1980
1980
1980
1980
1980
3f00
0000
0000
0000
0000
ENDCHAR
STARTCHAR 2a38
ENCODING 10808
SWIDTH 714 0
DWIDTH 12 0
BBX 12 24 0 -4
BITMAP
0000
0000
0000
0000
7080
d980
f300
7e00
00c0
70c0
9980
db00
5980
1980
1980
1980
1980
1980
1980
3f00
0000
0000
0000
0000
ENDCHAR
STARTCHAR 2a3a
ENCODING 10810
SWIDTH 714 0
DWIDTH 12 0
BBX 12 24 0 -4
BITMAP
0c00
0c00
0c00
0c00
7080
d980
f300
7e00
00c0
70c0
9980
db00
5980
1980
1980
1980
1980
1980
1980
3f00
0000
0000
0000
0000
ENDCHAR
STARTCHAR 2a3b
ENCODING 10811
SWIDTH 714 0
DWIDTH 12 0
BBX 12 24 0 -4
BITMAP
1c40
14c0
0d80
1f00
7080
d980
f300
7e00
00c0
70c0
9980
db00
5980
1980
1980
1980
1980
1980
1980
3f00
0000
0000
0000
0000
ENDCHAR
STARTCHAR 2a3c
ENCODING 10812
SWIDTH 714 0
DWIDTH 12 0
BBX 12 24 0 -4
BITMAP
3640
6b40
6340
3780
7080
d980
f300
7e00
00c0
70c0
9980
db00
5980
1980
1980
1980
1980
1980
1980
3f00
0000
0000
0000
0000
ENDCHAR
STARTCHAR 2a40
ENCODING 10816
SWIDTH 714 0
DWIDTH 12 0
BBX 12 24 0 -4
BITMAP
0000
0000
0000
0000
7c00
c200
fd00
0300
00c0
70c0
9980
db00
5980
1980
1980
1980
1980
1980
1980
3f00
0000
0000
0000
0000
ENDCHAR
STARTCHAR 2a42
ENCODING 10818
SWIDTH 714 0
DWIDTH 12 0
BBX 12 24 0 -4
BITMAP
0c00
0c00
0c00
0c00
7c00
c200
fd00
0300
00c0
70c0
9980
db00
5980
1980
1980
1980
1980
1980
1980
3f00
0000
0000
0000
0000
ENDCHAR
STARTCHAR 2a43
ENCODING 10819
SWIDTH 714 0
DWIDTH 12 0
BBX 12 24 0 -4
BITMAP
1c40
14c0
0d80
1f00
7c00
c200
fd00
0300
00c0
70c0
9980
db00
5980
1980
1980
1980
1980
1980
1980
3f00
0000
0000
0000
0000
ENDCHAR
STARTCHAR 2a44
ENCODING 10820
SWIDTH 714 0
DWIDTH 12 0
BBX 12 24 0 -4
BITMAP
3640
6b40
6340
3780
7c00
c200
fd00
0300
00c0
70c0
9980
db00
5980
1980
1980
1980
1980
1980
1980
3f00
0000
0000
0000
0000
ENDCHAR
STARTCHAR 2a48
ENCODING 10824
SWIDTH 714 0
DWIDTH 12 0
BBX 12 24 0 -4
BITMAP
0000
0000
0000
0000
7300
8b00
f700
0f00
00c0
70c0
9980
db00
5980
1980
1980
1980
1980
1980
1980
3f00
0000
0000
0000
0000
ENDCHAR
STARTCHAR 2a4a
ENCODING 10826
SWIDTH 714 0
DWIDTH 12 0
BBX 12 24 0 -4
BITMAP
0c00
0c00
0c00
0c00
7300
8b00
f700
0f00
00c0
70c0
9980
db00
5980
1980
1980
1980
1980
1980
1980
3f00
0000
0000
0000
0000
ENDCHAR
STARTCHAR 2a4b
ENCODING 10827
SWIDTH 714 0
DWIDTH 12 0
BBX 12 24 0 -4
BITMAP
1c40
14c0
0d80
1f00
7300
8b00
f700
0f00
00c0
70c0
9980
db00
5980
1980
1980
1980
1980
1980
1980
3f00
0000
0000
0000
0000
ENDCHAR
STARTCHAR 2a4c
ENCODING 10828
SWIDTH 714 0
DWIDTH 12 0
BBX 12 24 0 -4
BITMAP
3640
6b40
6340
3780
7300
8b00
f700
0f00
00c0
70c0
9980
db00
5980
1980
1980
1980
1980
1980
1980
3f00
0000
0000
0000
0000
ENDCHAR
STARTCHAR 2a50
ENCODING 10832
SWIDTH 714 0
DWIDTH 12 0
BBX 12 24 0 -4
BITMAP
0000
0000
0000
0000
7700
c900
f600
1f00
00c0
70c0
9980
db00
5980
1980
1980
1980
1980
1980
1980
3f00
0000
0000
0000
0000
ENDCHAR
STARTCHAR 2a52
ENCODING 10834
SWIDTH 714 0
DWIDTH 12 0
BBX 12 24 0 -4
BITMAP
0c00
0c00
0c00
0c00
7700
c900
f600
1f00
00c0
70c0
9980
db00
5980
1980
1980
1980
1980
1980
1980
3f00
0000
0000
0000
0000
ENDCHAR
STARTCHAR 2a53
ENCODING 10835
SWIDTH 714 0
DWIDTH 12 0
BBX 12 24 0 -4
BITMAP
1c40
14c0
0d80
1f00
7700
c900
f600
1f00
00c0
70c0
9980
db00
5980
1980
1980
1980
1980
1980
1980
3f00
0000
0000
0000
0000
ENDCHAR
STARTCHAR 2a54
ENCODING 10836
SWIDTH 714 0
DWIDTH 12 0
BBX 12 24 0 -4
BITMAP
3640
6b40
6340
3780
7700
c900
f600
1f00
00c0
70c0
9980
db00
5980
1980
1980
1980
1980
1980
1980
3f00
0000
0000
0000
0000
ENDCHAR
STARTCHAR 2a58
ENCODING 10840
SWIDTH 714 0
DWIDTH 12 0
BBX 12 24 0 -4
BITMAP
0000
0000
0000
0000
4d80
ad80
9d80
0580
00c0
70c0
9980
db00
5980
1980
1980
1980
1980
1980
1980
3f00
0000
0000
0000
0000
ENDCHAR
STARTCHAR 2a5a
ENCODING 10842
SWIDTH 714 0
DWIDTH 12 0
BBX 12 24 0 -4
BITMAP
0c00
0c00
0c00
0c00
4d80
ad80
9d80
0580
00c0
70c0
9980
db00
5980
1980
1980
1980
1980
1980
1980
3f00
0000
0000
0000
0000
ENDCHAR
STARTCHAR 2a5b
ENCODING 10843
SWIDTH 714 0
DWIDTH 12 0
BBX 12 24 0 -4
BITMAP
1c40
14c0
0d80
1f00
4d80
ad80
9d80
0580
00c0
70c0
9980
db00
5980
1980
1980
1980
1980
1980
1980
3f00
0000
0000
0000
0000
ENDCHAR
STARTCHAR 2a5c
ENCODING 10844
SWIDTH 714 0
DWIDTH 12 0
BBX 12 24 0 -4
BITMAP
3640
6b40
6340
3780
4d80
ad80
9d80
0580
00c0
70c0
9980
db00
5980
1980
1980
1980
1980
1980
1980
3f00
0000
0000
0000
0000
ENDCHAR
STARTCHAR 2a60
ENCODING 10848
SWIDTH 714 0
DWIDTH 12 0
BBX 12 24 0 -4
BITMAP
0000
0000
0000
0000
0000
0000
0000
00c0
00c0
70c0
9980
db00
5980
1980
1980
1980
1980
1980
1980
3f00
0f00
1300
0f00
0300
ENDCHAR
STARTCHAR 2a62
ENCODING 10850
SWIDTH 714 0
DWIDTH 12 0
BBX 12 24 0 -4
BITMAP
0000
0000
0000
0000
0c00
0c00
0c00
0c00
00c0
70c0
9980
db00
5980
1980
1980
1980
1980
1980
1980
3f00
0f00
1300
0f00
0300
ENDCHAR
STARTCHAR 2a63
ENCODING 10851
SWIDTH 714 0
DWIDTH 12 0
BBX 12 24 0 -4
BITMAP
0000
0000
0000
0000
1c40
14c0
0d80
1f00
00c0
70c0
9980
db00
5980
1980
1980
1980
1980
1980
1980
3f00
0f00
1300
0f00
0300
ENDCHAR
STARTCHAR 2a64
ENCODING 10852
SWIDTH 714 0
DWIDTH 12 0
BBX 12 24 0 -4
BITMAP
0000
0000
0000
0000
3640
6b40
6340
3780
00c0
70c0
9980
db00
5980
1980
1980
1980
1980
1980
1980
3f00
0f00
1300
0f00
0300
ENDCHAR
STARTCHAR 2a68
ENCODING 10856
SWIDTH 714 0
DWIDTH 12 0
BBX 12 24 0 -4
BITMAP
0000
0000
0000
0000
0000
0000
0000
00c0
00c0
70c0
9980
db00
5980
1980
1980
1980
1980
1980
1980
3f00
3b00
2b00
3b00
0f00
ENDCHAR
STARTCHAR 2a6a
ENCODING 10858
SWIDTH 714 0
DWIDTH 12 0
BBX 12 24 0 -4
BITMAP
0000
0000
0000
0000
0c00
0c00
0c00
0c00
00c0
70c0
9980
db00
5980
1980
1980
1980
1980
1980
1980
3f00
3b00
2b00
3b00
0f00
ENDCHAR
STARTCHAR 2a6b
ENCODING 10859
SWIDTH 714 0
DWIDTH 12 0
BBX 12 24 0 -4
BITMAP
0000
0000
0000
0000
1c40
14c0
0d80
1f00
00c0
70c0
9980
db00
5980
1980
1980
1980
1980
1980
1980
3f00
3b00
2b00
3b00
0f00
ENDCHAR
STARTCHAR 2a6c
ENCODING 10860
SWIDTH 714 0
DWIDTH 12 0
BBX 12 24 0 -4
BITMAP
0000
0000
0000
0000
3640
6b40
6340
3780
00c0
70c0
9980
db00
5980
1980
1980
1980
1980
1980
1980
3f00
3b00
2b00
3b00
0f00
ENDCHAR
STARTCHAR 2a70
ENCODING 10864
SWIDTH 714 0
DWIDTH 12 0
BBX 12 24 0 -4
BITMAP
0000
0000
0000
0000
0000
0000
0000
00c0
00c0
70c0
9980
db00
5980
1980
1980
1980
1980
1980
1980
3f00
0000
1800
1800
0000
ENDCHAR
STARTCHAR 2a78
ENCODING 10872
SWIDTH 714 0
DWIDTH 12 0
BBX 12 24 0 -4
BITMAP
0000
0000
0f00
1000
3800
4000
4200
3c00
00c0
70c0
9980
db00
5980
1980
1980
1980
1980
1980
1980
3f00
0000
0000
0000
0000
ENDCHAR
STARTCHAR 2b30
ENCODING 11056
SWIDTH 714 0
DWIDTH 12 0
BBX 12 24 0 -4
BITMAP
0000
0000
0000
0000
0000
0000
0000
0060
0060
5860
acc0
8d80
4cc0
0cc0
0cc0
0cc0
0cc0
0cc0
0cc0
1f80
0000
0000
0000
0000
ENDCHAR
STARTCHAR 2b31
ENCODING 11057
SWIDTH 714 0
DWIDTH 12 0
BBX 12 24 0 -4
BITMAP
0000
0100
0300
6e00
d800
c600
db00
6e00
0060
5860
acc0
8d80
4cc0
0cc0
0cc0
0cc0
0cc0
0cc0
0cc0
1f80
0000
0000
0000
0000
ENDCHAR
STARTCHAR 2b32
ENCODING 11058
SWIDTH 714 0
DWIDTH 12 0
BBX 12 24 0 -4
BITMAP
0000
0000
0000
0000
0c00
0c00
0c00
0c00
0060
5860
acc0
8d80
4cc0
0cc0
0cc0
0cc0
0cc0
0cc0
0cc0
1f80
0000
0000
0000
0000
ENDCHAR
STARTCHAR 2b33
ENCODING 11059
SWIDTH 714 0
DWIDTH 12 0
BBX 12 24 0 -4
BITMAP
0000
0000
0000
0000
1c40
14c0
0d80
1f00
0060
5860
acc0
8d80
4cc0
0cc0
0cc0
0cc0
0cc0
0cc0
0cc0
1f80
0000
0000
0000
0000
ENDCHAR
STARTCHAR 2b34
ENCODING 11060
SWIDTH 714 0
DWIDTH 12 0
BBX 12 24 0 -4
BITMAP
0000
0000
0000
0000
3640
6b40
6340
3780
0060
5860
acc0
8d80
4cc0
0cc0
0cc0
0cc0
0cc0
0cc0
0cc0
1f80
0000
0000
0000
0000
ENDCHAR
STARTCHAR 2b36
ENCODING 11062
SWIDTH 714 0
DWIDTH 12 0
BBX 12 24 0 -4
BITMAP
0000
0000
0000
0000
0020
03c0
0500
0300
0060
5860
acc0
8d80
4cc0
0cc0
0cc0
0cc0
0cc0
0cc0
0cc0
1f80
0000
0000
0000
0000
ENDCHAR
STARTCHAR 2b37
ENCODING 11063
SWIDTH 714 0
DWIDTH 12 0
BBX 12 24 0 -4
BITMAP
0000
0000
0000
0000
1800
2400
1800
0000
0060
5860
acc0
8d80
4cc0
0cc0
0cc0
0cc0
0cc0
0cc0
0cc0
1f80
0000
0000
0000
0000
ENDCHAR
STARTCHAR 2b38
ENCODING 11064
SWIDTH 714 0
DWIDTH 12 0
BBX 12 24 0 -4
BITMAP
0000
0000
0000
0000
7080
d980
f300
7e00
0060
5860
acc0
8d80
4cc0
0cc0
0cc0
0cc0
0cc0
0cc0
0cc0
1f80
0000
0000
0000
0000
ENDCHAR
STARTCHAR 2b3a
ENCODING 11066
SWIDTH 714 0
DWIDTH 12 0
BBX 12 24 0 -4
BITMAP
0c00
0c00
0c00
0c00
7080
d980
f300
7e00
0060
5860
acc0
8d80
4cc0
0cc0
0cc0
0cc0
0cc0
0cc0
0cc0
1f80
0000
0000
0000
0000
ENDCHAR
STARTCHAR 2b3b
ENCODING 11067
SWIDTH 714 0
DWIDTH 12 0
BBX 12 24 0 -4
BITMAP
1c40
14c0
0d80
1f00
7080
d980
f300
7e00
0060
5860
acc0
8d80
4cc0
0cc0
0cc0
0cc0
0cc0
0cc0
0cc0
1f80
0000
0000
0000
0000
ENDCHAR
STARTCHAR 2b3c
ENCODING 11068
SWIDTH 714 0
DWIDTH 12 0
BBX 12 24 0 -4
BITMAP
3640
6b40
6340
3780
7080
d980
f300
7e00
0060
5860
acc0
8d80
4cc0
0cc0
0cc0
0cc0
0cc0
0cc0
0cc0
1f80
0000
0000
0000
0000
ENDCHAR
STARTCHAR 2b40
ENCODING 11072
SWIDTH 714 0
DWIDTH 12 0
BBX 12 24 0 -4
BITMAP
0000
0000
0000
0000
7c00
c200
fd00
0300
0060
5860
acc0
8d80
4cc0
0cc0
0cc0
0cc0
0cc0
0cc0
0cc0
1f80
0000
0000
0000
0000
ENDCHAR
STARTCHAR 2b42
ENCODING 11074
SWIDTH 714 0
DWIDTH 12 0
BBX 12 24 0 -4
BITMAP
0c00
0c00
0c00
0c00
7c00
c200
fd00
0300
0060
5860
acc0
8d80
4cc0
0cc0
0cc0
0cc0
0cc0
0cc0
0cc0
1f80
0000
0000
0000
0000
ENDCHAR
STARTCHAR 2b43
ENCODING 11075
SWIDTH 714 0
DWIDTH 12 0
BBX 12 24 0 -4
BITMAP
1c40
14c0
0d80
1f00
7c00
c200
fd00
0300
0060
5860
acc0
8d80
4cc0
0cc0
0cc0
0cc0
0cc0
0cc0
0cc0
1f80
0000
0000
0000
0000
ENDCHAR
STARTCHAR 2b44
ENCODING 11076
SWIDTH 714 0
DWIDTH 12 0
BBX 12 24 0 -4
BITMAP
3640
6b40
6340
3780
7c00
c200
fd00
0300
0060
5860
acc0
8d80
4cc0
0cc0
0cc0
0cc0
0cc0
0cc0
0cc0
1f80
0000
0000
0000
0000
ENDCHAR
STARTCHAR 2b48
ENCODING 11080
SWIDTH 714 0
DWIDTH 12 0
BBX 12 24 0 -4
BITMAP
0000
0000
0000
0000
7300
8b00
f700
0f00
0060
5860
acc0
8d80
4cc0
0cc0
0cc0
0cc0
0cc0
0cc0
0cc0
1f80
0000
0000
0000
0000
ENDCHAR
STARTCHAR 2b4a
ENCODING 11082
SWIDTH 714 0
DWIDTH 12 0
BBX 12 24 0 -4
BITMAP
0c00
0c00
0c00
0c00
7300
8b00
f700
0f00
0060
5860
acc0
8d80
4cc0
0cc0
0cc0
0cc0
0cc0
0cc0
0cc0
1f80
0000
0000
0000
0000
ENDCHAR
STARTCHAR 2b4b
ENCODING 11083
SWIDTH 714 0
DWIDTH 12 0
BBX 12 24 0 -4
BITMAP
1c40
14c0
0d80
1f00
7300
8b00
f700
0f00
0060
5860
acc0
8d80
4cc0
0cc0
0cc0
0cc0
0cc0
0cc0
0cc0
1f80
0000
0000
0000
0000
ENDCHAR
STARTCHAR 2b4c
ENCODING 11084
SWIDTH 714 0
DWIDTH 12 0
BBX 12 24 0 -4
BITMAP
3640
6b40
6340
3780
7300
8b00
f700
0f00
0060
5860
acc0
8d80
4cc0
0cc0
0cc0
0cc0
0cc0
0cc0
0cc0
1f80
0000
0000
0000
0000
ENDCHAR
STARTCHAR 2b50
ENCODING 11088
SWIDTH 714 0
DWIDTH 12 0
BBX 12 24 0 -4
BITMAP
0000
0000
0000
0000
7700
c900
f600
1f00
0060
5860
acc0
8d80
4cc0
0cc0
0cc0
0cc0
0cc0
0cc0
0cc0
1f80
0000
0000
0000
0000
ENDCHAR
STARTCHAR 2b52
ENCODING 11090
SWIDTH 714 0
DWIDTH 12 0
BBX 12 24 0 -4
BITMAP
0c00
0c00
0c00
0c00
7700
c900
f600
1f00
0060
5860
acc0
8d80
4cc0
0cc0
0cc0
0cc0
0cc0
0cc0
0cc0
1f80
0000
0000
0000
0000
ENDCHAR
STARTCHAR 2b53
ENCODING 11091
SWIDTH 714 0
DWIDTH 12 0
BBX 12 24 0 -4
BITMAP
1c40
14c0
0d80
1f00
7700
c900
f600
1f00
0060
5860
acc0
8d80
4cc0
0cc0
0cc0
0cc0
0cc0
0cc0
0cc0
1f80
0000
0000
0000
0000
ENDCHAR
STARTCHAR 2b54
ENCODING 11092
SWIDTH 714 0
DWIDTH 12 0
BBX 12 24 0 -4
BITMAP
3640
6b40
6340
3780
7700
c900
f600
1f00
0060
5860
acc0
8d80
4cc0
0cc0
0cc0
0cc0
0cc0
0cc0
0cc0
1f80
0000
0000
0000
0000
ENDCHAR
STARTCHAR 2b58
ENCODING 11096
SWIDTH 714 0
DWIDTH 12 0
BBX 12 24 0 -4
BITMAP
0000
0000
0000
0000
4d80
ad80
9d80
0580
0060
5860
acc0
8d80
4cc0
0cc0
0cc0
0cc0
0cc0
0cc0
0cc0
1f80
0000
0000
0000
0000
ENDCHAR
STARTCHAR 2b5a
ENCODING 11098
SWIDTH 714 0
DWIDTH 12 0
BBX 12 24 0 -4
BITMAP
0c00
0c00
0c00
0c00
4d80
ad80
9d80
0580
0060
5860
acc0
8d80
4cc0
0cc0
0cc0
0cc0
0cc0
0cc0
0cc0
1f80
0000
0000
0000
0000
ENDCHAR
STARTCHAR 2b5b
ENCODING 11099
SWIDTH 714 0
DWIDTH 12 0
BBX 12 24 0 -4
BITMAP
1c40
14c0
0d80
1f00
4d80
ad80
9d80
0580
0060
5860
acc0
8d80
4cc0
0cc0
0cc0
0cc0
0cc0
0cc0
0cc0
1f80
0000
0000
0000
0000
ENDCHAR
STARTCHAR 2b5c
ENCODING 11100
SWIDTH 714 0
DWIDTH 12 0
BBX 12 24 0 -4
BITMAP
3640
6b40
6340
3780
4d80
ad80
9d80
0580
0060
5860
acc0
8d80
4cc0
0cc0
0cc0
0cc0
0cc0
0cc0
0cc0
1f80
0000
0000
0000
0000
ENDCHAR
STARTCHAR 2b60
ENCODING 11104
SWIDTH 714 0
DWIDTH 12 0
BBX 12 24 0 -4
BITMAP
0000
0000
0000
0000
0000
0000
0000
0060
0060
5860
acc0
8d80
4cc0
0cc0
0cc0
0cc0
0cc0
0cc0
0cc0
1f80
0f00
1300
0f00
0300
ENDCHAR
STARTCHAR 2b62
ENCODING 11106
SWIDTH 714 0
DWIDTH 12 0
BBX 12 24 0 -4
BITMAP
0000
0000
0000
0000
0c00
0c00
0c00
0c00
0060
5860
acc0
8d80
4cc0
0cc0
0cc0
0cc0
0cc0
0cc0
0cc0
1f80
0f00
1300
0f00
0300
ENDCHAR
STARTCHAR 2b63
ENCODING 11107
SWIDTH 714 0
DWIDTH 12 0
BBX 12 24 0 -4
BITMAP
0000
0000
0000
0000
1c40
14c0
0d80
1f00
0060
5860
acc0
8d80
4cc0
0cc0
0cc0
0cc0
0cc0
0cc0
0cc0
1f80
0f00
1300
0f00
0300
ENDCHAR
STARTCHAR 2b64
ENCODING 11108
SWIDTH 714 0
DWIDTH 12 0
BBX 12 24 0 -4
BITMAP
0000
0000
0000
0000
3640
6b40
6340
3780
0060
5860
acc0
8d80
4cc0
0cc0
0cc0
0cc0
0cc0
0cc0
0cc0
1f80
0f00
1300
0f00
0300
ENDCHAR
STARTCHAR 2b68
ENCODING 11112
SWIDTH 714 0
DWIDTH 12 0
BBX 12 24 0 -4
BITMAP
0000
0000
0000
0000
0000
0000
0000
0060
0060
5860
acc0
8d80
4cc0
0cc0
0cc0
0cc0
0cc0
0cc0
0cc0
1f80
3b00
2b00
3b00
0f00
ENDCHAR
STARTCHAR 2b6a
ENCODING 11114
SWIDTH 714 0
DWIDTH 12 0
BBX 12 24 0 -4
BITMAP
0000
0000
0000
0000
0c00
0c00
0c00
0c00
0060
5860
acc0
8d80
4cc0
0cc0
0cc0
0cc0
0cc0
0cc0
0cc0
1f80
3b00
2b00
3b00
0f00
ENDCHAR
STARTCHAR 2b6b
ENCODING 11115
SWIDTH 714 0
DWIDTH 12 0
BBX 12 24 0 -4
BITMAP
0000
0000
0000
0000
1c40
14c0
0d80
1f00
0060
5860
acc0
8d80
4cc0
0cc0
0cc0
0cc0
0cc0
0cc0
0cc0
1f80
3b00
2b00
3b00
0f00
ENDCHAR
STARTCHAR 2b6c
ENCODING 11116
SWIDTH 714 0
DWIDTH 12 0
BBX 12 24 0 -4
BITMAP
0000
0000
0000
0000
3640
6b40
6340
3780
0060
5860
acc0
8d80
4cc0
0cc0
0cc0
0cc0
0cc0
0cc0
0cc0
1f80
3b00
2b00
3b00
0f00
ENDCHAR
STARTCHAR 2b70
ENCODING 11120
SWIDTH 714 0
DWIDTH 12 0
BBX 12 24 0 -4
BITMAP
0000
0000
0000
0000
0000
0000
0000
0060
0060
5860
acc0
8d80
4cc0
0cc0
0cc0
0cc0
0cc0
0cc0
0cc0
1f80
0000
1800
1800
0000
ENDCHAR
STARTCHAR 2b78
ENCODING 11128
SWIDTH 714 0
DWIDTH 12 0
BBX 12 24 0 -4
BITMAP
0000
0000
0f00
1000
3800
4000
4200
3c00
0060
5860
acc0
8d80
4cc0
0cc0
0cc0
0cc0
0cc0
0cc0
0cc0
1f80
0000
0000
0000
0000
ENDCHAR
STARTCHAR 2c30
ENCODING 11312
SWIDTH 714 0
DWIDTH 12 0
BBX 12 24 0 -4
BITMAP
0000
0000
0000
0000
0000
0000
0000
0000
0000
3c30
6630
8330
f330
6330
6330
6330
6330
57f0
5530
2320
0000
0000
0000
0000
ENDCHAR
STARTCHAR 2c31
ENCODING 11313
SWIDTH 714 0
DWIDTH 12 0
BBX 12 24 0 -4
BITMAP
0000
0100
0300
6e00
d800
c600
db00
6e00
0000
3c30
6630
8330
f330
6330
6330
6330
6330
57f0
5530
2320
0000
0000
0000
0000
ENDCHAR
STARTCHAR 2c32
ENCODING 11314
SWIDTH 714 0
DWIDTH 12 0
BBX 12 24 0 -4
BITMAP
0000
0000
0000
0000
0c00
0c00
0c00
0c00
0000
3c30
6630
8330
f330
6330
6330
6330
6330
57f0
5530
2320
0000
0000
0000
0000
ENDCHAR
STARTCHAR 2c33
ENCODING 11315
SWIDTH 714 0
DWIDTH 12 0
BBX 12 24 0 -4
BITMAP
0000
0000
0000
0000
1c40
14c0
0d80
1f00
0000
3c30
6630
8330
f330
6330
6330
6330
6330
57f0
5530
2320
0000
0000
0000
0000
ENDCHAR
STARTCHAR 2c34
ENCODING 11316
SWIDTH 714 0
DWIDTH 12 0
BBX 12 24 0 -4
BITMAP
0000
0000
0000
0000
3640
6b40
6340
3780
0000
3c30
6630
8330
f330
6330
6330
6330
6330
57f0
5530
2320
0000
0000
0000
0000
ENDCHAR
STARTCHAR 2c36
ENCODING 11318
SWIDTH 714 0
DWIDTH 12 0
BBX 12 24 0 -4
BITMAP
0000
0000
0000
0000
0020
03c0
0500
0300
0000
3c30
6630
8330
f330
6330
6330
6330
6330
57f0
5530
2320
0000
0000
0000
0000
ENDCHAR
STARTCHAR 2c37
ENCODING 11319
SWIDTH 714 0
DWIDTH 12 0
BBX 12 24 0 -4
BITMAP
0000
0000
0000
0000
1800
2400
1800
0000
0000
3c30
6630
8330
f330
6330
6330
6330
6330
57f0
5530
2320
0000
0000
0000
0000
ENDCHAR
STARTCHAR 2c38
ENCODING 11320
SWIDTH 714 0
DWIDTH 12 0
BBX 12 24 0 -4
BITMAP
0000
0000
0000
0000
7080
d980
f300
7e00
0000
3c30
6630
8330
f330
6330
6330
6330
6330
57f0
5530
2320
0000
0000
0000
0000
ENDCHAR
STARTCHAR 2c3a
ENCODING 11322
SWIDTH 714 0
DWIDTH 12 0
BBX 12 24 0 -4
BITMAP
0c00
0c00
0c00
0c00
7080
d980
f300
7e00
0000
3c30
6630
8330
f330
6330
6330
6330
6330
57f0
5530
2320
0000
0000
0000
0000
ENDCHAR
STARTCHAR 2c3b
ENCODING 11323
SWIDTH 714 0
DWIDTH 12 0
BBX 12 24 0 -4
BITMAP
1c40
14c0
0d80
1f00
7080
d980
f300
7e00
0000
3c30
6630
8330
f330
6330
6330
6330
6330
57f0
5530
2320
0000
0000
0000
0000
ENDCHAR
STARTCHAR 2c3c
ENCODING 11324
SWIDTH 714 0
DWIDTH 12 0
BBX 12 24 0 -4
BITMAP
3640
6b40
6340
3780
7080
d980
f300
7e00
0000
3c30
6630
8330
f330
6330
6330
6330
6330
57f0
5530
2320
0000
0000
0000
0000
ENDCHAR
STARTCHAR 2c40
ENCODING 11328
SWIDTH 714 0
DWIDTH 12 0
BBX 12 24 0 -4
BITMAP
0000
0000
0000
0000
7c00
c200
fd00
0300
0000
3c30
6630
8330
f330
6330
6330
6330
6330
57f0
5530
2320
0000
0000
0000
0000
ENDCHAR
STARTCHAR 2c42
ENCODING 11330
SWIDTH 714 0
DWIDTH 12 0
BBX 12 24 0 -4
BITMAP
0c00
0c00
0c00
0c00
7c00
c200
fd00
0300
0000
3c30
6630
8330
f330
6330
6330
6330
6330
57f0
5530
2320
0000
0000
0000
0000
ENDCHAR
STARTCHAR 2c43
ENCODING 11331
SWIDTH 714 0
DWIDTH 12 0
BBX 12 24 0 -4
BITMAP
1c40
14c0
0d80
1f00
7c00
c200
fd00
0300
0000
3c30
6630
8330
f330
6330
6330
6330
6330
57f0
5530
2320
0000
0000
0000
0000
ENDCHAR
STARTCHAR 2c44
ENCODING 11332
SWIDTH 714 0
DWIDTH 12 0
BBX 12 24 0 -4
BITMAP
3640
6b40
6340
3780
7c00
c200
fd00
0300
0000
3c30
6630
8330
f330
6330
6330
6330
6330
57f0
5530
2320
0000
0000
0000
0000
ENDCHAR
STARTCHAR 2c48
ENCODING 11336
SWIDTH 714 0
DWIDTH 12 0
BBX 12 24 0 -4
BITMAP
0000
0000
0000
0000
7300
8b00
f700
0f00
0000
3c30
6630
8330
f330
6330
6330
6330
6330
57f0
5530
2320
0000
0000
0000
0000
ENDCHAR
STARTCHAR 2c4a
ENCODING 11338
SWIDTH 714 0
DWIDTH 12 0
BBX 12 24 0 -4
BITMAP
0c00
0c00
0c00
0c00
7300
8b00
f700
0f00
0000
3c30
6630
8330
f330
6330
6330
6330
6330
57f0
5530
2320
0000
0000
0000
0000
ENDCHAR
STARTCHAR 2c4b
ENCODING 11339
SWIDTH 714 0
DWIDTH 12 0
BBX 12 24 0 -4
BITMAP
1c40
14c0
0d80
1f00
7300
8b00
f700
0f00
0000
3c30
6630
8330
f330
6330
6330
6330
6330
57f0
5530
2320
0000
0000
0000
0000
ENDCHAR
STARTCHAR 2c4c
ENCODING 11340
SWIDTH 714 0
DWIDTH 12 0
BBX 12 24 0 -4
BITMAP
3640
6b40
6340
3780
7300
8b00
f700
0f00
0000
3c30
6630
8330
f330
6330
6330
6330
6330
57f0
5530
2320
0000
0000
0000
0000
ENDCHAR
STARTCHAR 2c50
ENCODING 11344
SWIDTH 714 0
DWIDTH 12 0
BBX 12 24 0 -4
BITMAP
0000
0000
0000
0000
7700
c900
f600
1f00
0000
3c30
6630
8330
f330
6330
6330
6330
6330
57f0
5530
2320
0000
0000
0000
0000
ENDCHAR
STARTCHAR 2c52
ENCODING 11346
SWIDTH 714 0
DWIDTH 12 0
BBX 12 24 0 -4
BITMAP
0c00
0c00
0c00
0c00
7700
c900
f600
1f00
0000
3c30
6630
8330
f330
6330
6330
6330
6330
57f0
5530
2320
0000
0000
0000
0000
ENDCHAR
STARTCHAR 2c53
ENCODING 11347
SWIDTH 714 0
DWIDTH 12 0
BBX 12 24 0 -4
BITMAP
1c40
14c0
0d80
1f00
7700
c900
f600
1f00
0000
3c30
6630
8330
f330
6330
6330
6330
6330
57f0
5530
2320
0000
0000
0000
0000
ENDCHAR
STARTCHAR 2c54
ENCODING 11348
SWIDTH 714 0
DWIDTH 12 0
BBX 12 24 0 -4
BITMAP
3640
6b40
6340
3780
7700
c900
f600
1f00
0000
3c30
6630
8330
f330
6330
6330
6330
6330
57f0
5530
2320
0000
0000
0000
0000
ENDCHAR
STARTCHAR 2c58
ENCODING 11352
SWIDTH 714 0
DWIDTH 12 0
BBX 12 24 0 -4
BITMAP
0000
0000
0000
0000
4d80
ad80
9d80
0580
0000
3c30
6630
8330
f330
6330
6330
6330
6330
57f0
5530
2320
0000
0000
0000
0000
ENDCHAR
STARTCHAR 2c5a
ENCODING 11354
SWIDTH 714 0
DWIDTH 12 0
BBX 12 24 0 -4
BITMAP
0c00
0c00
0c00
0c00
4d80
ad80
9d80
0580
0000
3c30
6630
8330
f330
6330
6330
6330
6330
57f0
5530
2320
0000
0000
0000
0000
ENDCHAR
STARTCHAR 2c5b
ENCODING 11355
SWIDTH 714 0
DWIDTH 12 0
BBX 12 24 0 -4
BITMAP
1c40
14c0
0d80
1f00
4d80
ad80
9d80
0580
0000
3c30
6630
8330
f330
6330
6330
6330
6330
57f0
5530
2320
0000
0000
0000
0000
ENDCHAR
STARTCHAR 2c5c
ENCODING 11356
SWIDTH 714 0
DWIDTH 12 0
BBX 12 24 0 -4
BITMAP
3640
6b40
6340
3780
4d80
ad80
9d80
0580
0000
3c30
6630
8330
f330
6330
6330
6330
6330
57f0
5530
2320
0000
0000
0000
0000
ENDCHAR
STARTCHAR 2c60
ENCODING 11360
SWIDTH 714 0
DWIDTH 12 0
BBX 12 24 0 -4
BITMAP
0000
0000
0000
0000
0000
0000
0000
0000
0000
3c30
6630
8330
f330
6330
6330
6330
6330
57f0
5530
2320
0f00
1300
0f00
0300
ENDCHAR
STARTCHAR 2c62
ENCODING 11362
SWIDTH 714 0
DWIDTH 12 0
BBX 12 24 0 -4
BITMAP
0000
0000
0000
0000
0c00
0c00
0c00
0c00
0000
3c30
6630
8330
f330
6330
6330
6330
6330
57f0
5530
2320
0f00
1300
0f00
0300
ENDCHAR
STARTCHAR 2c63
ENCODING 11363
SWIDTH 714 0
DWIDTH 12 0
BBX 12 24 0 -4
BITMAP
0000
0000
0000
0000
1c40
14c0
0d80
1f00
0000
3c30
6630
8330
f330
6330
6330
6330
6330
57f0
5530
2320
0f00
1300
0f00
0300
ENDCHAR
STARTCHAR 2c64
ENCODING 11364
SWIDTH 714 0
DWIDTH 12 0
BBX 12 24 0 -4
BITMAP
0000
0000
0000
0000
3640
6b40
6340
3780
0000
3c30
6630
8330
f330
6330
6330
6330
6330
57f0
5530
2320
0f00
1300
0f00
0300
ENDCHAR
STARTCHAR 2c68
ENCODING 11368
SWIDTH 714 0
DWIDTH 12 0
BBX 12 24 0 -4
BITMAP
0000
0000
0000
0000
0000
0000
0000
0000
0000
3c30
6630
8330
f330
6330
6330
6330
6330
57f0
5530
2320
3b00
2b00
3b00
0f00
ENDCHAR
STARTCHAR 2c6a
ENCODING 11370
SWIDTH 714 0
DWIDTH 12 0
BBX 12 24 0 -4
BITMAP
0000
0000
0000
0000
0c00
0c00
0c00
0c00
0000
3c30
6630
8330
f330
6330
6330
6330
6330
57f0
5530
2320
3b00
2b00
3b00
0f00
ENDCHAR
STARTCHAR 2c6b
ENCODING 11371
SWIDTH 714 0
DWIDTH 12 0
BBX 12 24 0 -4
BITMAP
0000
0000
0000
0000
1c40
14c0
0d80
1f00
0000
3c30
6630
8330
f330
6330
6330
6330
6330
57f0
5530
2320
3b00
2b00
3b00
0f00
ENDCHAR
STARTCHAR 2c6c
ENCODING 11372
SWIDTH 714 0
DWIDTH 12 0
BBX 12 24 0 -4
BITMAP
0000
0000
0000
0000
3640
6b40
6340
3780
0000
3c30
6630
8330
f330
6330
6330
6330
6330
57f0
5530
2320
3b00
2b00
3b00
0f00
ENDCHAR
STARTCHAR 2c70
ENCODING 11376
SWIDTH 714 0
DWIDTH 12 0
BBX 12 24 0 -4
BITMAP
0000
0000
0000
0000
0000
0000
0000
0000
0000
3c30
6630
8330
f330
6330
6330
6330
6330
57f0
5530
2320
0000
1800
1800
0000
ENDCHAR
STARTCHAR 2c78
ENCODING 11384
SWIDTH 714 0
DWIDTH 12 0
BBX 12 24 0 -4
BITMAP
0000
0000
0f00
1000
3800
4000
4200
3c00
0000
3c30
6630
8330
f330
6330
6330
6330
6330
57f0
5530
2320
0000
0000
0000
0000
ENDCHAR
STARTCHAR 2d30
ENCODING 11568
SWIDTH 714 0
DWIDTH 12 0
BBX 12 24 0 -4
BITMAP
0000
0000
0000
0000
0000
0000
0000
0000
0000
3c30
6630
8330
f330
6330
6330
6330
6330
7330
4b30
31e0
0000
0130
01e0
0000
ENDCHAR
STARTCHAR 2d31
ENCODING 11569
SWIDTH 714 0
DWIDTH 12 0
BBX 12 24 0 -4
BITMAP
0000
0100
0300
6e00
d800
c600
db00
6e00
0000
3c30
6630
8330
f330
6330
6330
6330
6330
7330
4b30
31e0
0000
0130
01e0
0000
ENDCHAR
STARTCHAR 2d32
ENCODING 11570
SWIDTH 714 0
DWIDTH 12 0
BBX 12 24 0 -4
BITMAP
0000
0000
0000
0000
0c00
0c00
0c00
0c00
0000
3c30
6630
8330
f330
6330
6330
6330
6330
7330
4b30
31e0
0000
0130
01e0
0000
ENDCHAR
STARTCHAR 2d33
ENCODING 11571
SWIDTH 714 0
DWIDTH 12 0
BBX 12 24 0 -4
BITMAP
0000
0000
0000
0000
1c40
14c0
0d80
1f00
0000
3c30
6630
8330
f330
6330
6330
6330
6330
7330
4b30
31e0
0000
0130
01e0
0000
ENDCHAR
STARTCHAR 2d34
ENCODING 11572
SWIDTH 714 0
DWIDTH 12 0
BBX 12 24 0 -4
BITMAP
0000
0000
0000
0000
3640
6b40
6340
3780
0000
3c30
6630
8330
f330
6330
6330
6330
6330
7330
4b30
31e0
0000
0130
01e0
0000
ENDCHAR
STARTCHAR 2d35
ENCODING 11573
SWIDTH 714 0
DWIDTH 12 0
BBX 12 24 0 -4
BITMAP
0000
0000
0000
0000
0c00
1e00
1e00
0c00
0000
3c30
6630
8330
f330
6330
6330
6330
6330
7330
4b30
31e0
0000
0130
01e0
0000
ENDCHAR
STARTCHAR 2d36
ENCODING 11574
SWIDTH 714 0
DWIDTH 12 0
BBX 12 24 0 -4
BITMAP
0000
0000
0000
0000
0020
03c0
0500
0300
0000
3c30
6630
8330
f330
6330
6330
6330
6330
7330
4b30
31e0
0000
0130
01e0
0000
ENDCHAR
STARTCHAR 2d37
ENCODING 11575
SWIDTH 714 0
DWIDTH 12 0
BBX 12 24 0 -4
BITMAP
0000
0000
0000
0000
1800
2400
1800
0000
0000
3c30
6630
8330
f330
6330
6330
6330
6330
7330
4b30
31e0
0000
0130
01e0
0000
ENDCHAR
STARTCHAR 2d38
ENCODING 11576
SWIDTH 714 0
DWIDTH 12 0
BBX 12 24 0 -4
BITMAP
0000
0000
0000
0000
7080
d980
f300
7e00
0000
3c30
6630
8330
f330
6330
6330
6330
6330
7330
4b30
31e0
0000
0130
01e0
0000
ENDCHAR
STARTCHAR 2d3a
ENCODING 11578
SWIDTH 714 0
DWIDTH 12 0
BBX 12 24 0 -4
BITMAP
0c00
0c00
0c00
0c00
7080
d980
f300
7e00
0000
3c30
6630
8330
f330
6330
6330
6330
6330
7330
4b30
31e0
0000
0130
01e0
0000
ENDCHAR
STARTCHAR 2d3b
ENCODING 11579
SWIDTH 714 0
DWIDTH 12 0
BBX 12 24 0 -4
BITMAP
1c40
14c0
0d80
1f00
7080
d980
f300
7e00
0000
3c30
6630
8330
f330
6330
6330
6330
6330
7330
4b30
31e0
0000
0130
01e0
0000
ENDCHAR
STARTCHAR 2d3c
ENCODING 11580
SWIDTH 714 0
DWIDTH 12 0
BBX 12 24 0 -4
BITMAP
3640
6b40
6340
3780
7080
d980
f300
7e00
0000
3c30
6630
8330
f330
6330
6330
6330
6330
7330
4b30
31e0
0000
0130
01e0
0000
ENDCHAR
STARTCHAR 2d3d
ENCODING 11581
SWIDTH 714 0
DWIDTH 12 0
BBX 12 24 0 -4
BITMAP
0c00
1e00
1e00
0c00
7080
d980
f300
7e00
0000
3c30
6630
8330
f330
6330
6330
6330
6330
7330
4b30
31e0
0000
0130
01e0
0000
ENDCHAR
STARTCHAR 2d40
ENCODING 11584
SWIDTH 714 0
DWIDTH 12 0
BBX 12 24 0 -4
BITMAP
0000
0000
0000
0000
7c00
c200
fd00
0300
0000
3c30
6630
8330
f330
6330
6330
6330
6330
7330
4b30
31e0
0000
0130
01e0
0000
ENDCHAR
STARTCHAR 2d42
ENCODING 11586
SWIDTH 714 0
DWIDTH 12 0
BBX 12 24 0 -4
BITMAP
0c00
0c00
0c00
0c00
7c00
c200
fd00
0300
0000
3c30
6630
8330
f330
6330
6330
6330
6330
7330
4b30
31e0
0000
0130
01e0
0000
ENDCHAR
STARTCHAR 2d43
ENCODING 11587
SWIDTH 714 0
DWIDTH 12 0
BBX 12 24 0 -4
BITMAP
1c40
14c0
0d80
1f00
7c00
c200
fd00
0300
0000
3c30
6630
8330
f330
6330
6330
6330
6330
7330
4b30
31e0
0000
0130
01e0
0000
ENDCHAR
STARTCHAR 2d44
ENCODING 11588
SWIDTH 714 0
DWIDTH 12 0
BBX 12 24 0 -4
BITMAP
3640
6b40
6340
3780
7c00
c200
fd00
0300
0000
3c30
6630
8330
f330
6330
6330
6330
6330
7330
4b30
31e0
0000
0130
01e0
0000
ENDCHAR
STARTCHAR 2d45
ENCODING 11589
SWIDTH 714 0
DWIDTH 12 0
BBX 12 24 0 -4
BITMAP
0c00
1e00
1e00
0c00
7c00
c200
fd00
0300
0000
3c30
6630
8330
f330
6330
6330
6330
6330
7330
4b30
31e0
0000
0130
01e0
0000
ENDCHAR
STARTCHAR 2d48
ENCODING 11592
SWIDTH 714 0
DWIDTH 12 0
BBX 12 24 0 -4
BITMAP
0000
0000
0000
0000
7300
8b00
f700
0f00
0000
3c30
6630
8330
f330
6330
6330
6330
6330
7330
4b30
31e0
0000
0130
01e0
0000
ENDCHAR
STARTCHAR 2d4a
ENCODING 11594
SWIDTH 714 0
DWIDTH 12 0
BBX 12 24 0 -4
BITMAP
0c00
0c00
0c00
0c00
7300
8b00
f700
0f00
0000
3c30
6630
8330
f330
6330
6330
6330
6330
7330
4b30
31e0
0000
0130
01e0
0000
ENDCHAR
STARTCHAR 2d4b
ENCODING 11595
SWIDTH 714 0
DWIDTH 12 0
BBX 12 24 0 -4
BITMAP
1c40
14c0
0d80
1f00
7300
8b00
f700
0f00
0000
3c30
6630
8330
f330
6330
6330
6330
6330
7330
4b30
31e0
0000
0130
01e0
0000
ENDCHAR
STARTCHAR 2d4c
ENCODING 11596
SWIDTH 714 0
DWIDTH 12 0
BBX 12 24 0 -4
BITMAP
3640
6b40
6340
3780
7300
8b00
f700
0f00
0000
3c30
6630
8330
f330
6330
6330
6330
6330
7330
4b30
31e0
0000
0130
01e0
0000
ENDCHAR
STARTCHAR 2d4d
ENCODING 11597
SWIDTH 714 0
DWIDTH 12 0
BBX 12 24 0 -4
BITMAP
0c00
1e00
1e00
0c00
7300
8b00
f700
0f00
0000
3c30
6630
8330
f330
6330
6330
6330
6330
7330
4b30
31e0
0000
0130
01e0
0000
ENDCHAR
STARTCHAR 2d50
ENCODING 11600
SWIDTH 714 0
DWIDTH 12 0
BBX 12 24 0 -4
BITMAP
0000
0000
0000
0000
7700
c900
f600
1f00
0000
3c30
6630
8330
f330
6330
6330
6330
6330
7330
4b30
31e0
0000
0130
01e0
0000
ENDCHAR
STARTCHAR 2d52
ENCODING 11602
SWIDTH 714 0
DWIDTH 12 0
BBX 12 24 0 -4
BITMAP
0c00
0c00
0c00
0c00
7700
c900
f600
1f00
0000
3c30
6630
8330
f330
6330
6330
6330
6330
7330
4b30
31e0
0000
0130
01e0
0000
ENDCHAR
STARTCHAR 2d53
ENCODING 11603
SWIDTH 714 0
DWIDTH 12 0
BBX 12 24 0 -4
BITMAP
1c40
14c0
0d80
1f00
7700
c900
f600
1f00
0000
3c30
6630
8330
f330
6330
6330
6330
6330
7330
4b30
31e0
0000
0130
01e0
0000
ENDCHAR
STARTCHAR 2d54
ENCODING 11604
SWIDTH 714 0
DWIDTH 12 0
BBX 12 24 0 -4
BITMAP
3640
6b40
6340
3780
7700
c900
f600
1f00
0000
3c30
6630
8330
f330
6330
6330
6330
6330
7330
4b30
31e0
0000
0130
01e0
0000
ENDCHAR
STARTCHAR 2d55
ENCODING 11605
SWIDTH 714 0
DWIDTH 12 0
BBX 12 24 0 -4
BITMAP
0c00
1e00
1e00
0c00
7700
c900
f600
1f00
0000
3c30
6630
8330
f330
6330
6330
6330
6330
7330
4b30
31e0
0000
0130
01e0
0000
ENDCHAR
STARTCHAR 2d58
ENCODING 11608
SWIDTH 714 0
DWIDTH 12 0
BBX 12 24 0 -4
BITMAP
0000
0000
0000
0000
4d80
ad80
9d80
0580
0000
3c30
6630
8330
f330
6330
6330
6330
6330
7330
4b30
31e0
0000
0130
01e0
0000
ENDCHAR
STARTCHAR 2d5a
ENCODING 11610
SWIDTH 714 0
DWIDTH 12 0
BBX 12 24 0 -4
BITMAP
0c00
0c00
0c00
0c00
4d80
ad80
9d80
0580
0000
3c30
6630
8330
f330
6330
6330
6330
6330
7330
4b30
31e0
0000
0130
01e0
0000
ENDCHAR
STARTCHAR 2d5b
ENCODING 11611
SWIDTH 714 0
DWIDTH 12 0
BBX 12 24 0 -4
BITMAP
1c40
14c0
0d80
1f00
4d80
ad80
9d80
0580
0000
3c30
6630
8330
f330
6330
6330
6330
6330
7330
4b30
31e0
0000
0130
01e0
0000
ENDCHAR
STARTCHAR 2d5c
ENCODING 11612
SWIDTH 714 0
DWIDTH 12 0
BBX 12 24 0 -4
BITMAP
3640
6b40
6340
3780
4d80
ad80
9d80
0580
0000
3c30
6630
8330
f330
6330
6330
6330
6330
7330
4b30
31e0
0000
0130
01e0
0000
ENDCHAR
STARTCHAR 2d5d
ENCODING 11613
SWIDTH 714 0
DWIDTH 12 0
BBX 12 24 0 -4
BITMAP
0c00
1e00
1e00
0c00
4d80
ad80
9d80
0580
0000
3c30
6630
8330
f330
6330
6330
6330
6330
7330
4b30
31e0
0000
0130
01e0
0000
ENDCHAR
STARTCHAR 2d60
ENCODING 11616
SWIDTH 714 0
DWIDTH 12 0
BBX 12 24 0 -4
BITMAP
0000
0000
0000
0000
0000
0000
0000
0000
0000
3c30
6630
8330
f330
6330
6330
6330
6330
7330
4b30
31e0
0f00
1300
0f00
0300
ENDCHAR
STARTCHAR 2d62
ENCODING 11618
SWIDTH 714 0
DWIDTH 12 0
BBX 12 24 0 -4
BITMAP
0000
0000
0000
0000
0c00
0c00
0c00
0c00
0000
3c30
6630
8330
f330
6330
6330
6330
6330
7330
4b30
31e0
0f00
1300
0f00
0300
ENDCHAR
STARTCHAR 2d63
ENCODING 11619
SWIDTH 714 0
DWIDTH 12 0
BBX 12 24 0 -4
BITMAP
0000
0000
0000
0000
1c40
14c0
0d80
1f00
0000
3c30
6630
8330
f330
6330
6330
6330
6330
7330
4b30
31e0
0f00
1300
0f00
0300
ENDCHAR
STARTCHAR 2d64
ENCODING 11620
SWIDTH 714 0
DWIDTH 12 0
BBX 12 24 0 -4
BITMAP
0000
0000
0000
0000
3640
6b40
6340
3780
0000
3c30
6630
8330
f330
6330
6330
6330
6330
7330
4b30
31e0
0f00
1300
0f00
0300
ENDCHAR
STARTCHAR 2d65
ENCODING 11621
SWIDTH 714 0
DWIDTH 12 0
BBX 12 24 0 -4
BITMAP
0000
0000
0000
0000
0c00
1e00
1e00
0c00
0000
3c30
6630
8330
f330
6330
6330
6330
6330
7330
4b30
31e0
0f00
1300
0f00
0300
ENDCHAR
STARTCHAR 2d68
ENCODING 11624
SWIDTH 714 0
DWIDTH 12 0
BBX 12 24 0 -4
BITMAP
0000
0000
0000
0000
0000
0000
0000
0000
0000
3c30
6630
8330
f330
6330
6330
6330
6330
7330
4b30
31e0
3b00
2b00
3b00
0f00
ENDCHAR
STARTCHAR 2d6a
ENCODING 11626
SWIDTH 714 0
DWIDTH 12 0
BBX 12 24 0 -4
BITMAP
0000
0000
0000
0000
0c00
0c00
0c00
0c00
0000
3c30
6630
8330
f330
6330
6330
6330
6330
7330
4b30
31e0
3b00
2b00
3b00
0f00
ENDCHAR
STARTCHAR 2d6b
ENCODING 11627
SWIDTH 714 0
DWIDTH 12 0
BBX 12 24 0 -4
BITMAP
0000
0000
0000
0000
1c40
14c0
0d80
1f00
0000
3c30
6630
8330
f330
6330
6330
6330
6330
7330
4b30
31e0
3b00
2b00
3b00
0f00
ENDCHAR
STARTCHAR 2d6c
ENCODING 11628
SWIDTH 714 0
DWIDTH 12 0
BBX 12 24 0 -4
BITMAP
0000
0000
0000
0000
3640
6b40
6340
3780
0000
3c30
6630
8330
f330
6330
6330
6330
6330
7330
4b30
31e0
3b00
2b00
3b00
0f00
ENDCHAR
STARTCHAR 2d6d
ENCODING 11629
SWIDTH 714 0
DWIDTH 12 0
BBX 12 24 0 -4
BITMAP
0000
0000
0000
0000
0c00
1e00
1e00
0c00
0000
3c30
6630
8330
f330
6330
6330
6330
6330
7330
4b30
31e0
3b00
2b00
3b00
0f00
ENDCHAR
STARTCHAR 2d70
ENCODING 11632
SWIDTH 714 0
DWIDTH 12 0
BBX 12 24 0 -4
BITMAP
0000
0000
0000
0000
0000
0000
0000
0000
0000
3c30
6630
8330
f330
6330
6330
6330
6330
7330
4b30
31e0
0000
1800
1800
0000
ENDCHAR
STARTCHAR 2d78
ENCODING 11640
SWIDTH 714 0
DWIDTH 12 0
BBX 12 24 0 -4
BITMAP
0000
0000
0f00
1000
3800
4000
4200
3c00
0000
3c30
6630
8330
f330
6330
6330
6330
6330
7330
4b30
31e0
0000
0130
01e0
0000
ENDCHAR
STARTCHAR 2e30
ENCODING 11824
SWIDTH 714 0
DWIDTH 12 0
BBX 12 24 0 -4
BITMAP
0000
0000
0000
0000
0000
0000
0000
0000
0000
7e00
c300
c180
f180
6180
6180
6180
6180
e180
a180
e580
0980
3d80
6b80
3180
ENDCHAR
STARTCHAR 2e31
ENCODING 11825
SWIDTH 714 0
DWIDTH 12 0
BBX 12 24 0 -4
BITMAP
0000
0100
0300
6e00
d800
c600
db00
6e00
0000
7e00
c300
c180
f180
6180
6180
6180
6180
e180
a180
e580
0980
3d80
6b80
3180
ENDCHAR
STARTCHAR 2e32
ENCODING 11826
SWIDTH 714 0
DWIDTH 12 0
BBX 12 24 0 -4
BITMAP
0000
0000
0000
0000
0c00
0c00
0c00
0c00
0000
7e00
c300
c180
f180
6180
6180
6180
6180
e180
a180
e580
0980
3d80
6b80
3180
ENDCHAR
STARTCHAR 2e33
ENCODING 11827
SWIDTH 714 0
DWIDTH 12 0
BBX 12 24 0 -4
BITMAP
0000
0000
0000
0000
1c40
14c0
0d80
1f00
0000
7e00
c300
c180
f180
6180
6180
6180
6180
e180
a180
e580
0980
3d80
6b80
3180
ENDCHAR
STARTCHAR 2e34
ENCODING 11828
SWIDTH 714 0
DWIDTH 12 0
BBX 12 24 0 -4
BITMAP
0000
0000
0000
0000
3640
6b40
6340
3780
0000
7e00
c300
c180
f180
6180
6180
6180
6180
e180
a180
e580
0980
3d80
6b80
3180
ENDCHAR
STARTCHAR 2e35
ENCODING 11829
SWIDTH 714 0
DWIDTH 12 0
BBX 12 24 0 -4
BITMAP
0000
0000
0000
0000
0c00
1e00
1e00
0c00
0000
7e00
c300
c180
f180
6180
6180
6180
6180
e180
a180
e580
0980
3d80
6b80
3180
ENDCHAR
STARTCHAR 2e36
ENCODING 11830
SWIDTH 714 0
DWIDTH 12 0
BBX 12 24 0 -4
BITMAP
0000
0000
0000
0000
0020
03c0
0500
0300
0000
7e00
c300
c180
f180
6180
6180
6180
6180
e180
a180
e580
0980
3d80
6b80
3180
ENDCHAR
STARTCHAR 2e37
ENCODING 11831
SWIDTH 714 0
DWIDTH 12 0
BBX 12 24 0 -4
BITMAP
0000
0000
0000
0000
1800
2400
1800
0000
0000
7e00
c300
c180
f180
6180
6180
6180
6180
e180
a180
e580
0980
3d80
6b80
3180
ENDCHAR
STARTCHAR 2e38
ENCODING 11832
SWIDTH 714 0
DWIDTH 12 0
BBX 12 24 0 -4
BITMAP
0000
0000
0000
0000
7080
d980
f300
7e00
0000
7e00
c300
c180
f180
6180
6180
6180
6180
e180
a180
e580
0980
3d80
6b80
3180
ENDCHAR
STARTCHAR 2e3a
ENCODING 11834
SWIDTH 714 0
DWIDTH 12 0
BBX 12 24 0 -4
BITMAP
0c00
0c00
0c00
0c00
7080
d980
f300
7e00
0000
7e00
c300
c180
f180
6180
6180
6180
6180
e180
a180
e580
0980
3d80
6b80
3180
ENDCHAR
STARTCHAR 2e3b
ENCODING 11835
SWIDTH 714 0
DWIDTH 12 0
BBX 12 24 0 -4
BITMAP
1c40
14c0
0d80
1f00
7080
d980
f300
7e00
0000
7e00
c300
c180
f180
6180
6180
6180
6180
e180
a180
e580
0980
3d80
6b80
3180
ENDCHAR
STARTCHAR 2e3c
ENCODING 11836
SWIDTH 714 0
DWIDTH 12 0
BBX 12 24 0 -4
BITMAP
3640
6b40
6340
3780
7080
d980
f300
7e00
0000
7e00
c300
c180
f180
6180
6180
6180
6180
e180
a180
e580
0980
3d80
6b80
3180
ENDCHAR
STARTCHAR 2e3d
ENCODING 11837
SWIDTH 714 0
DWIDTH 12 0
BBX 12 24 0 -4
BITMAP
0c00
1e00
1e00
0c00
7080
d980
f300
7e00
0000
7e00
c300
c180
f180
6180
6180
6180
6180
e180
a180
e580
0980
3d80
6b80
3180
ENDCHAR
STARTCHAR 2e40
ENCODING 11840
SWIDTH 714 0
DWIDTH 12 0
BBX 12 24 0 -4
BITMAP
0000
0000
0000
0000
7c00
c200
fd00
0300
0000
7e00
c300
c180
f180
6180
6180
6180
6180
e180
a180
e580
0980
3d80
6b80
3180
ENDCHAR
STARTCHAR 2e42
ENCODING 11842
SWIDTH 714 0
DWIDTH 12 0
BBX 12 24 0 -4
BITMAP
0c00
0c00
0c00
0c00
7c00
c200
fd00
0300
0000
7e00
c300
c180
f180
6180
6180
6180
6180
e180
a180
e580
0980
3d80
6b80
3180
ENDCHAR
STARTCHAR 2e43
ENCODING 11843
SWIDTH 714 0
DWIDTH 12 0
BBX 12 24 0 -4
BITMAP
1c40
14c0
0d80
1f00
7c00
c200
fd00
0300
0000
7e00
c300
c180
f180
6180
6180
6180
6180
e180
a180
e580
0980
3d80
6b80
3180
ENDCHAR
STARTCHAR 2e44
ENCODING 11844
SWIDTH 714 0
DWIDTH 12 0
BBX 12 24 0 -4
BITMAP
3640
6b40
6340
3780
7c00
c200
fd00
0300
0000
7e00
c300
c180
f180
6180
6180
6180
6180
e180
a180
e580
0980
3d80
6b80
3180
ENDCHAR
STARTCHAR 2e45
ENCODING 11845
SWIDTH 714 0
DWIDTH 12 0
BBX 12 24 0 -4
BITMAP
0c00
1e00
1e00
0c00
7c00
c200
fd00
0300
0000
7e00
c300
c180
f180
6180
6180
6180
6180
e180
a180
e580
0980
3d80
6b80
3180
ENDCHAR
STARTCHAR 2e48
ENCODING 11848
SWIDTH 714 0
DWIDTH 12 0
BBX 12 24 0 -4
BITMAP
0000
0000
0000
0000
7300
8b00
f700
0f00
0000
7e00
c300
c180
f180
6180
6180
6180
6180
e180
a180
e580
0980
3d80
6b80
3180
ENDCHAR
STARTCHAR 2e4a
ENCODING 11850
SWIDTH 714 0
DWIDTH 12 0
BBX 12 24 0 -4
BITMAP
0c00
0c00
0c00
0c00
7300
8b00
f700
0f00
0000
7e00
c300
c180
f180
6180
6180
6180
6180
e180
a180
e580
0980
3d80
6b80
3180
ENDCHAR
STARTCHAR 2e4b
ENCODING 11851
SWIDTH 714 0
DWIDTH 12 0
BBX 12 24 0 -4
BITMAP
1c40
14c0
0d80
1f00
7300
8b00
f700
0f00
0000
7e00
c300
c180
f180
6180
6180
6180
6180
e180
a180
e580
0980
3d80
6b80
3180
ENDCHAR
STARTCHAR 2e4c
ENCODING 11852
SWIDTH 714 0
DWIDTH 12 0
BBX 12 24 0 -4
BITMAP
3640
6b40
6340
3780
7300
8b00
f700
0f00
0000
7e00
c300
c180
f180
6180
6180
6180
6180
e180
a180
e580
0980
3d80
6b80
3180
ENDCHAR
STARTCHAR 2e4d
ENCODING 11853
SWIDTH 714 0
DWIDTH 12 0
BBX 12 24 0 -4
BITMAP
0c00
1e00
1e00
0c00
7300
8b00
f700
0f00
0000
7e00
c300
c180
f180
6180
6180
6180
6180
e180
a180
e580
0980
3d80
6b80
3180
ENDCHAR
STARTCHAR 2e50
ENCODING 11856
SWIDTH 714 0
DWIDTH 12 0
BBX 12 24 0 -4
BITMAP
0000
0000
0000
0000
7700
c900
f600
1f00
0000
7e00
c300
c180
f180
6180
6180
6180
6180
e180
a180
e580
0980
3d80
6b80
3180
ENDCHAR
STARTCHAR 2e52
ENCODING 11858
SWIDTH 714 0
DWIDTH 12 0
BBX 12 24 0 -4
BITMAP
0c00
0c00
0c00
0c00
7700
c900
f600
1f00
0000
7e00
c300
c180
f180
6180
6180
6180
6180
e180
a180
e580
0980
3d80
6b80
3180
ENDCHAR
STARTCHAR 2e53
ENCODING 11859
SWIDTH 714 0
DWIDTH 12 0
BBX 12 24 0 -4
BITMAP
1c40
14c0
0d80
1f00
7700
c900
f600
1f00
0000
7e00
c300
c180
f180
6180
6180
6180
6180
e180
a180
e580
0980
3d80
6b80
3180
ENDCHAR
STARTCHAR 2e54
ENCODING 11860
SWIDTH 714 0
DWIDTH 12 0
BBX 12 24 0 -4
BITMAP
3640
6b40
6340
3780
7700
c900
f600
1f00
0000
7e00
c300
c180
f180
6180
6180
6180
6180
e180
a180
e580
0980
3d80
6b80
3180
ENDCHAR
STARTCHAR 2e55
ENCODING 11861
SWIDTH 714 0
DWIDTH 12 0
BBX 12 24 0 -4
BITMAP
0c00
1e00
1e00
0c00
7700
c900
f600
1f00
0000
7e00
c300
c180
f180
6180
6180
6180
6180
e180
a180
e580
0980
3d80
6b80
3180
ENDCHAR
STARTCHAR 2e58
ENCODING 11864
SWIDTH 714 0
DWIDTH 12 0
BBX 12 24 0 -4
BITMAP
0000
0000
0000
0000
4d80
ad80
9d80
0580
0000
7e00
c300
c180
f180
6180
6180
6180
6180
e180
a180
e580
0980
3d80
6b80
3180
ENDCHAR
STARTCHAR 2e5a
ENCODING 11866
SWIDTH 714 0
DWIDTH 12 0
BBX 12 24 0 -4
BITMAP
0c00
0c00
0c00
0c00
4d80
ad80
9d80
0580
0000
7e00
c300
c180
f180
6180
6180
6180
6180
e180
a180
e580
0980
3d80
6b80
3180
ENDCHAR
STARTCHAR 2e5b
ENCODING 11867
SWIDTH 714 0
DWIDTH 12 0
BBX 12 24 0 -4
BITMAP
1c40
14c0
0d80
1f00
4d80
ad80
9d80
0580
0000
7e00
c300
c180
f180
6180
6180
6180
6180
e180
a180
e580
0980
3d80
6b80
3180
ENDCHAR
STARTCHAR 2e5c
ENCODING 11868
SWIDTH 714 0
DWIDTH 12 0
BBX 12 24 0 -4
BITMAP
3640
6b40
6340
3780
4d80
ad80
9d80
0580
0000
7e00
c300
c180
f180
6180
6180
6180
6180
e180
a180
e580
0980
3d80
6b80
3180
ENDCHAR
STARTCHAR 2e5d
ENCODING 11869
SWIDTH 714 0
DWIDTH 12 0
BBX 12 24 0 -4
BITMAP
0c00
1e00
1e00
0c00
4d80
ad80
9d80
0580
0000
7e00
c300
c180
f180
6180
6180
6180
6180
e180
a180
e580
0980
3d80
6b80
3180
ENDCHAR
STARTCHAR 2e60
ENCODING 11872
SWIDTH 714 0
DWIDTH 12 0
BBX 12 24 0 -4
BITMAP
0000
0000
0000
0000
0000
0000
0000
0000
0000
7e00
c300
c180
f180
6180
6180
6180
6180
e180
a180
e580
0f00
1300
0f00
0300
ENDCHAR
STARTCHAR 2e62
ENCODING 11874
SWIDTH 714 0
DWIDTH 12 0
BBX 12 24 0 -4
BITMAP
0000
0000
0000
0000
0c00
0c00
0c00
0c00
0000
7e00
c300
c180
f180
6180
6180
6180
6180
e180
a180
e580
0f00
1300
0f00
0300
ENDCHAR
STARTCHAR 2e63
ENCODING 11875
SWIDTH 714 0
DWIDTH 12 0
BBX 12 24 0 -4
BITMAP
0000
0000
0000
0000
1c40
14c0
0d80
1f00
0000
7e00
c300
c180
f180
6180
6180
6180
6180
e180
a180
e580
0f00
1300
0f00
0300
ENDCHAR
STARTCHAR 2e64
ENCODING 11876
SWIDTH 714 0
DWIDTH 12 0
BBX 12 24 0 -4
BITMAP
0000
0000
0000
0000
3640
6b40
6340
3780
0000
7e00
c300
c180
f180
6180
6180
6180
6180
e180
a180
e580
0f00
1300
0f00
0300
ENDCHAR
STARTCHAR 2e65
ENCODING 11877
SWIDTH 714 0
DWIDTH 12 0
BBX 12 24 0 -4
BITMAP
0000
0000
0000
0000
0c00
1e00
1e00
0c00
0000
7e00
c300
c180
f180
6180
6180
6180
6180
e180
a180
e580
0f00
1300
0f00
0300
ENDCHAR
STARTCHAR 2e68
ENCODING 11880
SWIDTH 714 0
DWIDTH 12 0
BBX 12 24 0 -4
BITMAP
0000
0000
0000
0000
0000
0000
0000
0000
0000
7e00
c300
c180
f180
6180
6180
6180
6180
e180
a180
e580
3b00
2b00
3b00
0f00
ENDCHAR
STARTCHAR 2e6a
ENCODING 11882
SWIDTH 714 0
DWIDTH 12 0
BBX 12 24 0 -4
BITMAP
0000
0000
0000
0000
0c00
0c00
0c00
0c00
0000
7e00
c300
c180
f180
6180
6180
6180
6180
e180
a180
e580
3b00
2b00
3b00
0f00
ENDCHAR
STARTCHAR 2e6b
ENCODING 11883
SWIDTH 714 0
DWIDTH 12 0
BBX 12 24 0 -4
BITMAP
0000
0000
0000
0000
1c40
14c0
0d80
1f00
0000
7e00
c300
c180
f180
6180
6180
6180
6180
e180
a180
e580
3b00
2b00
3b00
0f00
ENDCHAR
STARTCHAR 2e6c
ENCODING 11884
SWIDTH 714 0
DWIDTH 12 0
BBX 12 24 0 -4
BITMAP
0000
0000
0000
0000
3640
6b40
6340
3780
0000
7e00
c300
c180
f180
6180
6180
6180
6180
e180
a180
e580
3b00
2b00
3b00
0f00
ENDCHAR
STARTCHAR 2e6d
ENCODING 11885
SWIDTH 714 0
DWIDTH 12 0
BBX 12 24 0 -4
BITMAP
0000
0000
0000
0000
0c00
1e00
1e00
0c00
0000
7e00
c300
c180
f180
6180
6180
6180
6180
e180
a180
e580
3b00
2b00
3b00
0f00
ENDCHAR
STARTCHAR 2e70
ENCODING 11888
SWIDTH 714 0
DWIDTH 12 0
BBX 12 24 0 -4
BITMAP
0000
0000
0000
0000
0000
0000
0000
0000
0000
7e00
c300
c180
f180
6180
6180
6180
6180
e180
a180
e580
0000
1800
1800
0000
ENDCHAR
STARTCHAR 2e78
ENCODING 11896
SWIDTH 714 0
DWIDTH 12 0
BBX 12 24 0 -4
BITMAP
0000
0000
0f00
1000
3800
4000
4200
3c00
0000
7e00
c300
c180
f180
6180
6180
6180
6180
e180
a180
e580
0980
3d80
6b80
3180
ENDCHAR
STARTCHAR 2f30
ENCODING 12080
SWIDTH 714 0
DWIDTH 12 0
BBX 12 24 0 -4
BITMAP
0000
0000
0000
0000
0000
0000
0000
0000
0000
7e00
c300
c180
f180
6180
6180
6180
6180
e180
a180
e980
1180
f580
ab80
d180
ENDCHAR
STARTCHAR 2f31
ENCODING 12081
SWIDTH 714 0
DWIDTH 12 0
BBX 12 24 0 -4
BITMAP
0000
0100
0300
6e00
d800
c600
db00
6e00
0000
7e00
c300
c180
f180
6180
6180
6180
6180
e180
a180
e980
1180
f580
ab80
d180
ENDCHAR
STARTCHAR 2f32
ENCODING 12082
SWIDTH 714 0
DWIDTH 12 0
BBX 12 24 0 -4
BITMAP
0000
0000
0000
0000
0c00
0c00
0c00
0c00
0000
7e00
c300
c180
f180
6180
6180
6180
6180
e180
a180
e980
1180
f580
ab80
d180
ENDCHAR
STARTCHAR 2f33
ENCODING 12083
SWIDTH 714 0
DWIDTH 12 0
BBX 12 24 0 -4
BITMAP
0000
0000
0000
0000
1c40
14c0
0d80
1f00
0000
7e00
c300
c180
f180
6180
6180
6180
6180
e180
a180
e980
1180
f580
ab80
d180
ENDCHAR
STARTCHAR 2f34
ENCODING 12084
SWIDTH 714 0
DWIDTH 12 0
BBX 12 24 0 -4
BITMAP
0000
0000
0000
0000
3640
6b40
6340
3780
0000
7e00
c300
c180
f180
6180
6180
6180
6180
e180
a180
e980
1180
f580
ab80
d180
ENDCHAR
STARTCHAR 2f35
ENCODING 12085
SWIDTH 714 0
DWIDTH 12 0
BBX 12 24 0 -4
BITMAP
0000
0000
0000
0000
0c00
1e00
1e00
0c00
0000
7e00
c300
c180
f180
6180
6180
6180
6180
e180
a180
e980
1180
f580
ab80
d180
ENDCHAR
STARTCHAR 2f36
ENCODING 12086
SWIDTH 714 0
DWIDTH 12 0
BBX 12 24 0 -4
BITMAP
0000
0000
0000
0000
0020
03c0
0500
0300
0000
7e00
c300
c180
f180
6180
6180
6180
6180
e180
a180
e980
1180
f580
ab80
d180
ENDCHAR
STARTCHAR 2f37
ENCODING 12087
SWIDTH 714 0
DWIDTH 12 0
BBX 12 24 0 -4
BITMAP
0000
0000
0000
0000
1800
2400
1800
0000
0000
7e00
c300
c180
f180
6180
6180
6180
6180
e180
a180
e980
1180
f580
ab80
d180
ENDCHAR
STARTCHAR 2f38
ENCODING 12088
SWIDTH 714 0
DWIDTH 12 0
BBX 12 24 0 -4
BITMAP
0000
0000
0000
0000
7080
d980
f300
7e00
0000
7e00
c300
c180
f180
6180
6180
6180
6180
e180
a180
e980
1180
f580
ab80
d180
ENDCHAR
STARTCHAR 2f3a
ENCODING 12090
SWIDTH 714 0
DWIDTH 12 0
BBX 12 24 0 -4
BITMAP
0c00
0c00
0c00
0c00
7080
d980
f300
7e00
0000
7e00
c300
c180
f180
6180
6180
6180
6180
e180
a180
e980
1180
f580
ab80
d180
ENDCHAR
STARTCHAR 2f3b
ENCODING 12091
SWIDTH 714 0
DWIDTH 12 0
BBX 12 24 0 -4
BITMAP
1c40
14c0
0d80
1f00
7080
d980
f300
7e00
0000
7e00
c300
c180
f180
6180
6180
6180
6180
e180
a180
e980
1180
f580
ab80
d180
ENDCHAR
STARTCHAR 2f3c
ENCODING 12092
SWIDTH 714 0
DWIDTH 12 0
BBX 12 24 0 -4
BITMAP
3640
6b40
6340
3780
7080
d980
f300
7e00
0000
7e00
c300
c180
f180
6180
6180
6180
6180
e180
a180
e980
1180
f580
ab80
d180
ENDCHAR
STARTCHAR 2f3d
ENCODING 12093
SWIDTH 714 0
DWIDTH 12 0
BBX 12 24 0 -4
BITMAP
0c00
1e00
1e00
0c00
7080
d980
f300
7e00
0000
7e00
c300
c180
f180
6180
6180
6180
6180
e180
a180
e980
1180
f580
ab80
d180
ENDCHAR
STARTCHAR 2f40
ENCODING 12096
SWIDTH 714 0
DWIDTH 12 0
BBX 12 24 0 -4
BITMAP
0000
0000
0000
0000
7c00
c200
fd00
0300
0000
7e00
c300
c180
f180
6180
6180
6180
6180
e180
a180
e980
1180
f580
ab80
d180
ENDCHAR
STARTCHAR 2f42
ENCODING 12098
SWIDTH 714 0
DWIDTH 12 0
BBX 12 24 0 -4
BITMAP
0c00
0c00
0c00
0c00
7c00
c200
fd00
0300
0000
7e00
c300
c180
f180
6180
6180
6180
6180
e180
a180
e980
1180
f580
ab80
d180
ENDCHAR
STARTCHAR 2f43
ENCODING 12099
SWIDTH 714 0
DWIDTH 12 0
BBX 12 24 0 -4
BITMAP
1c40
14c0
0d80
1f00
7c00
c200
fd00
0300
0000
7e00
c300
c180
f180
6180
6180
6180
6180
e180
a180
e980
1180
f580
ab80
d180
ENDCHAR
STARTCHAR 2f44
ENCODING 12100
SWIDTH 714 0
DWIDTH 12 0
BBX 12 24 0 -4
BITMAP
3640
6b40
6340
3780
7c00
c200
fd00
0300
0000
7e00
c300
c180
f180
6180
6180
6180
6180
e180
a180
e980
1180
f580
ab80
d180
ENDCHAR
STARTCHAR 2f45
ENCODING 12101
SWIDTH 714 0
DWIDTH 12 0
BBX 12 24 0 -4
BITMAP
0c00
1e00
1e00
0c00
7c00
c200
fd00
0300
0000
7e00
c300
c180
f180
6180
6180
6180
6180
e180
a180
e980
1180
f580
ab80
d180
ENDCHAR
STARTCHAR 2f48
ENCODING 12104
SWIDTH 714 0
DWIDTH 12 0
BBX 12 24 0 -4
BITMAP
0000
0000
0000
0000
7300
8b00
f700
0f00
0000
7e00
c300
c180
f180
6180
6180
6180
6180
e180
a180
e980
1180
f580
ab80
d180
ENDCHAR
STARTCHAR 2f4a
ENCODING 12106
SWIDTH 714 0
DWIDTH 12 0
BBX 12 24 0 -4
BITMAP
0c00
0c00
0c00
0c00
7300
8b00
f700
0f00
0000
7e00
c300
c180
f180
6180
6180
6180
6180
e180
a180
e980
1180
f580
ab80
d180
ENDCHAR
STARTCHAR 2f4b
ENCODING 12107
SWIDTH 714 0
DWIDTH 12 0
BBX 12 24 0 -4
BITMAP
1c40
14c0
0d80
1f00
7300
8b00
f700
0f00
0000
7e00
c300
c180
f180
6180
6180
6180
6180
e180
a180
e980
1180
f580
ab80
d180
ENDCHAR
STARTCHAR 2f4c
ENCODING 12108
SWIDTH 714 0
DWIDTH 12 0
BBX 12 24 0 -4
BITMAP
3640
6b40
6340
3780
7300
8b00
f700
0f00
0000
7e00
c300
c180
f180
6180
6180
6180
6180
e180
a180
e980
1180
f580
ab80
d180
ENDCHAR
STARTCHAR 2f4d
ENCODING 12109
SWIDTH 714 0
DWIDTH 12 0
BBX 12 24 0 -4
BITMAP
0c00
1e00
1e00
0c00
7300
8b00
f700
0f00
0000
7e00
c300
c180
f180
6180
6180
6180
6180
e180
a180
e980
1180
f580
ab80
d180
ENDCHAR
STARTCHAR 2f50
ENCODING 12112
SWIDTH 714 0
DWIDTH 12 0
BBX 12 24 0 -4
BITMAP
0000
0000
0000
0000
7700
c900
f600
1f00
0000
7e00
c300
c180
f180
6180
6180
6180
6180
e180
a180
e980
1180
f580
ab80
d180
ENDCHAR
STARTCHAR 2f52
ENCODING 12114
SWIDTH 714 0
DWIDTH 12 0
BBX 12 24 0 -4
BITMAP
0c00
0c00
0c00
0c00
7700
c900
f600
1f00
0000
7e00
c300
c180
f180
6180
6180
6180
6180
e180
a180
e980
1180
f580
ab80
d180
ENDCHAR
STARTCHAR 2f53
ENCODING 12115
SWIDTH 714 0
DWIDTH 12 0
BBX 12 24 0 -4
BITMAP
1c40
14c0
0d80
1f00
7700
c900
f600
1f00
0000
7e00
c300
c180
f180
6180
6180
6180
6180
e180
a180
e980
1180
f580
ab80
d180
ENDCHAR
STARTCHAR 2f54
ENCODING 12116
SWIDTH 714 0
DWIDTH 12 0
BBX 12 24 0 -4
BITMAP
3640
6b40
6340
3780
7700
c900
f600
1f00
0000
7e00
c300
c180
f180
6180
6180
6180
6180
e180
a180
e980
1180
f580
ab80
d180
ENDCHAR
STARTCHAR 2f55
ENCODING 12117
SWIDTH 714 0
DWIDTH 12 0
BBX 12 24 0 -4
BITMAP
0c00
1e00
1e00
0c00
7700
c900
f600
1f00
0000
7e00
c300
c180
f180
6180
6180
6180
6180
e180
a180
e980
1180
f580
ab80
d180
ENDCHAR
STARTCHAR 2f58
ENCODING 12120
SWIDTH 714 0
DWIDTH 12 0
BBX 12 24 0 -4
BITMAP
0000
0000
0000
0000
4d80
ad80
9d80
0580
0000
7e00
c300
c180
f180
6180
6180
6180
6180
e180
a180
e980
1180
f580
ab80
d180
ENDCHAR
STARTCHAR 2f5a
ENCODING 12122
SWIDTH 714 0
DWIDTH 12 0
BBX 12 24 0 -4
BITMAP
0c00
0c00
0c00
0c00
4d80
ad80
9d80
0580
0000
7e00
c300
c180
f180
6180
6180
6180
6180
e180
a180
e980
1180
f580
ab80
d180
ENDCHAR
STARTCHAR 2f5b
ENCODING 12123
SWIDTH 714 0
DWIDTH 12 0
BBX 12 24 0 -4
BITMAP
1c40
14c0
0d80
1f00
4d80
ad80
9d80
0580
0000
7e00
c300
c180
f180
6180
6180
6180
6180
e180
a180
e980
1180
f580
ab80
d180
ENDCHAR
STARTCHAR 2f5c
ENCODING 12124
SWIDTH 714 0
DWIDTH 12 0
BBX 12 24 0 -4
BITMAP
3640
6b40
6340
3780
4d80
ad80
9d80
0580
0000
7e00
c300
c180
f180
6180
6180
6180
6180
e180
a180
e980
1180
f580
ab80
d180
ENDCHAR
STARTCHAR 2f5d
ENCODING 12125
SWIDTH 714 0
DWIDTH 12 0
BBX 12 24 0 -4
BITMAP
0c00
1e00
1e00
0c00
4d80
ad80
9d80
0580
0000
7e00
c300
c180
f180
6180
6180
6180
6180
e180
a180
e980
1180
f580
ab80
d180
ENDCHAR
STARTCHAR 2f60
ENCODING 12128
SWIDTH 714 0
DWIDTH 12 0
BBX 12 24 0 -4
BITMAP
0000
0000
0000
0000
0000
0000
0000
0000
0000
7e00
c300
c180
f180
6180
6180
6180
6180
e180
a180
e980
0f00
1300
0f00
0300
ENDCHAR
STARTCHAR 2f62
ENCODING 12130
SWIDTH 714 0
DWIDTH 12 0
BBX 12 24 0 -4
BITMAP
0000
0000
0000
0000
0c00
0c00
0c00
0c00
0000
7e00
c300
c180
f180
6180
6180
6180
6180
e180
a180
e980
0f00
1300
0f00
0300
ENDCHAR
STARTCHAR 2f63
ENCODING 12131
SWIDTH 714 0
DWIDTH 12 0
BBX 12 24 0 -4
BITMAP
0000
0000
0000
0000
1c40
14c0
0d80
1f00
0000
7e00
c300
c180
f180
6180
6180
6180
6180
e180
a180
e980
0f00
1300
0f00
0300
ENDCHAR
STARTCHAR 2f64
ENCODING 12132
SWIDTH 714 0
DWIDTH 12 0
BBX 12 24 0 -4
BITMAP
0000
0000
0000
0000
3640
6b40
6340
3780
0000
7e00
c300
c180
f180
6180
6180
6180
6180
e180
a180
e980
0f00
1300
0f00
0300
ENDCHAR
STARTCHAR 2f65
ENCODING 12133
SWIDTH 714 0
DWIDTH 12 0
BBX 12 24 0 -4
BITMAP
0000
0000
0000
0000
0c00
1e00
1e00
0c00
0000
7e00
c300
c180
f180
6180
6180
6180
6180
e180
a180
e980
0f00
1300
0f00
0300
ENDCHAR
STARTCHAR 2f68
ENCODING 12136
SWIDTH 714 0
DWIDTH 12 0
BBX 12 24 0 -4
BITMAP
0000
0000
0000
0000
0000
0000
0000
0000
0000
7e00
c300
c180
f180
6180
6180
6180
6180
e180
a180
e980
3b00
2b00
3b00
0f00
ENDCHAR
STARTCHAR 2f6a
ENCODING 12138
SWIDTH 714 0
DWIDTH 12 0
BBX 12 24 0 -4
BITMAP
0000
0000
0000
0000
0c00
0c00
0c00
0c00
0000
7e00
c300
c180
f180
6180
6180
6180
6180
e180
a180
e980
3b00
2b00
3b00
0f00
ENDCHAR
STARTCHAR 2f6b
ENCODING 12139
SWIDTH 714 0
DWIDTH 12 0
BBX 12 24 0 -4
BITMAP
0000
0000
0000
0000
1c40
14c0
0d80
1f00
0000
7e00
c300
c180
f180
6180
6180
6180
6180
e180
a180
e980
3b00
2b00
3b00
0f00
ENDCHAR
STARTCHAR 2f6c
ENCODING 12140
SWIDTH 714 0
DWIDTH 12 0
BBX 12 24 0 -4
BITMAP
0000
0000
0000
0000
3640
6b40
6340
3780
0000
7e00
c300
c180
f180
6180
6180
6180
6180
e180
a180
e980
3b00
2b00
3b00
0f00
ENDCHAR
STARTCHAR 2f6d
ENCODING 12141
SWIDTH 714 0
DWIDTH 12 0
BBX 12 24 0 -4
BITMAP
0000
0000
0000
0000
0c00
1e00
1e00
0c00
0000
7e00
c300
c180
f180
6180
6180
6180
6180
e180
a180
e980
3b00
2b00
3b00
0f00
ENDCHAR
STARTCHAR 2f70
ENCODING 12144
SWIDTH 714 0
DWIDTH 12 0
BBX 12 24 0 -4
BITMAP
0000
0000
0000
0000
0000
0000
0000
0000
0000
7e00
c300
c180
f180
6180
6180
6180
6180
e180
a180
e980
0000
1800
1800
0000
ENDCHAR
STARTCHAR 2f78
ENCODING 12152
SWIDTH 714 0
DWIDTH 12 0
BBX 12 24 0 -4
BITMAP
0000
0000
0f00
1000
3800
4000
4200
3c00
0000
7e00
c300
c180
f180
6180
6180
6180
6180
e180
a180
e980
1180
f580
ab80
d180
ENDCHAR
STARTCHAR 3030
ENCODING 12336
SWIDTH 714 0
DWIDTH 12 0
BBX 12 24 0 -4
BITMAP
0000
0000
0000
0000
0000
0000
0000
0000
0080
7f80
c300
7c00
2200
5300
5b00
3b00
1b00
1b00
1b00
0e00
1300
6500
b500
6b00
ENDCHAR
STARTCHAR 3031
ENCODING 12337
SWIDTH 714 0
DWIDTH 12 0
BBX 12 24 0 -4
BITMAP
0000
0100
0300
6e00
d800
c600
db00
6e00
0080
7f80
c300
7c00
2200
5300
5b00
3b00
1b00
1b00
1b00
0e00
1300
6500
b500
6b00
ENDCHAR
STARTCHAR 3032
ENCODING 12338
SWIDTH 714 0
DWIDTH 12 0
BBX 12 24 0 -4
BITMAP
0000
0000
0000
0000
0c00
0c00
0c00
0c00
0080
7f80
c300
7c00
2200
5300
5b00
3b00
1b00
1b00
1b00
0e00
1300
6500
b500
6b00
ENDCHAR
STARTCHAR 3033
ENCODING 12339
SWIDTH 714 0
DWIDTH 12 0
BBX 12 24 0 -4
BITMAP
0000
0000
0000
0000
1c40
14c0
0d80
1f00
0080
7f80
c300
7c00
2200
5300
5b00
3b00
1b00
1b00
1b00
0e00
1300
6500
b500
6b00
ENDCHAR
STARTCHAR 3036
ENCODING 12342
SWIDTH 714 0
DWIDTH 12 0
BBX 12 24 0 -4
BITMAP
0000
0000
0000
0000
0020
03c0
0500
0300
0080
7f80
c300
7c00
2200
5300
5b00
3b00
1b00
1b00
1b00
0e00
1300
6500
b500
6b00
ENDCHAR
STARTCHAR 3037
ENCODING 12343
SWIDTH 714 0
DWIDTH 12 0
BBX 12 24 0 -4
BITMAP
0000
0000
0000
0000
1800
2400
1800
0000
0080
7f80
c300
7c00
2200
5300
5b00
3b00
1b00
1b00
1b00
0e00
1300
6500
b500
6b00
ENDCHAR
STARTCHAR 3038
ENCODING 12344
SWIDTH 714 0
DWIDTH 12 0
BBX 12 24 0 -4
BITMAP
0000
0000
0000
0000
7080
d980
f300
7e00
0080
7f80
c300
7c00
2200
5300
5b00
3b00
1b00
1b00
1b00
0e00
1300
6500
b500
6b00
ENDCHAR
STARTCHAR 303a
ENCODING 12346
SWIDTH 714 0
DWIDTH 12 0
BBX 12 24 0 -4
BITMAP
0c00
0c00
0c00
0c00
7080
d980
f300
7e00
0080
7f80
c300
7c00
2200
5300
5b00
3b00
1b00
1b00
1b00
0e00
1300
6500
b500
6b00
ENDCHAR
STARTCHAR 303b
ENCODING 12347
SWIDTH 714 0
DWIDTH 12 0
BBX 12 24 0 -4
BITMAP
1c40
14c0
0d80
1f00
7080
d980
f300
7e00
0080
7f80
c300
7c00
2200
5300
5b00
3b00
1b00
1b00
1b00
0e00
1300
6500
b500
6b00
ENDCHAR
STARTCHAR 3040
ENCODING 12352
SWIDTH 714 0
DWIDTH 12 0
BBX 12 24 0 -4
BITMAP
0000
0000
0000
0000
7c00
c200
fd00
0300
0080
7f80
c300
7c00
2200
5300
5b00
3b00
1b00
1b00
1b00
0e00
1300
6500
b500
6b00
ENDCHAR
STARTCHAR 3042
ENCODING 12354
SWIDTH 714 0
DWIDTH 12 0
BBX 12 24 0 -4
BITMAP
0c00
0c00
0c00
0c00
7c00
c200
fd00
0300
0080
7f80
c300
7c00
2200
5300
5b00
3b00
1b00
1b00
1b00
0e00
1300
6500
b500
6b00
ENDCHAR
STARTCHAR 3043
ENCODING 12355
SWIDTH 714 0
DWIDTH 12 0
BBX 12 24 0 -4
BITMAP
1c40
14c0
0d80
1f00
7c00
c200
fd00
0300
0080
7f80
c300
7c00
2200
5300
5b00
3b00
1b00
1b00
1b00
0e00
1300
6500
b500
6b00
ENDCHAR
STARTCHAR 3048
ENCODING 12360
SWIDTH 714 0
DWIDTH 12 0
BBX 12 24 0 -4
BITMAP
0000
0000
0000
0000
7300
8b00
f700
0f00
0080
7f80
c300
7c00
2200
5300
5b00
3b00
1b00
1b00
1b00
0e00
1300
6500
b500
6b00
ENDCHAR
STARTCHAR 304a
ENCODING 12362
SWIDTH 714 0
DWIDTH 12 0
BBX 12 24 0 -4
BITMAP
0c00
0c00
0c00
0c00
7300
8b00
f700
0f00
0080
7f80
c300
7c00
2200
5300
5b00
3b00
1b00
1b00
1b00
0e00
1300
6500
b500
6b00
ENDCHAR
STARTCHAR 304b
ENCODING 12363
SWIDTH 714 0
DWIDTH 12 0
BBX 12 24 0 -4
BITMAP
1c40
14c0
0d80
1f00
7300
8b00
f700
0f00
0080
7f80
c300
7c00
2200
5300
5b00
3b00
1b00
1b00
1b00
0e00
1300
6500
b500
6b00
ENDCHAR
STARTCHAR 3050
ENCODING 12368
SWIDTH 714 0
DWIDTH 12 0
BBX 12 24 0 -4
BITMAP
0000
0000
0000
0000
7700
c900
f600
1f00
0080
7f80
c300
7c00
2200
5300
5b00
3b00
1b00
1b00
1b00
0e00
1300
6500
b500
6b00
ENDCHAR
STARTCHAR 3052
ENCODING 12370
SWIDTH 714 0
DWIDTH 12 0
BBX 12 24 0 -4
BITMAP
0c00
0c00
0c00
0c00
7700
c900
f600
1f00
0080
7f80
c300
7c00
2200
5300
5b00
3b00
1b00
1b00
1b00
0e00
1300
6500
b500
6b00
ENDCHAR
STARTCHAR 3053
ENCODING 12371
SWIDTH 714 0
DWIDTH 12 0
BBX 12 24 0 -4
BITMAP
1c40
14c0
0d80
1f00
7700
c900
f600
1f00
0080
7f80
c300
7c00
2200
5300
5b00
3b00
1b00
1b00
1b00
0e00
1300
6500
b500
6b00
ENDCHAR
STARTCHAR 3058
ENCODING 12376
SWIDTH 714 0
DWIDTH 12 0
BBX 12 24 0 -4
BITMAP
0000
0000
0000
0000
4d80
ad80
9d80
0580
0080
7f80
c300
7c00
2200
5300
5b00
3b00
1b00
1b00
1b00
0e00
1300
6500
b500
6b00
ENDCHAR
STARTCHAR 305a
ENCODING 12378
SWIDTH 714 0
DWIDTH 12 0
BBX 12 24 0 -4
BITMAP
0c00
0c00
0c00
0c00
4d80
ad80
9d80
0580
0080
7f80
c300
7c00
2200
5300
5b00
3b00
1b00
1b00
1b00
0e00
1300
6500
b500
6b00
ENDCHAR
STARTCHAR 305b
ENCODING 12379
SWIDTH 714 0
DWIDTH 12 0
BBX 12 24 0 -4
BITMAP
1c40
14c0
0d80
1f00
4d80
ad80
9d80
0580
0080
7f80
c300
7c00
2200
5300
5b00
3b00
1b00
1b00
1b00
0e00
1300
6500
b500
6b00
ENDCHAR
STARTCHAR 3060
ENCODING 12384
SWIDTH 714 0
DWIDTH 12 0
BBX 12 24 0 -4
BITMAP
0000
0000
0000
0000
0000
0000
0000
0000
0080
7f80
c300
7c00
2200
5300
5b00
3b00
1b00
1b00
1b00
0e00
0f00
1300
0f00
0300
ENDCHAR
STARTCHAR 3062
ENCODING 12386
SWIDTH 714 0
DWIDTH 12 0
BBX 12 24 0 -4
BITMAP
0000
0000
0000
0000
0c00
0c00
0c00
0c00
0080
7f80
c300
7c00
2200
5300
5b00
3b00
1b00
1b00
1b00
0e00
0f00
1300
0f00
0300
ENDCHAR
STARTCHAR 3063
ENCODING 12387
SWIDTH 714 0
DWIDTH 12 0
BBX 12 24 0 -4
BITMAP
0000
0000
0000
0000
1c40
14c0
0d80
1f00
0080
7f80
c300
7c00
2200
5300
5b00
3b00
1b00
1b00
1b00
0e00
0f00
1300
0f00
0300
ENDCHAR
STARTCHAR 3068
ENCODING 12392
SWIDTH 714 0
DWIDTH 12 0
BBX 12 24 0 -4
BITMAP
0000
0000
0000
0000
0000
0000
0000
0000
0080
7f80
c300
7c00
2200
5300
5b00
3b00
1b00
1b00
1b00
0e00
3b00
2b00
3b00
0f00
ENDCHAR
STARTCHAR 306a
ENCODING 12394
SWIDTH 714 0
DWIDTH 12 0
BBX 12 24 0 -4
BITMAP
0000
0000
0000
0000
0c00
0c00
0c00
0c00
0080
7f80
c300
7c00
2200
5300
5b00
3b00
1b00
1b00
1b00
0e00
3b00
2b00
3b00
0f00
ENDCHAR
STARTCHAR 306b
ENCODING 12395
SWIDTH 714 0
DWIDTH 12 0
BBX 12 24 0 -4
BITMAP
0000
0000
0000
0000
1c40
14c0
0d80
1f00
0080
7f80
c300
7c00
2200
5300
5b00
3b00
1b00
1b00
1b00
0e00
3b00
2b00
3b00
0f00
ENDCHAR
STARTCHAR 3070
ENCODING 12400
SWIDTH 714 0
DWIDTH 12 0
BBX 12 24 0 -4
BITMAP
0000
0000
0000
0000
0000
0000
0000
0000
0080
7f80
c300
7c00
2200
5300
5b00
3b00
1b00
1b00
1b00
0e00
0000
1800
1800
0000
ENDCHAR
STARTCHAR 3078
ENCODING 12408
SWIDTH 714 0
DWIDTH 12 0
BBX 12 24 0 -4
BITMAP
0000
0000
0f00
1000
3800
4000
4200
3c00
0080
7f80
c300
7c00
2200
5300
5b00
3b00
1b00
1b00
1b00
0e00
1300
6500
b500
6b00
ENDCHAR
STARTCHAR 3130
ENCODING 12592
SWIDTH 714 0
DWIDTH 12 0
BBX 12 24 0 -4
BITMAP
0000
0000
0000
0000
0000
0000
0000
0000
0000
d980
aac0
8ac0
d2c0
14c0
18c0
18c0
18c0
18c0
18c0
10c0
0000
0000
0000
0000
ENDCHAR
STARTCHAR 3131
ENCODING 12593
SWIDTH 714 0
DWIDTH 12 0
BBX 12 24 0 -4
BITMAP
0000
0100
0300
6e00
d800
c600
db00
6e00
0000
d980
aac0
8ac0
d2c0
14c0
18c0
18c0
18c0
18c0
18c0
10c0
0000
0000
0000
0000
ENDCHAR
STARTCHAR 3132
ENCODING 12594
SWIDTH 714 0
DWIDTH 12 0
BBX 12 24 0 -4
BITMAP
0000
0000
0000
0000
0c00
0c00
0c00
0c00
0000
d980
aac0
8ac0
d2c0
14c0
18c0
18c0
18c0
18c0
18c0
10c0
0000
0000
0000
0000
ENDCHAR
STARTCHAR 3133
ENCODING 12595
SWIDTH 714 0
DWIDTH 12 0
BBX 12 24 0 -4
BITMAP
0000
0000
0000
0000
1c40
14c0
0d80
1f00
0000
d980
aac0
8ac0
d2c0
14c0
18c0
18c0
18c0
18c0
18c0
10c0
0000
0000
0000
0000
ENDCHAR
STARTCHAR 3134
ENCODING 12596
SWIDTH 714 0
DWIDTH 12 0
BBX 12 24 0 -4
BITMAP
0000
0000
0000
0000
3640
6b40
6340
3780
0000
d980
aac0
8ac0
d2c0
14c0
18c0
18c0
18c0
18c0
18c0
10c0
0000
0000
0000
0000
ENDCHAR
STARTCHAR 3136
ENCODING 12598
SWIDTH 714 0
DWIDTH 12 0
BBX 12 24 0 -4
BITMAP
0000
0000
0000
0000
0020
03c0
0500
0300
0000
d980
aac0
8ac0
d2c0
14c0
18c0
18c0
18c0
18c0
18c0
10c0
0000
0000
0000
0000
ENDCHAR
STARTCHAR 3137
ENCODING 12599
SWIDTH 714 0
DWIDTH 12 0
BBX 12 24 0 -4
BITMAP
0000
0000
0000
0000
1800
2400
1800
0000
0000
d980
aac0
8ac0
d2c0
14c0
18c0
18c0
18c0
18c0
18c0
10c0
0000
0000
0000
0000
ENDCHAR
STARTCHAR 3138
ENCODING 12600
SWIDTH 714 0
DWIDTH 12 0
BBX 12 24 0 -4
BITMAP
0000
0000
0000
0000
7080
d980
f300
7e00
0000
d980
aac0
8ac0
d2c0
14c0
18c0
18c0
18c0
18c0
18c0
10c0
0000
0000
0000
0000
ENDCHAR
STARTCHAR 313a
ENCODING 12602
SWIDTH 714 0
DWIDTH 12 0
BBX 12 24 0 -4
BITMAP
0c00
0c00
0c00
0c00
7080
d980
f300
7e00
0000
d980
aac0
8ac0
d2c0
14c0
18c0
18c0
18c0
18c0
18c0
10c0
0000
0000
0000
0000
ENDCHAR
STARTCHAR 313b
ENCODING 12603
SWIDTH 714 0
DWIDTH 12 0
BBX 12 24 0 -4
BITMAP
1c40
14c0
0d80
1f00
7080
d980
f300
7e00
0000
d980
aac0
8ac0
d2c0
14c0
18c0
18c0
18c0
18c0
18c0
10c0
0000
0000
0000
0000
ENDCHAR
STARTCHAR 313c
ENCODING 12604
SWIDTH 714 0
DWIDTH 12 0
BBX 12 24 0 -4
BITMAP
3640
6b40
6340
3780
7080
d980
f300
7e00
0000
d980
aac0
8ac0
d2c0
14c0
18c0
18c0
18c0
18c0
18c0
10c0
0000
0000
0000
0000
ENDCHAR
STARTCHAR 3140
ENCODING 12608
SWIDTH 714 0
DWIDTH 12 0
BBX 12 24 0 -4
BITMAP
0000
0000
0000
0000
7c00
c200
fd00
0300
0000
d980
aac0
8ac0
d2c0
14c0
18c0
18c0
18c0
18c0
18c0
10c0
0000
0000
0000
0000
ENDCHAR
STARTCHAR 3142
ENCODING 12610
SWIDTH 714 0
DWIDTH 12 0
BBX 12 24 0 -4
BITMAP
0c00
0c00
0c00
0c00
7c00
c200
fd00
0300
0000
d980
aac0
8ac0
d2c0
14c0
18c0
18c0
18c0
18c0
18c0
10c0
0000
0000
0000
0000
ENDCHAR
STARTCHAR 3143
ENCODING 12611
SWIDTH 714 0
DWIDTH 12 0
BBX 12 24 0 -4
BITMAP
1c40
14c0
0d80
1f00
7c00
c200
fd00
0300
0000
d980
aac0
8ac0
d2c0
14c0
18c0
18c0
18c0
18c0
18c0
10c0
0000
0000
0000
0000
ENDCHAR
STARTCHAR 3144
ENCODING 12612
SWIDTH 714 0
DWIDTH 12 0
BBX 12 24 0 -4
BITMAP
3640
6b40
6340
3780
7c00
c200
fd00
0300
0000
d980
aac0
8ac0
d2c0
14c0
18c0
18c0
18c0
18c0
18c0
10c0
0000
0000
0000
0000
ENDCHAR
STARTCHAR 3148
ENCODING 12616
SWIDTH 714 0
DWIDTH 12 0
BBX 12 24 0 -4
BITMAP
0000
0000
0000
0000
7300
8b00
f700
0f00
0000
d980
aac0
8ac0
d2c0
14c0
18c0
18c0
18c0
18c0
18c0
10c0
0000
0000
0000
0000
ENDCHAR
STARTCHAR 314a
ENCODING 12618
SWIDTH 714 0
DWIDTH 12 0
BBX 12 24 0 -4
BITMAP
0c00
0c00
0c00
0c00
7300
8b00
f700
0f00
0000
d980
aac0
8ac0
d2c0
14c0
18c0
18c0
18c0
18c0
18c0
10c0
0000
0000
0000
0000
ENDCHAR
STARTCHAR 314b
ENCODING 12619
SWIDTH 714 0
DWIDTH 12 0
BBX 12 24 0 -4
BITMAP
1c40
14c0
0d80
1f00
7300
8b00
f700
0f00
0000
d980
aac0
8ac0
d2c0
14c0
18c0
18c0
18c0
18c0
18c0
10c0
0000
0000
0000
0000
ENDCHAR
STARTCHAR 314c
ENCODING 12620
SWIDTH 714 0
DWIDTH 12 0
BBX 12 24 0 -4
BITMAP
3640
6b40
6340
3780
7300
8b00
f700
0f00
0000
d980
aac0
8ac0
d2c0
14c0
18c0
18c0
18c0
18c0
18c0
10c0
0000
0000
0000
0000
ENDCHAR
STARTCHAR 3150
ENCODING 12624
SWIDTH 714 0
DWIDTH 12 0
BBX 12 24 0 -4
BITMAP
0000
0000
0000
0000
7700
c900
f600
1f00
0000
d980
aac0
8ac0
d2c0
14c0
18c0
18c0
18c0
18c0
18c0
10c0
0000
0000
0000
0000
ENDCHAR
STARTCHAR 3152
ENCODING 12626
SWIDTH 714 0
DWIDTH 12 0
BBX 12 24 0 -4
BITMAP
0c00
0c00
0c00
0c00
7700
c900
f600
1f00
0000
d980
aac0
8ac0
d2c0
14c0
18c0
18c0
18c0
18c0
18c0
10c0
0000
0000
0000
0000
ENDCHAR
STARTCHAR 3153
ENCODING 12627
SWIDTH 714 0
DWIDTH 12 0
BBX 12 24 0 -4
BITMAP
1c40
14c0
0d80
1f00
7700
c900
f600
1f00
0000
d980
aac0
8ac0
d2c0
14c0
18c0
18c0
18c0
18c0
18c0
10c0
0000
0000
0000
0000
ENDCHAR
STARTCHAR 3154
ENCODING 12628
SWIDTH 714 0
DWIDTH 12 0
BBX 12 24 0 -4
BITMAP
3640
6b40
6340
3780
7700
c900
f600
1f00
0000
d980
aac0
8ac0
d2c0
14c0
18c0
18c0
18c0
18c0
18c0
10c0
0000
0000
0000
0000
ENDCHAR
STARTCHAR 3158
ENCODING 12632
SWIDTH 714 0
DWIDTH 12 0
BBX 12 24 0 -4
BITMAP
0000
0000
0000
0000
4d80
ad80
9d80
0580
0000
d980
aac0
8ac0
d2c0
14c0
18c0
18c0
18c0
18c0
18c0
10c0
0000
0000
0000
0000
ENDCHAR
STARTCHAR 315a
ENCODING 12634
SWIDTH 714 0
DWIDTH 12 0
BBX 12 24 0 -4
BITMAP
0c00
0c00
0c00
0c00
4d80
ad80
9d80
0580
0000
d980
aac0
8ac0
d2c0
14c0
18c0
18c0
18c0
18c0
18c0
10c0
0000
0000
0000
0000
ENDCHAR
STARTCHAR 315b
ENCODING 12635
SWIDTH 714 0
DWIDTH 12 0
BBX 12 24 0 -4
BITMAP
1c40
14c0
0d80
1f00
4d80
ad80
9d80
0580
0000
d980
aac0
8ac0
d2c0
14c0
18c0
18c0
18c0
18c0
18c0
10c0
0000
0000
0000
0000
ENDCHAR
STARTCHAR 315c
ENCODING 12636
SWIDTH 714 0
DWIDTH 12 0
BBX 12 24 0 -4
BITMAP
3640
6b40
6340
3780
4d80
ad80
9d80
0580
0000
d980
aac0
8ac0
d2c0
14c0
18c0
18c0
18c0
18c0
18c0
10c0
0000
0000
0000
0000
ENDCHAR
STARTCHAR 3160
ENCODING 12640
SWIDTH 714 0
DWIDTH 12 0
BBX 12 24 0 -4
BITMAP
0000
0000
0000
0000
0000
0000
0000
0000
0000
d980
aac0
8ac0
d2c0
14c0
18c0
18c0
18c0
18c0
18c0
10c0
0f00
1300
0f00
0300
ENDCHAR
STARTCHAR 3162
ENCODING 12642
SWIDTH 714 0
DWIDTH 12 0
BBX 12 24 0 -4
BITMAP
0000
0000
0000
0000
0c00
0c00
0c00
0c00
0000
d980
aac0
8ac0
d2c0
14c0
18c0
18c0
18c0
18c0
18c0
10c0
0f00
1300
0f00
0300
ENDCHAR
STARTCHAR 3163
ENCODING 12643
SWIDTH 714 0
DWIDTH 12 0
BBX 12 24 0 -4
BITMAP
0000
0000
0000
0000
1c40
14c0
0d80
1f00
0000
d980
aac0
8ac0
d2c0
14c0
18c0
18c0
18c0
18c0
18c0
10c0
0f00
1300
0f00
0300
ENDCHAR
STARTCHAR 3164
ENCODING 12644
SWIDTH 714 0
DWIDTH 12 0
BBX 12 24 0 -4
BITMAP
0000
0000
0000
0000
3640
6b40
6340
3780
0000
d980
aac0
8ac0
d2c0
14c0
18c0
18c0
18c0
18c0
18c0
10c0
0f00
1300
0f00
0300
ENDCHAR
STARTCHAR 3168
ENCODING 12648
SWIDTH 714 0
DWIDTH 12 0
BBX 12 24 0 -4
BITMAP
0000
0000
0000
0000
0000
0000
0000
0000
0000
d980
aac0
8ac0
d2c0
14c0
18c0
18c0
18c0
18c0
18c0
10c0
3b00
2b00
3b00
0f00
ENDCHAR
STARTCHAR 316a
ENCODING 12650
SWIDTH 714 0
DWIDTH 12 0
BBX 12 24 0 -4
BITMAP
0000
0000
0000
0000
0c00
0c00
0c00
0c00
0000
d980
aac0
8ac0
d2c0
14c0
18c0
18c0
18c0
18c0
18c0
10c0
3b00
2b00
3b00
0f00
ENDCHAR
STARTCHAR 316b
ENCODING 12651
SWIDTH 714 0
DWIDTH 12 0
BBX 12 24 0 -4
BITMAP
0000
0000
0000
0000
1c40
14c0
0d80
1f00
0000
d980
aac0
8ac0
d2c0
14c0
18c0
18c0
18c0
18c0
18c0
10c0
3b00
2b00
3b00
0f00
ENDCHAR
STARTCHAR 316c
ENCODING 12652
SWIDTH 714 0
DWIDTH 12 0
BBX 12 24 0 -4
BITMAP
0000
0000
0000
0000
3640
6b40
6340
3780
0000
d980
aac0
8ac0
d2c0
14c0
18c0
18c0
18c0
18c0
18c0
10c0
3b00
2b00
3b00
0f00
ENDCHAR
STARTCHAR 3170
ENCODING 12656
SWIDTH 714 0
DWIDTH 12 0
BBX 12 24 0 -4
BITMAP
0000
0000
0000
0000
0000
0000
0000
0000
0000
d980
aac0
8ac0
d2c0
14c0
18c0
18c0
18c0
18c0
18c0
10c0
0000
1800
1800
0000
ENDCHAR
STARTCHAR 3178
ENCODING 12664
SWIDTH 714 0
DWIDTH 12 0
BBX 12 24 0 -4
BITMAP
0000
0000
0f00
1000
3800
4000
4200
3c00
0000
d980
aac0
8ac0
d2c0
14c0
18c0
18c0
18c0
18c0
18c0
10c0
0000
0000
0000
0000
ENDCHAR
STARTCHAR 3230
ENCODING 12848
SWIDTH 714 0
DWIDTH 12 0
BBX 12 24 0 -4
BITMAP
0000
0000
0000
0000
0000
0000
0000
0000
0000
6630
db30
8330
bb30
ab30
bb30
d330
67b0
6b70
6b70
6620
0000
0000
0000
0000
ENDCHAR
STARTCHAR 3231
ENCODING 12849
SWIDTH 714 0
DWIDTH 12 0
BBX 12 24 0 -4
BITMAP
0000
0100
0300
6e00
d800
c600
db00
6e00
0000
6630
db30
8330
bb30
ab30
bb30
d330
67b0
6b70
6b70
6620
0000
0000
0000
0000
ENDCHAR
STARTCHAR 3232
ENCODING 12850
SWIDTH 714 0
DWIDTH 12 0
BBX 12 24 0 -4
BITMAP
0000
0000
0000
0000
0c00
0c00
0c00
0c00
0000
6630
db30
8330
bb30
ab30
bb30
d330
67b0
6b70
6b70
6620
0000
0000
0000
0000
ENDCHAR
STARTCHAR 3233
ENCODING 12851
SWIDTH 714 0
DWIDTH 12 0
BBX 12 24 0 -4
BITMAP
0000
0000
0000
0000
1c40
14c0
0d80
1f00
0000
6630
db30
8330
bb30
ab30
bb30
d330
67b0
6b70
6b70
6620
0000
0000
0000
0000
ENDCHAR
STARTCHAR 3234
ENCODING 12852
SWIDTH 714 0
DWIDTH 12 0
BBX 12 24 0 -4
BITMAP
0000
0000
0000
0000
3640
6b40
6340
3780
0000
6630
db30
8330
bb30
ab30
bb30
d330
67b0
6b70
6b70
6620
0000
0000
0000
0000
ENDCHAR
STARTCHAR 3236
ENCODING 12854
SWIDTH 714 0
DWIDTH 12 0
BBX 12 24 0 -4
BITMAP
0000
0000
0000
0000
0020
03c0
0500
0300
0000
6630
db30
8330
bb30
ab30
bb30
d330
67b0
6b70
6b70
6620
0000
0000
0000
0000
ENDCHAR
STARTCHAR 3237
ENCODING 12855
SWIDTH 714 0
DWIDTH 12 0
BBX 12 24 0 -4
BITMAP
0000
0000
0000
0000
1800
2400
1800
0000
0000
6630
db30
8330
bb30
ab30
bb30
d330
67b0
6b70
6b70
6620
0000
0000
0000
0000
ENDCHAR
STARTCHAR 3238
ENCODING 12856
SWIDTH 714 0
DWIDTH 12 0
BBX 12 24 0 -4
BITMAP
0000
0000
0000
0000
7080
d980
f300
7e00
0000
6630
db30
8330
bb30
ab30
bb30
d330
67b0
6b70
6b70
6620
0000
0000
0000
0000
ENDCHAR
STARTCHAR 323a
ENCODING 12858
SWIDTH 714 0
DWIDTH 12 0
BBX 12 24 0 -4
BITMAP
0c00
0c00
0c00
0c00
7080
d980
f300
7e00
0000
6630
db30
8330
bb30
ab30
bb30
d330
67b0
6b70
6b70
6620
0000
0000
0000
0000
ENDCHAR
STARTCHAR 323b
ENCODING 12859
SWIDTH 714 0
DWIDTH 12 0
BBX 12 24 0 -4
BITMAP
1c40
14c0
0d80
1f00
7080
d980
f300
7e00
0000
6630
db30
8330
bb30
ab30
bb30
d330
67b0
6b70
6b70
6620
0000
0000
0000
0000
ENDCHAR
STARTCHAR 323c
ENCODING 12860
SWIDTH 714 0
DWIDTH 12 0
BBX 12 24 0 -4
BITMAP
3640
6b40
6340
3780
7080
d980
f300
7e00
0000
6630
db30
8330
bb30
ab30
bb30
d330
67b0
6b70
6b70
6620
0000
0000
0000
0000
ENDCHAR
STARTCHAR 3240
ENCODING 12864
SWIDTH 714 0
DWIDTH 12 0
BBX 12 24 0 -4
BITMAP
0000
0000
0000
0000
7c00
c200
fd00
0300
0000
6630
db30
8330
bb30
ab30
bb30
d330
67b0
6b70
6b70
6620
0000
0000
0000
0000
ENDCHAR
STARTCHAR 3242
ENCODING 12866
SWIDTH 714 0
DWIDTH 12 0
BBX 12 24 0 -4
BITMAP
0c00
0c00
0c00
0c00
7c00
c200
fd00
0300
0000
6630
db30
8330
bb30
ab30
bb30
d330
67b0
6b70
6b70
6620
0000
0000
0000
0000
ENDCHAR
STARTCHAR 3243
ENCODING 12867
SWIDTH 714 0
DWIDTH 12 0
BBX 12 24 0 -4
BITMAP
1c40
14c0
0d80
1f00
7c00
c200
fd00
0300
0000
6630
db30
8330
bb30
ab30
bb30
d330
67b0
6b70
6b70
6620
0000
0000
0000
0000
ENDCHAR
STARTCHAR 3244
ENCODING 12868
SWIDTH 714 0
DWIDTH 12 0
BBX 12 24 0 -4
BITMAP
3640
6b40
6340
3780
7c00
c200
fd00
0300
0000
6630
db30
8330
bb30
ab30
bb30
d330
67b0
6b70
6b70
6620
0000
0000
0000
0000
ENDCHAR
STARTCHAR 3248
ENCODING 12872
SWIDTH 714 0
DWIDTH 12 0
BBX 12 24 0 -4
BITMAP
0000
0000
0000
0000
7300
8b00
f700
0f00
0000
6630
db30
8330
bb30
ab30
bb30
d330
67b0
6b70
6b70
6620
0000
0000
0000
0000
ENDCHAR
STARTCHAR 324a
ENCODING 12874
SWIDTH 714 0
DWIDTH 12 0
BBX 12 24 0 -4
BITMAP
0c00
0c00
0c00
0c00
7300
8b00
f700
0f00
0000
6630
db30
8330
bb30
ab30
bb30
d330
67b0
6b70
6b70
6620
0000
0000
0000
0000
ENDCHAR
STARTCHAR 324b
ENCODING 12875
SWIDTH 714 0
DWIDTH 12 0
BBX 12 24 0 -4
BITMAP
1c40
14c0
0d80
1f00
7300
8b00
f700
0f00
0000
6630
db30
8330
bb30
ab30
bb30
d330
67b0
6b70
6b70
6620
0000
0000
0000
0000
ENDCHAR
STARTCHAR 324c
ENCODING 12876
SWIDTH 714 0
DWIDTH 12 0
BBX 12 24 0 -4
BITMAP
3640
6b40
6340
3780
7300
8b00
f700
0f00
0000
6630
db30
8330
bb30
ab30
bb30
d330
67b0
6b70
6b70
6620
0000
0000
0000
0000
ENDCHAR
STARTCHAR 3250
ENCODING 12880
SWIDTH 714 0
DWIDTH 12 0
BBX 12 24 0 -4
BITMAP
0000
0000
0000
0000
7700
c900
f600
1f00
0000
6630
db30
8330
bb30
ab30
bb30
d330
67b0
6b70
6b70
6620
0000
0000
0000
0000
ENDCHAR
STARTCHAR 3252
ENCODING 12882
SWIDTH 714 0
DWIDTH 12 0
BBX 12 24 0 -4
BITMAP
0c00
0c00
0c00
0c00
7700
c900
f600
1f00
0000
6630
db30
8330
bb30
ab30
bb30
d330
67b0
6b70
6b70
6620
0000
0000
0000
0000
ENDCHAR
STARTCHAR 3253
ENCODING 12883
SWIDTH 714 0
DWIDTH 12 0
BBX 12 24 0 -4
BITMAP
1c40
14c0
0d80
1f00
7700
c900
f600
1f00
0000
6630
db30
8330
bb30
ab30
bb30
d330
67b0
6b70
6b70
6620
0000
0000
0000
0000
ENDCHAR
STARTCHAR 3254
ENCODING 12884
SWIDTH 714 0
DWIDTH 12 0
BBX 12 24 0 -4
BITMAP
3640
6b40
6340
3780
7700
c900
f600
1f00
0000
6630
db30
8330
bb30
ab30
bb30
d330
67b0
6b70
6b70
6620
0000
0000
0000
0000
ENDCHAR
STARTCHAR 3258
ENCODING 12888
SWIDTH 714 0
DWIDTH 12 0
BBX 12 24 0 -4
BITMAP
0000
0000
0000
0000
4d80
ad80
9d80
0580
0000
6630
db30
8330
bb30
ab30
bb30
d330
67b0
6b70
6b70
6620
0000
0000
0000
0000
ENDCHAR
STARTCHAR 325a
ENCODING 12890
SWIDTH 714 0
DWIDTH 12 0
BBX 12 24 0 -4
BITMAP
0c00
0c00
0c00
0c00
4d80
ad80
9d80
0580
0000
6630
db30
8330
bb30
ab30
bb30
d330
67b0
6b70
6b70
6620
0000
0000
0000
0000
ENDCHAR
STARTCHAR 325b
ENCODING 12891
SWIDTH 714 0
DWIDTH 12 0
BBX 12 24 0 -4
BITMAP
1c40
14c0
0d80
1f00
4d80
ad80
9d80
0580
0000
6630
db30
8330
bb30
ab30
bb30
d330
67b0
6b70
6b70
6620
0000
0000
0000
0000
ENDCHAR
STARTCHAR 325c
ENCODING 12892
SWIDTH 714 0
DWIDTH 12 0
BBX 12 24 0 -4
BITMAP
3640
6b40
6340
3780
4d80
ad80
9d80
0580
0000
6630
db30
8330
bb30
ab30
bb30
d330
67b0
6b70
6b70
6620
0000
0000
0000
0000
ENDCHAR
STARTCHAR 3260
ENCODING 12896
SWIDTH 714 0
DWIDTH 12 0
BBX 12 24 0 -4
BITMAP
0000
0000
0000
0000
0000
0000
0000
0000
0000
6630
db30
8330
bb30
ab30
bb30
d330
67b0
6b70
6b70
6620
0f00
1300
0f00
0300
ENDCHAR
STARTCHAR 3262
ENCODING 12898
SWIDTH 714 0
DWIDTH 12 0
BBX 12 24 0 -4
BITMAP
0000
0000
0000
0000
0c00
0c00
0c00
0c00
0000
6630
db30
8330
bb30
ab30
bb30
d330
67b0
6b70
6b70
6620
0f00
1300
0f00
0300
ENDCHAR
STARTCHAR 3263
ENCODING 12899
SWIDTH 714 0
DWIDTH 12 0
BBX 12 24 0 -4
BITMAP
0000
0000
0000
0000
1c40
14c0
0d80
1f00
0000
6630
db30
8330
bb30
ab30
bb30
d330
67b0
6b70
6b70
6620
0f00
1300
0f00
0300
ENDCHAR
STARTCHAR 3264
ENCODING 12900
SWIDTH 714 0
DWIDTH 12 0
BBX 12 24 0 -4
BITMAP
0000
0000
0000
0000
3640
6b40
6340
3780
0000
6630
db30
8330
bb30
ab30
bb30
d330
67b0
6b70
6b70
6620
0f00
1300
0f00
0300
ENDCHAR
STARTCHAR 3268
ENCODING 12904
SWIDTH 714 0
DWIDTH 12 0
BBX 12 24 0 -4
BITMAP
0000
0000
0000
0000
0000
0000
0000
0000
0000
6630
db30
8330
bb30
ab30
bb30
d330
67b0
6b70
6b70
6620
3b00
2b00
3b00
0f00
ENDCHAR
STARTCHAR 326a
ENCODING 12906
SWIDTH 714 0
DWIDTH 12 0
BBX 12 24 0 -4
BITMAP
0000
0000
0000
0000
0c00
0c00
0c00
0c00
0000
6630
db30
8330
bb30
ab30
bb30
d330
67b0
6b70
6b70
6620
3b00
2b00
3b00
0f00
ENDCHAR
STARTCHAR 326b
ENCODING 12907
SWIDTH 714 0
DWIDTH 12 0
BBX 12 24 0 -4
BITMAP
0000
0000
0000
0000
1c40
14c0
0d80
1f00
0000
6630
db30
8330
bb30
ab30
bb30
d330
67b0
6b70
6b70
6620
3b00
2b00
3b00
0f00
ENDCHAR
STARTCHAR 326c
ENCODING 12908
SWIDTH 714 0
DWIDTH 12 0
BBX 12 24 0 -4
BITMAP
0000
0000
0000
0000
3640
6b40
6340
3780
0000
6630
db30
8330
bb30
ab30
bb30
d330
67b0
6b70
6b70
6620
3b00
2b00
3b00
0f00
ENDCHAR
STARTCHAR 3270
ENCODING 12912
SWIDTH 714 0
DWIDTH 12 0
BBX 12 24 0 -4
BITMAP
0000
0000
0000
0000
0000
0000
0000
0000
0000
6630
db30
8330
bb30
ab30
bb30
d330
67b0
6b70
6b70
6620
0000
1800
1800
0000
ENDCHAR
STARTCHAR 3278
ENCODING 12920
SWIDTH 714 0
DWIDTH 12 0
BBX 12 24 0 -4
BITMAP
0000
0000
0f00
1000
3800
4000
4200
3c00
0000
6630
db30
8330
bb30
ab30
bb30
d330
67b0
6b70
6b70
6620
0000
0000
0000
0000
ENDCHAR
STARTCHAR 3330
ENCODING 13104
SWIDTH 714 0
DWIDTH 12 0
BBX 12 24 0 -4
BITMAP
0000
0000
0000
0000
0000
0000
0000
0000
0000
7c60
c660
8660
f660
6660
6660
6660
6660
77f0
5650
2460
0000
0000
0000
0000
ENDCHAR
STARTCHAR 3331
ENCODING 13105
SWIDTH 714 0
DWIDTH 12 0
BBX 12 24 0 -4
BITMAP
0000
0100
0300
6e00
d800
c600
db00
6e00
0000
7c60
c660
8660
f660
6660
6660
6660
6660
77f0
5650
2460
0000
0000
0000
0000
ENDCHAR
STARTCHAR 3332
ENCODING 13106
SWIDTH 714 0
DWIDTH 12 0
BBX 12 24 0 -4
BITMAP
0000
0000
0000
0000
0c00
0c00
0c00
0c00
0000
7c60
c660
8660
f660
6660
6660
6660
6660
77f0
5650
2460
0000
0000
0000
0000
ENDCHAR
STARTCHAR 3333
ENCODING 13107
SWIDTH 714 0
DWIDTH 12 0
BBX 12 24 0 -4
BITMAP
0000
0000
0000
0000
1c40
14c0
0d80
1f00
0000
7c60
c660
8660
f660
6660
6660
6660
6660
77f0
5650
2460
0000
0000
0000
0000
ENDCHAR
STARTCHAR 3334
ENCODING 13108
SWIDTH 714 0
DWIDTH 12 0
BBX 12 24 0 -4
BITMAP
0000
0000
0000
0000
3640
6b40
6340
3780
0000
7c60
c660
8660
f660
6660
6660
6660
6660
77f0
5650
2460
0000
0000
0000
0000
ENDCHAR
STARTCHAR 3335
ENCODING 13109
SWIDTH 714 0
DWIDTH 12 0
BBX 12 24 0 -4
BITMAP
0000
0000
0000
0000
0c00
1e00
1e00
0c00
0000
7c60
c660
8660
f660
6660
6660
6660
6660
77f0
5650
2460
0000
0000
0000
0000
ENDCHAR
STARTCHAR 3336
ENCODING 13110
SWIDTH 714 0
DWIDTH 12 0
BBX 12 24 0 -4
BITMAP
0000
0000
0000
0000
0020
03c0
0500
0300
0000
7c60
c660
8660
f660
6660
6660
6660
6660
77f0
5650
2460
0000
0000
0000
0000
ENDCHAR
STARTCHAR 3337
ENCODING 13111
SWIDTH 714 0
DWIDTH 12 0
BBX 12 24 0 -4
BITMAP
0000
0000
0000
0000
1800
2400
1800
0000
0000
7c60
c660
8660
f660
6660
6660
6660
6660
77f0
5650
2460
0000
0000
0000
0000
ENDCHAR
STARTCHAR 3338
ENCODING 13112
SWIDTH 714 0
DWIDTH 12 0
BBX 12 24 0 -4
BITMAP
0000
0000
0000
0000
7080
d980
f300
7e00
0000
7c60
c660
8660
f660
6660
6660
6660
6660
77f0
5650
2460
0000
0000
0000
0000
ENDCHAR
STARTCHAR 333a
ENCODING 13114
SWIDTH 714 0
DWIDTH 12 0
BBX 12 24 0 -4
BITMAP
0c00
0c00
0c00
0c00
7080
d980
f300
7e00
0000
7c60
c660
8660
f660
6660
6660
6660
6660
77f0
5650
2460
0000
0000
0000
0000
ENDCHAR
STARTCHAR 333b
ENCODING 13115
SWIDTH 714 0
DWIDTH 12 0
BBX 12 24 0 -4
BITMAP
1c40
14c0
0d80
1f00
7080
d980
f300
7e00
0000
7c60
c660
8660
f660
6660
6660
6660
6660
77f0
5650
2460
0000
0000
0000
0000
ENDCHAR
STARTCHAR 333c
ENCODING 13116
SWIDTH 714 0
DWIDTH 12 0
BBX 12 24 0 -4
BITMAP
3640
6b40
6340
3780
7080
d980
f300
7e00
0000
7c60
c660
8660
f660
6660
6660
6660
6660
77f0
5650
2460
0000
0000
0000
0000
ENDCHAR
STARTCHAR 333d
ENCODING 13117
SWIDTH 714 0
DWIDTH 12 0
BBX 12 24 0 -4
BITMAP
0c00
1e00
1e00
0c00
7080
d980
f300
7e00
0000
7c60
c660
8660
f660
6660
6660
6660
6660
77f0
5650
2460
0000
0000
0000
0000
ENDCHAR
STARTCHAR 3340
ENCODING 13120
SWIDTH 714 0
DWIDTH 12 0
BBX 12 24 0 -4
BITMAP
0000
0000
0000
0000
7c00
c200
fd00
0300
0000
7c60
c660
8660
f660
6660
6660
6660
6660
77f0
5650
2460
0000
0000
0000
0000
ENDCHAR
STARTCHAR 3342
ENCODING 13122
SWIDTH 714 0
DWIDTH 12 0
BBX 12 24 0 -4
BITMAP
0c00
0c00
0c00
0c00
7c00
c200
fd00
0300
0000
7c60
c660
8660
f660
6660
6660
6660
6660
77f0
5650
2460
0000
0000
0000
0000
ENDCHAR
STARTCHAR 3343
ENCODING 13123
SWIDTH 714 0
DWIDTH 12 0
BBX 12 24 0 -4
BITMAP
1c40
14c0
0d80
1f00
7c00
c200
fd00
0300
0000
7c60
c660
8660
f660
6660
6660
6660
6660
77f0
5650
2460
0000
0000
0000
0000
ENDCHAR
STARTCHAR 3344
ENCODING 13124
SWIDTH 714 0
DWIDTH 12 0
BBX 12 24 0 -4
BITMAP
3640
6b40
6340
3780
7c00
c200
fd00
0300
0000
7c60
c660
8660
f660
6660
6660
6660
6660
77f0
5650
2460
0000
0000
0000
0000
ENDCHAR
STARTCHAR 3345
ENCODING 13125
SWIDTH 714 0
DWIDTH 12 0
BBX 12 24 0 -4
BITMAP
0c00
1e00
1e00
0c00
7c00
c200
fd00
0300
0000
7c60
c660
8660
f660
6660
6660
6660
6660
77f0
5650
2460
0000
0000
0000
0000
ENDCHAR
STARTCHAR 3348
ENCODING 13128
SWIDTH 714 0
DWIDTH 12 0
BBX 12 24 0 -4
BITMAP
0000
0000
0000
0000
7300
8b00
f700
0f00
0000
7c60
c660
8660
f660
6660
6660
6660
6660
77f0
5650
2460
0000
0000
0000
0000
ENDCHAR
STARTCHAR 334a
ENCODING 13130
SWIDTH 714 0
DWIDTH 12 0
BBX 12 24 0 -4
BITMAP
0c00
0c00
0c00
0c00
7300
8b00
f700
0f00
0000
7c60
c660
8660
f660
6660
6660
6660
6660
77f0
5650
2460
0000
0000
0000
0000
ENDCHAR
STARTCHAR 334b
ENCODING 13131
SWIDTH 714 0
DWIDTH 12 0
BBX 12 24 0 -4
BITMAP
1c40
14c0
0d80
1f00
7300
8b00
f700
0f00
0000
7c60
c660
8660
f660
6660
6660
6660
6660
77f0
5650
2460
0000
0000
0000
0000
ENDCHAR
STARTCHAR 334c
ENCODING 13132
SWIDTH 714 0
DWIDTH 12 0
BBX 12 24 0 -4
BITMAP
3640
6b40
6340
3780
7300
8b00
f700
0f00
0000
7c60
c660
8660
f660
6660
6660
6660
6660
77f0
5650
2460
0000
0000
0000
0000
ENDCHAR
STARTCHAR 334d
ENCODING 13133
SWIDTH 714 0
DWIDTH 12 0
BBX 12 24 0 -4
BITMAP
0c00
1e00
1e00
0c00
7300
8b00
f700
0f00
0000
7c60
c660
8660
f660
6660
6660
6660
6660
77f0
5650
2460
0000
0000
0000
0000
ENDCHAR
STARTCHAR 3350
ENCODING 13136
SWIDTH 714 0
DWIDTH 12 0
BBX 12 24 0 -4
BITMAP
0000
0000
0000
0000
7700
c900
f600
1f00
0000
7c60
c660
8660
f660
6660
6660
6660
6660
77f0
5650
2460
0000
0000
0000
0000
ENDCHAR
STARTCHAR 3352
ENCODING 13138
SWIDTH 714 0
DWIDTH 12 0
BBX 12 24 0 -4
BITMAP
0c00
0c00
0c00
0c00
7700
c900
f600
1f00
0000
7c60
c660
8660
f660
6660
6660
6660
6660
77f0
5650
2460
0000
0000
0000
0000
ENDCHAR
STARTCHAR 3353
ENCODING 13139
SWIDTH 714 0
DWIDTH 12 0
BBX 12 24 0 -4
BITMAP
1c40
14c0
0d80
1f00
7700
c900
f600
1f00
0000
7c60
c660
8660
f660
6660
6660
6660
6660
77f0
5650
2460
0000
0000
0000
0000
ENDCHAR
STARTCHAR 3354
ENCODING 13140
SWIDTH 714 0
DWIDTH 12 0
BBX 12 24 0 -4
BITMAP
3640
6b40
6340
3780
7700
c900
f600
1f00
0000
7c60
c660
8660
f660
6660
6660
6660
6660
77f0
5650
2460
0000
0000
0000
0000
ENDCHAR
STARTCHAR 3355
ENCODING 13141
SWIDTH 714 0
DWIDTH 12 0
BBX 12 24 0 -4
BITMAP
0c00
1e00
1e00
0c00
7700
c900
f600
1f00
0000
7c60
c660
8660
f660
6660
6660
6660
6660
77f0
5650
2460
0000
0000
0000
0000
ENDCHAR
STARTCHAR 3358
ENCODING 13144
SWIDTH 714 0
DWIDTH 12 0
BBX 12 24 0 -4
BITMAP
0000
0000
0000
0000
4d80
ad80
9d80
0580
0000
7c60
c660
8660
f660
6660
6660
6660
6660
77f0
5650
2460
0000
0000
0000
0000
ENDCHAR
STARTCHAR 335a
ENCODING 13146
SWIDTH 714 0
DWIDTH 12 0
BBX 12 24 0 -4
BITMAP
0c00
0c00
0c00
0c00
4d80
ad80
9d80
0580
0000
7c60
c660
8660
f660
6660
6660
6660
6660
77f0
5650
2460
0000
0000
0000
0000
ENDCHAR
STARTCHAR 335b
ENCODING 13147
SWIDTH 714 0
DWIDTH 12 0
BBX 12 24 0 -4
BITMAP
1c40
14c0
0d80
1f00
4d80
ad80
9d80
0580
0000
7c60
c660
8660
f660
6660
6660
6660
6660
77f0
5650
2460
0000
0000
0000
0000
ENDCHAR
STARTCHAR 335c
ENCODING 13148
SWIDTH 714 0
DWIDTH 12 0
BBX 12 24 0 -4
BITMAP
3640
6b40
6340
3780
4d80
ad80
9d80
0580
0000
7c60
c660
8660
f660
6660
6660
6660
6660
77f0
5650
2460
0000
0000
0000
0000
ENDCHAR
STARTCHAR 335d
ENCODING 13149
SWIDTH 714 0
DWIDTH 12 0
BBX 12 24 0 -4
BITMAP
0c00
1e00
1e00
0c00
4d80
ad80
9d80
0580
0000
7c60
c660
8660
f660
6660
6660
6660
6660
77f0
5650
2460
0000
0000
0000
0000
ENDCHAR
STARTCHAR 3360
ENCODING 13152
SWIDTH 714 0
DWIDTH 12 0
BBX 12 24 0 -4
BITMAP
0000
0000
0000
0000
0000
0000
0000
0000
0000
7c60
c660
8660
f660
6660
6660
6660
6660
77f0
5650
2460
0f00
1300
0f00
0300
ENDCHAR
STARTCHAR 3362
ENCODING 13154
SWIDTH 714 0
DWIDTH 12 0
BBX 12 24 0 -4
BITMAP
0000
0000
0000
0000
0c00
0c00
0c00
0c00
0000
7c60
c660
8660
f660
6660
6660
6660
6660
77f0
5650
2460
0f00
1300
0f00
0300
ENDCHAR
STARTCHAR 3363
ENCODING 13155
SWIDTH 714 0
DWIDTH 12 0
BBX 12 24 0 -4
BITMAP
0000
0000
0000
0000
1c40
14c0
0d80
1f00
0000
7c60
c660
8660
f660
6660
6660
6660
6660
77f0
5650
2460
0f00
1300
0f00
0300
ENDCHAR
STARTCHAR 3364
ENCODING 13156
SWIDTH 714 0
DWIDTH 12 0
BBX 12 24 0 -4
BITMAP
0000
0000
0000
0000
3640
6b40
6340
3780
0000
7c60
c660
8660
f660
6660
6660
6660
6660
77f0
5650
2460
0f00
1300
0f00
0300
ENDCHAR
STARTCHAR 3365
ENCODING 13157
SWIDTH 714 0
DWIDTH 12 0
BBX 12 24 0 -4
BITMAP
0000
0000
0000
0000
0c00
1e00
1e00
0c00
0000
7c60
c660
8660
f660
6660
6660
6660
6660
77f0
5650
2460
0f00
1300
0f00
0300
ENDCHAR
STARTCHAR 3368
ENCODING 13160
SWIDTH 714 0
DWIDTH 12 0
BBX 12 24 0 -4
BITMAP
0000
0000
0000
0000
0000
0000
0000
0000
0000
7c60
c660
8660
f660
6660
6660
6660
6660
77f0
5650
2460
3b00
2b00
3b00
0f00
ENDCHAR
STARTCHAR 336a
ENCODING 13162
SWIDTH 714 0
DWIDTH 12 0
BBX 12 24 0 -4
BITMAP
0000
0000
0000
0000
0c00
0c00
0c00
0c00
0000
7c60
c660
8660
f660
6660
6660
6660
6660
77f0
5650
2460
3b00
2b00
3b00
0f00
ENDCHAR
STARTCHAR 336b
ENCODING 13163
SWIDTH 714 0
DWIDTH 12 0
BBX 12 24 0 -4
BITMAP
0000
0000
0000
0000
1c40
14c0
0d80
1f00
0000
7c60
c660
8660
f660
6660
6660
6660
6660
77f0
5650
2460
3b00
2b00
3b00
0f00
ENDCHAR
STARTCHAR 336c
ENCODING 13164
SWIDTH 714 0
DWIDTH 12 0
BBX 12 24 0 -4
BITMAP
0000
0000
0000
0000
3640
6b40
6340
3780
0000
7c60
c660
8660
f660
6660
6660
6660
6660
77f0
5650
2460
3b00
2b00
3b00
0f00
ENDCHAR
STARTCHAR 336d
ENCODING 13165
SWIDTH 714 0
DWIDTH 12 0
BBX 12 24 0 -4
BITMAP
0000
0000
0000
0000
0c00
1e00
1e00
0c00
0000
7c60
c660
8660
f660
6660
6660
6660
6660
77f0
5650
2460
3b00
2b00
3b00
0f00
ENDCHAR
STARTCHAR 3370
ENCODING 13168
SWIDTH 714 0
DWIDTH 12 0
BBX 12 24 0 -4
BITMAP
0000
0000
0000
0000
0000
0000
0000
0000
0000
7c60
c660
8660
f660
6660
6660
6660
6660
77f0
5650
2460
0000
1800
1800
0000
ENDCHAR
STARTCHAR 3378
ENCODING 13176
SWIDTH 714 0
DWIDTH 12 0
BBX 12 24 0 -4
BITMAP
0000
0000
0f00
1000
3800
4000
4200
3c00
0000
7c60
c660
8660
f660
6660
6660
6660
6660
77f0
5650
2460
0000
0000
0000
0000
ENDCHAR
STARTCHAR 3430
ENCODING 13360
SWIDTH 714 0
DWIDTH 12 0
BBX 12 24 0 -4
BITMAP
0000
0000
0000
0000
0000
0000
0000
0000
0000
3e00
4100
8180
9980
a580
9980
d980
5180
6180
6180
6180
0000
0000
0000
0000
ENDCHAR
STARTCHAR 3431
ENCODING 13361
SWIDTH 714 0
DWIDTH 12 0
BBX 12 24 0 -4
BITMAP
0000
0100
0300
6e00
d800
c600
db00
6e00
0000
3e00
4100
8180
9980
a580
9980
d980
5180
6180
6180
6180
0000
0000
0000
0000
ENDCHAR
STARTCHAR 3432
ENCODING 13362
SWIDTH 714 0
DWIDTH 12 0
BBX 12 24 0 -4
BITMAP
0000
0000
0000
0000
0c00
0c00
0c00
0c00
0000
3e00
4100
8180
9980
a580
9980
d980
5180
6180
6180
6180
0000
0000
0000
0000
ENDCHAR
STARTCHAR 3433
ENCODING 13363
SWIDTH 714 0
DWIDTH 12 0
BBX 12 24 0 -4
BITMAP
0000
0000
0000
0000
1c40
14c0
0d80
1f00
0000
3e00
4100
8180
9980
a580
9980
d980
5180
6180
6180
6180
0000
0000
0000
0000
ENDCHAR
STARTCHAR 3434
ENCODING 13364
SWIDTH 714 0
DWIDTH 12 0
BBX 12 24 0 -4
BITMAP
0000
0000
0000
0000
3640
6b40
6340
3780
0000
3e00
4100
8180
9980
a580
9980
d980
5180
6180
6180
6180
0000
0000
0000
0000
ENDCHAR
STARTCHAR 3435
ENCODING 13365
SWIDTH 714 0
DWIDTH 12 0
BBX 12 24 0 -4
BITMAP
0000
0000
0000
0000
0c00
1e00
1e00
0c00
0000
3e00
4100
8180
9980
a580
9980
d980
5180
6180
6180
6180
0000
0000
0000
0000
ENDCHAR
STARTCHAR 3436
ENCODING 13366
SWIDTH 714 0
DWIDTH 12 0
BBX 12 24 0 -4
BITMAP
0000
0000
0000
0000
0020
03c0
0500
0300
0000
3e00
4100
8180
9980
a580
9980
d980
5180
6180
6180
6180
0000
0000
0000
0000
ENDCHAR
STARTCHAR 3437
ENCODING 13367
SWIDTH 714 0
DWIDTH 12 0
BBX 12 24 0 -4
BITMAP
0000
0000
0000
0000
1800
2400
1800
0000
0000
3e00
4100
8180
9980
a580
9980
d980
5180
6180
6180
6180
0000
0000
0000
0000
ENDCHAR
STARTCHAR 3438
ENCODING 13368
SWIDTH 714 0
DWIDTH 12 0
BBX 12 24 0 -4
BITMAP
0000
0000
0000
0000
7080
d980
f300
7e00
0000
3e00
4100
8180
9980
a580
9980
d980
5180
6180
6180
6180
0000
0000
0000
0000
ENDCHAR
STARTCHAR 343a
ENCODING 13370
SWIDTH 714 0
DWIDTH 12 0
BBX 12 24 0 -4
BITMAP
0c00
0c00
0c00
0c00
7080
d980
f300
7e00
0000
3e00
4100
8180
9980
a580
9980
d980
5180
6180
6180
6180
0000
0000
0000
0000
ENDCHAR
STARTCHAR 343b
ENCODING 13371
SWIDTH 714 0
DWIDTH 12 0
BBX 12 24 0 -4
BITMAP
1c40
14c0
0d80
1f00
7080
d980
f300
7e00
0000
3e00
4100
8180
9980
a580
9980
d980
5180
6180
6180
6180
0000
0000
0000
0000
ENDCHAR
STARTCHAR 343c
ENCODING 13372
SWIDTH 714 0
DWIDTH 12 0
BBX 12 24 0 -4
BITMAP
3640
6b40
6340
3780
7080
d980
f300
7e00
0000
3e00
4100
8180
9980
a580
9980
d980
5180
6180
6180
6180
0000
0000
0000
0000
ENDCHAR
STARTCHAR 343d
ENCODING 13373
SWIDTH 714 0
DWIDTH 12 0
BBX 12 24 0 -4
BITMAP
0c00
1e00
1e00
0c00
7080
d980
f300
7e00
0000
3e00
4100
8180
9980
a580
9980
d980
5180
6180
6180
6180
0000
0000
0000
0000
ENDCHAR
STARTCHAR 3440
ENCODING 13376
SWIDTH 714 0
DWIDTH 12 0
BBX 12 24 0 -4
BITMAP
0000
0000
0000
0000
7c00
c200
fd00
0300
0000
3e00
4100
8180
9980
a580
9980
d980
5180
6180
6180
6180
0000
0000
0000
0000
ENDCHAR
STARTCHAR 3442
ENCODING 13378
SWIDTH 714 0
DWIDTH 12 0
BBX 12 24 0 -4
BITMAP
0c00
0c00
0c00
0c00
7c00
c200
fd00
0300
0000
3e00
4100
8180
9980
a580
9980
d980
5180
6180
6180
6180
0000
0000
0000
0000
ENDCHAR
STARTCHAR 3443
ENCODING 13379
SWIDTH 714 0
DWIDTH 12 0
BBX 12 24 0 -4
BITMAP
1c40
14c0
0d80
1f00
7c00
c200
fd00
0300
0000
3e00
4100
8180
9980
a580
9980
d980
5180
6180
6180
6180
0000
0000
0000
0000
ENDCHAR
STARTCHAR 3444
ENCODING 13380
SWIDTH 714 0
DWIDTH 12 0
BBX 12 24 0 -4
BITMAP
3640
6b40
6340
3780
7c00
c200
fd00
0300
0000
3e00
4100
8180
9980
a580
9980
d980
5180
6180
6180
6180
0000
0000
0000
0000
ENDCHAR
STARTCHAR 3445
ENCODING 13381
SWIDTH 714 0
DWIDTH 12 0
BBX 12 24 0 -4
BITMAP
0c00
1e00
1e00
0c00
7c00
c200
fd00
0300
0000
3e00
4100
8180
9980
a580
9980
d980
5180
6180
6180
6180
0000
0000
0000
0000
ENDCHAR
STARTCHAR 3446
ENCODING 13382
SWIDTH 714 0
DWIDTH 12 0
BBX 12 24 0 -4
BITMAP
0020
03c0
0500
0300
7c00
c200
fd00
0300
0000
3e00
4100
8180
9980
a580
9980
d980
5180
6180
6180
6180
0000
0000
0000
0000
ENDCHAR
STARTCHAR 3448
ENCODING 13384
SWIDTH 714 0
DWIDTH 12 0
BBX 12 24 0 -4
BITMAP
0000
0000
0000
0000
7300
8b00
f700
0f00
0000
3e00
4100
8180
9980
a580
9980
d980
5180
6180
6180
6180
0000
0000
0000
0000
ENDCHAR
STARTCHAR 344a
ENCODING 13386
SWIDTH 714 0
DWIDTH 12 0
BBX 12 24 0 -4
BITMAP
0c00
0c00
0c00
0c00
7300
8b00
f700
0f00
0000
3e00
4100
8180
9980
a580
9980
d980
5180
6180
6180
6180
0000
0000
0000
0000
ENDCHAR
STARTCHAR 344b
ENCODING 13387
SWIDTH 714 0
DWIDTH 12 0
BBX 12 24 0 -4
BITMAP
1c40
14c0
0d80
1f00
7300
8b00
f700
0f00
0000
3e00
4100
8180
9980
a580
9980
d980
5180
6180
6180
6180
0000
0000
0000
0000
ENDCHAR
STARTCHAR 344c
ENCODING 13388
SWIDTH 714 0
DWIDTH 12 0
BBX 12 24 0 -4
BITMAP
3640
6b40
6340
3780
7300
8b00
f700
0f00
0000
3e00
4100
8180
9980
a580
9980
d980
5180
6180
6180
6180
0000
0000
0000
0000
ENDCHAR
STARTCHAR 344d
ENCODING 13389
SWIDTH 714 0
DWIDTH 12 0
BBX 12 24 0 -4
BITMAP
0c00
1e00
1e00
0c00
7300
8b00
f700
0f00
0000
3e00
4100
8180
9980
a580
9980
d980
5180
6180
6180
6180
0000
0000
0000
0000
ENDCHAR
STARTCHAR 3450
ENCODING 13392
SWIDTH 714 0
DWIDTH 12 0
BBX 12 24 0 -4
BITMAP
0000
0000
0000
0000
7700
c900
f600
1f00
0000
3e00
4100
8180
9980
a580
9980
d980
5180
6180
6180
6180
0000
0000
0000
0000
ENDCHAR
STARTCHAR 3452
ENCODING 13394
SWIDTH 714 0
DWIDTH 12 0
BBX 12 24 0 -4
BITMAP
0c00
0c00
0c00
0c00
7700
c900
f600
1f00
0000
3e00
4100
8180
9980
a580
9980
d980
5180
6180
6180
6180
0000
0000
0000
0000
ENDCHAR
STARTCHAR 3453
ENCODING 13395
SWIDTH 714 0
DWIDTH 12 0
BBX 12 24 0 -4
BITMAP
1c40
14c0
0d80
1f00
7700
c900
f600
1f00
0000
3e00
4100
8180
9980
a580
9980
d980
5180
6180
6180
6180
0000
0000
0000
0000
ENDCHAR
STARTCHAR 3454
ENCODING 13396
SWIDTH 714 0
DWIDTH 12 0
BBX 12 24 0 -4
BITMAP
3640
6b40
6340
3780
7700
c900
f600
1f00
0000
3e00
4100
8180
9980
a580
9980
d980
5180
6180
6180
6180
0000
0000
0000
0000
ENDCHAR
STARTCHAR 3455
ENCODING 13397
SWIDTH 714 0
DWIDTH 12 0
BBX 12 24 0 -4
BITMAP
0c00
1e00
1e00
0c00
7700
c900
f600
1f00
0000
3e00
4100
8180
9980
a580
9980
d980
5180
6180
6180
6180
0000
0000
0000
0000
ENDCHAR
STARTCHAR 3458
ENCODING 13400
SWIDTH 714 0
DWIDTH 12 0
BBX 12 24 0 -4
BITMAP
0000
0000
0000
0000
4d80
ad80
9d80
0580
0000
3e00
4100
8180
9980
a580
9980
d980
5180
6180
6180
6180
0000
0000
0000
0000
ENDCHAR
STARTCHAR 345a
ENCODING 13402
SWIDTH 714 0
DWIDTH 12 0
BBX 12 24 0 -4
BITMAP
0c00
0c00
0c00
0c00
4d80
ad80
9d80
0580
0000
3e00
4100
8180
9980
a580
9980
d980
5180
6180
6180
6180
0000
0000
0000
0000
ENDCHAR
STARTCHAR 345b
ENCODING 13403
SWIDTH 714 0
DWIDTH 12 0
BBX 12 24 0 -4
BITMAP
1c40
14c0
0d80
1f00
4d80
ad80
9d80
0580
0000
3e00
4100
8180
9980
a580
9980
d980
5180
6180
6180
6180
0000
0000
0000
0000
ENDCHAR
STARTCHAR 345c
ENCODING 13404
SWIDTH 714 0
DWIDTH 12 0
BBX 12 24 0 -4
BITMAP
3640
6b40
6340
3780
4d80
ad80
9d80
0580
0000
3e00
4100
8180
9980
a580
9980
d980
5180
6180
6180
6180
0000
0000
0000
0000
ENDCHAR
STARTCHAR 345d
ENCODING 13405
SWIDTH 714 0
DWIDTH 12 0
BBX 12 24 0 -4
BITMAP
0c00
1e00
1e00
0c00
4d80
ad80
9d80
0580
0000
3e00
4100
8180
9980
a580
9980
d980
5180
6180
6180
6180
0000
0000
0000
0000
ENDCHAR
STARTCHAR 3460
ENCODING 13408
SWIDTH 714 0
DWIDTH 12 0
BBX 12 24 0 -4
BITMAP
0000
0000
0000
0000
0000
0000
0000
0000
0000
3e00
4100
8180
9980
a580
9980
d980
5180
6180
6180
6180
0f00
1300
0f00
0300
ENDCHAR
STARTCHAR 3462
ENCODING 13410
SWIDTH 714 0
DWIDTH 12 0
BBX 12 24 0 -4
BITMAP
0000
0000
0000
0000
0c00
0c00
0c00
0c00
0000
3e00
4100
8180
9980
a580
9980
d980
5180
6180
6180
6180
0f00
1300
0f00
0300
ENDCHAR
STARTCHAR 3463
ENCODING 13411
SWIDTH 714 0
DWIDTH 12 0
BBX 12 24 0 -4
BITMAP
0000
0000
0000
0000
1c40
14c0
0d80
1f00
0000
3e00
4100
8180
9980
a580
9980
d980
5180
6180
6180
6180
0f00
1300
0f00
0300
ENDCHAR
STARTCHAR 3464
ENCODING 13412
SWIDTH 714 0
DWIDTH 12 0
BBX 12 24 0 -4
BITMAP
0000
0000
0000
0000
3640
6b40
6340
3780
0000
3e00
4100
8180
9980
a580
9980
d980
5180
6180
6180
6180
0f00
1300
0f00
0300
ENDCHAR
STARTCHAR 3465
ENCODING 13413
SWIDTH 714 0
DWIDTH 12 0
BBX 12 24 0 -4
BITMAP
0000
0000
0000
0000
0c00
1e00
1e00
0c00
0000
3e00
4100
8180
9980
a580
9980
d980
5180
6180
6180
6180
0f00
1300
0f00
0300
ENDCHAR
STARTCHAR 3468
ENCODING 13416
SWIDTH 714 0
DWIDTH 12 0
BBX 12 24 0 -4
BITMAP
0000
0000
0000
0000
0000
0000
0000
0000
0000
3e00
4100
8180
9980
a580
9980
d980
5180
6180
6180
6180
3b00
2b00
3b00
0f00
ENDCHAR
STARTCHAR 346a
ENCODING 13418
SWIDTH 714 0
DWIDTH 12 0
BBX 12 24 0 -4
BITMAP
0000
0000
0000
0000
0c00
0c00
0c00
0c00
0000
3e00
4100
8180
9980
a580
9980
d980
5180
6180
6180
6180
3b00
2b00
3b00
0f00
ENDCHAR
STARTCHAR 346b
ENCODING 13419
SWIDTH 714 0
DWIDTH 12 0
BBX 12 24 0 -4
BITMAP
0000
0000
0000
0000
1c40
14c0
0d80
1f00
0000
3e00
4100
8180
9980
a580
9980
d980
5180
6180
6180
6180
3b00
2b00
3b00
0f00
ENDCHAR
STARTCHAR 346c
ENCODING 13420
SWIDTH 714 0
DWIDTH 12 0
BBX 12 24 0 -4
BITMAP
0000
0000
0000
0000
3640
6b40
6340
3780
0000
3e00
4100
8180
9980
a580
9980
d980
5180
6180
6180
6180
3b00
2b00
3b00
0f00
ENDCHAR
STARTCHAR 346d
ENCODING 13421
SWIDTH 714 0
DWIDTH 12 0
BBX 12 24 0 -4
BITMAP
0000
0000
0000
0000
0c00
1e00
1e00
0c00
0000
3e00
4100
8180
9980
a580
9980
d980
5180
6180
6180
6180
3b00
2b00
3b00
0f00
ENDCHAR
STARTCHAR 3470
ENCODING 13424
SWIDTH 714 0
DWIDTH 12 0
BBX 12 24 0 -4
BITMAP
0000
0000
0000
0000
0000
0000
0000
0000
0000
3e00
4100
8180
9980
a580
9980
d980
5180
6180
6180
6180
0000
1800
1800
0000
ENDCHAR
STARTCHAR 3478
ENCODING 13432
SWIDTH 714 0
DWIDTH 12 0
BBX 12 24 0 -4
BITMAP
0000
0000
0f00
1000
3800
4000
4200
3c00
0000
3e00
4100
8180
9980
a580
9980
d980
5180
6180
6180
6180
0000
0000
0000
0000
ENDCHAR
STARTCHAR 3530
ENCODING 13616
SWIDTH 714 0
DWIDTH 12 0
BBX 12 24 0 -4
BITMAP
0000
0000
0000
0000
0000
0000
0000
0000
0000
6600
db00
8180
9980
a580
9980
d980
5180
6180
6180
6180
0000
0000
0000
0000
ENDCHAR
STARTCHAR 3531
ENCODING 13617
SWIDTH 714 0
DWIDTH 12 0
BBX 12 24 0 -4
BITMAP
0000
0100
0300
6e00
d800
c600
db00
6e00
0000
6600
db00
8180
9980
a580
9980
d980
5180
6180
6180
6180
0000
0000
0000
0000
ENDCHAR
STARTCHAR 3532
ENCODING 13618
SWIDTH 714 0
DWIDTH 12 0
BBX 12 24 0 -4
BITMAP
0000
0000
0000
0000
0c00
0c00
0c00
0c00
0000
6600
db00
8180
9980
a580
9980
d980
5180
6180
6180
6180
0000
0000
0000
0000
ENDCHAR
STARTCHAR 3533
ENCODING 13619
SWIDTH 714 0
DWIDTH 12 0
BBX 12 24 0 -4
BITMAP
0000
0000
0000
0000
1c40
14c0
0d80
1f00
0000
6600
db00
8180
9980
a580
9980
d980
5180
6180
6180
6180
0000
0000
0000
0000
ENDCHAR
STARTCHAR 3534
ENCODING 13620
SWIDTH 714 0
DWIDTH 12 0
BBX 12 24 0 -4
BITMAP
0000
0000
0000
0000
3640
6b40
6340
3780
0000
6600
db00
8180
9980
a580
9980
d980
5180
6180
6180
6180
0000
0000
0000
0000
ENDCHAR
STARTCHAR 3535
ENCODING 13621
SWIDTH 714 0
DWIDTH 12 0
BBX 12 24 0 -4
BITMAP
0000
0000
0000
0000
0c00
1e00
1e00
0c00
0000
6600
db00
8180
9980
a580
9980
d980
5180
6180
6180
6180
0000
0000
0000
0000
ENDCHAR
STARTCHAR 3536
ENCODING 13622
SWIDTH 714 0
DWIDTH 12 0
BBX 12 24 0 -4
BITMAP
0000
0000
0000
0000
0020
03c0
0500
0300
0000
6600
db00
8180
9980
a580
9980
d980
5180
6180
6180
6180
0000
0000
0000
0000
ENDCHAR
STARTCHAR 3537
ENCODING 13623
SWIDTH 714 0
DWIDTH 12 0
BBX 12 24 0 -4
BITMAP
0000
0000
0000
0000
1800
2400
1800
0000
0000
6600
db00
8180
9980
a580
9980
d980
5180
6180
6180
6180
0000
0000
0000
0000
ENDCHAR
STARTCHAR 3538
ENCODING 13624
SWIDTH 714 0
DWIDTH 12 0
BBX 12 24 0 -4
BITMAP
0000
0000
0000
0000
7080
d980
f300
7e00
0000
6600
db00
8180
9980
a580
9980
d980
5180
6180
6180
6180
0000
0000
0000
0000
ENDCHAR
STARTCHAR 353a
ENCODING 13626
SWIDTH 714 0
DWIDTH 12 0
BBX 12 24 0 -4
BITMAP
0c00
0c00
0c00
0c00
7080
d980
f300
7e00
0000
6600
db00
8180
9980
a580
9980
d980
5180
6180
6180
6180
0000
0000
0000
0000
ENDCHAR
STARTCHAR 353b
ENCODING 13627
SWIDTH 714 0
DWIDTH 12 0
BBX 12 24 0 -4
BITMAP
1c40
14c0
0d80
1f00
7080
d980
f300
7e00
0000
6600
db00
8180
9980
a580
9980
d980
5180
6180
6180
6180
0000
0000
0000
0000
ENDCHAR
STARTCHAR 353c
ENCODING 13628
SWIDTH 714 0
DWIDTH 12 0
BBX 12 24 0 -4
BITMAP
3640
6b40
6340
3780
7080
d980
f300
7e00
0000
6600
db00
8180
9980
a580
9980
d980
5180
6180
6180
6180
0000
0000
0000
0000
ENDCHAR
STARTCHAR 353d
ENCODING 13629
SWIDTH 714 0
DWIDTH 12 0
BBX 12 24 0 -4
BITMAP
0c00
1e00
1e00
0c00
7080
d980
f300
7e00
0000
6600
db00
8180
9980
a580
9980
d980
5180
6180
6180
6180
0000
0000
0000
0000
ENDCHAR
STARTCHAR 3540
ENCODING 13632
SWIDTH 714 0
DWIDTH 12 0
BBX 12 24 0 -4
BITMAP
0000
0000
0000
0000
7c00
c200
fd00
0300
0000
6600
db00
8180
9980
a580
9980
d980
5180
6180
6180
6180
0000
0000
0000
0000
ENDCHAR
STARTCHAR 3542
ENCODING 13634
SWIDTH 714 0
DWIDTH 12 0
BBX 12 24 0 -4
BITMAP
0c00
0c00
0c00
0c00
7c00
c200
fd00
0300
0000
6600
db00
8180
9980
a580
9980
d980
5180
6180
6180
6180
0000
0000
0000
0000
ENDCHAR
STARTCHAR 3543
ENCODING 13635
SWIDTH 714 0
DWIDTH 12 0
BBX 12 24 0 -4
BITMAP
1c40
14c0
0d80
1f00
7c00
c200
fd00
0300
0000
6600
db00
8180
9980
a580
9980
d980
5180
6180
6180
6180
0000
0000
0000
0000
ENDCHAR
STARTCHAR 3544
ENCODING 13636
SWIDTH 714 0
DWIDTH 12 0
BBX 12 24 0 -4
BITMAP
3640
6b40
6340
3780
7c00
c200
fd00
0300
0000
6600
db00
8180
9980
a580
9980
d980
5180
6180
6180
6180
0000
0000
0000
0000
ENDCHAR
STARTCHAR 3545
ENCODING 13637
SWIDTH 714 0
DWIDTH 12 0
BBX 12 24 0 -4
BITMAP
0c00
1e00
1e00
0c00
7c00
c200
fd00
0300
0000
6600
db00
8180
9980
a580
9980
d980
5180
6180
6180
6180
0000
0000
0000
0000
ENDCHAR
STARTCHAR 3546
ENCODING 13638
SWIDTH 714 0
DWIDTH 12 0
BBX 12 24 0 -4
BITMAP
0020
03c0
0500
0300
7c00
c200
fd00
0300
0000
6600
db00
8180
9980
a580
9980
d980
5180
6180
6180
6180
0000
0000
0000
0000
ENDCHAR
STARTCHAR 3548
ENCODING 13640
SWIDTH 714 0
DWIDTH 12 0
BBX 12 24 0 -4
BITMAP
0000
0000
0000
0000
7300
8b00
f700
0f00
0000
6600
db00
8180
9980
a580
9980
d980
5180
6180
6180
6180
0000
0000
0000
0000
ENDCHAR
STARTCHAR 354a
ENCODING 13642
SWIDTH 714 0
DWIDTH 12 0
BBX 12 24 0 -4
BITMAP
0c00
0c00
0c00
0c00
7300
8b00
f700
0f00
0000
6600
db00
8180
9980
a580
9980
d980
5180
6180
6180
6180
0000
0000
0000
0000
ENDCHAR
STARTCHAR 354b
ENCODING 13643
SWIDTH 714 0
DWIDTH 12 0
BBX 12 24 0 -4
BITMAP
1c40
14c0
0d80
1f00
7300
8b00
f700
0f00
0000
6600
db00
8180
9980
a580
9980
d980
5180
6180
6180
6180
0000
0000
0000
0000
ENDCHAR
STARTCHAR 354c
ENCODING 13644
SWIDTH 714 0
DWIDTH 12 0
BBX 12 24 0 -4
BITMAP
3640
6b40
6340
3780
7300
8b00
f700
0f00
0000
6600
db00
8180
9980
a580
9980
d980
5180
6180
6180
6180
0000
0000
0000
0000
ENDCHAR
STARTCHAR 354d
ENCODING 13645
SWIDTH 714 0
DWIDTH 12 0
BBX 12 24 0 -4
BITMAP
0c00
1e00
1e00
0c00
7300
8b00
f700
0f00
0000
6600
db00
8180
9980
a580
9980
d980
5180
6180
6180
6180
0000
0000
0000
0000
ENDCHAR
STARTCHAR 3550
ENCODING 13648
SWIDTH 714 0
DWIDTH 12 0
BBX 12 24 0 -4
BITMAP
0000
0000
0000
0000
7700
c900
f600
1f00
0000
6600
db00
8180
9980
a580
9980
d980
5180
6180
6180
6180
0000
0000
0000
0000
ENDCHAR
STARTCHAR 3552
ENCODING 13650
SWIDTH 714 0
DWIDTH 12 0
BBX 12 24 0 -4
BITMAP
0c00
0c00
0c00
0c00
7700
c900
f600
1f00
0000
6600
db00
8180
9980
a580
9980
d980
5180
6180
6180
6180
0000
0000
0000
0000
ENDCHAR
STARTCHAR 3553
ENCODING 13651
SWIDTH 714 0
DWIDTH 12 0
BBX 12 24 0 -4
BITMAP
1c40
14c0
0d80
1f00
7700
c900
f600
1f00
0000
6600
db00
8180
9980
a580
9980
d980
5180
6180
6180
6180
0000
0000
0000
0000
ENDCHAR
STARTCHAR 3554
ENCODING 13652
SWIDTH 714 0
DWIDTH 12 0
BBX 12 24 0 -4
BITMAP
3640
6b40
6340
3780
7700
c900
f600
1f00
0000
6600
db00
8180
9980
a580
9980
d980
5180
6180
6180
6180
0000
0000
0000
0000
ENDCHAR
STARTCHAR 3555
ENCODING 13653
SWIDTH 714 0
DWIDTH 12 0
BBX 12 24 0 -4
BITMAP
0c00
1e00
1e00
0c00
7700
c900
f600
1f00
0000
6600
db00
8180
9980
a580
9980
d980
5180
6180
6180
6180
0000
0000
0000
0000
ENDCHAR
STARTCHAR 3558
ENCODING 13656
SWIDTH 714 0
DWIDTH 12 0
BBX 12 24 0 -4
BITMAP
0000
0000
0000
0000
4d80
ad80
9d80
0580
0000
6600
db00
8180
9980
a580
9980
d980
5180
6180
6180
6180
0000
0000
0000
0000
ENDCHAR
STARTCHAR 355a
ENCODING 13658
SWIDTH 714 0
DWIDTH 12 0
BBX 12 24 0 -4
BITMAP
0c00
0c00
0c00
0c00
4d80
ad80
9d80
0580
0000
6600
db00
8180
9980
a580
9980
d980
5180
6180
6180
6180
0000
0000
0000
0000
ENDCHAR
STARTCHAR 355b
ENCODING 13659
SWIDTH 714 0
DWIDTH 12 0
BBX 12 24 0 -4
BITMAP
1c40
14c0
0d80
1f00
4d80
ad80
9d80
0580
0000
6600
db00
8180
9980
a580
9980
d980
5180
6180
6180
6180
0000
0000
0000
0000
ENDCHAR
STARTCHAR 355c
ENCODING 13660
SWIDTH 714 0
DWIDTH 12 0
BBX 12 24 0 -4
BITMAP
3640
6b40
6340
3780
4d80
ad80
9d80
0580
0000
6600
db00
8180
9980
a580
9980
d980
5180
6180
6180
6180
0000
0000
0000
0000
ENDCHAR
STARTCHAR 355d
ENCODING 13661
SWIDTH 714 0
DWIDTH 12 0
BBX 12 24 0 -4
BITMAP
0c00
1e00
1e00
0c00
4d80
ad80
9d80
0580
0000
6600
db00
8180
9980
a580
9980
d980
5180
6180
6180
6180
0000
0000
0000
0000
ENDCHAR
STARTCHAR 3560
ENCODING 13664
SWIDTH 714 0
DWIDTH 12 0
BBX 12 24 0 -4
BITMAP
0000
0000
0000
0000
0000
0000
0000
0000
0000
6600
db00
8180
9980
a580
9980
d980
5180
6180
6180
6180
0f00
1300
0f00
0300
ENDCHAR
STARTCHAR 3562
ENCODING 13666
SWIDTH 714 0
DWIDTH 12 0
BBX 12 24 0 -4
BITMAP
0000
0000
0000
0000
0c00
0c00
0c00
0c00
0000
6600
db00
8180
9980
a580
9980
d980
5180
6180
6180
6180
0f00
1300
0f00
0300
ENDCHAR
STARTCHAR 3563
ENCODING 13667
SWIDTH 714 0
DWIDTH 12 0
BBX 12 24 0 -4
BITMAP
0000
0000
0000
0000
1c40
14c0
0d80
1f00
0000
6600
db00
8180
9980
a580
9980
d980
5180
6180
6180
6180
0f00
1300
0f00
0300
ENDCHAR
STARTCHAR 3564
ENCODING 13668
SWIDTH 714 0
DWIDTH 12 0
BBX 12 24 0 -4
BITMAP
0000
0000
0000
0000
3640
6b40
6340
3780
0000
6600
db00
8180
9980
a580
9980
d980
5180
6180
6180
6180
0f00
1300
0f00
0300
ENDCHAR
STARTCHAR 3565
ENCODING 13669
SWIDTH 714 0
DWIDTH 12 0
BBX 12 24 0 -4
BITMAP
0000
0000
0000
0000
0c00
1e00
1e00
0c00
0000
6600
db00
8180
9980
a580
9980
d980
5180
6180
6180
6180
0f00
1300
0f00
0300
ENDCHAR
STARTCHAR 3568
ENCODING 13672
SWIDTH 714 0
DWIDTH 12 0
BBX 12 24 0 -4
BITMAP
0000
0000
0000
0000
0000
0000
0000
0000
0000
6600
db00
8180
9980
a580
9980
d980
5180
6180
6180
6180
3b00
2b00
3b00
0f00
ENDCHAR
STARTCHAR 356a
ENCODING 13674
SWIDTH 714 0
DWIDTH 12 0
BBX 12 24 0 -4
BITMAP
0000
0000
0000
0000
0c00
0c00
0c00
0c00
0000
6600
db00
8180
9980
a580
9980
d980
5180
6180
6180
6180
3b00
2b00
3b00
0f00
ENDCHAR
STARTCHAR 356b
ENCODING 13675
SWIDTH 714 0
DWIDTH 12 0
BBX 12 24 0 -4
BITMAP
0000
0000
0000
0000
1c40
14c0
0d80
1f00
0000
6600
db00
8180
9980
a580
9980
d980
5180
6180
6180
6180
3b00
2b00
3b00
0f00
ENDCHAR
STARTCHAR 356c
ENCODING 13676
SWIDTH 714 0
DWIDTH 12 0
BBX 12 24 0 -4
BITMAP
0000
0000
0000
0000
3640
6b40
6340
3780
0000
6600
db00
8180
9980
a580
9980
d980
5180
6180
6180
6180
3b00
2b00
3b00
0f00
ENDCHAR
STARTCHAR 356d
ENCODING 13677
SWIDTH 714 0
DWIDTH 12 0
BBX 12 24 0 -4
BITMAP
0000
0000
0000
0000
0c00
1e00
1e00
0c00
0000
6600
db00
8180
9980
a580
9980
d980
5180
6180
6180
6180
3b00
2b00
3b00
0f00
ENDCHAR
STARTCHAR 3570
ENCODING 13680
SWIDTH 714 0
DWIDTH 12 0
BBX 12 24 0 -4
BITMAP
0000
0000
0000
0000
0000
0000
0000
0000
0000
6600
db00
8180
9980
a580
9980
d980
5180
6180
6180
6180
0000
1800
1800
0000
ENDCHAR
STARTCHAR 3578
ENCODING 13688
SWIDTH 714 0
DWIDTH 12 0
BBX 12 24 0 -4
BITMAP
0000
0000
0f00
1000
3800
4000
4200
3c00
0000
6600
db00
8180
9980
a580
9980
d980
5180
6180
6180
6180
0000
0000
0000
0000
ENDCHAR
STARTCHAR 3630
ENCODING 13872
SWIDTH 714 0
DWIDTH 12 0
BBX 12 24 0 -4
BITMAP
0000
0000
0000
0000
0000
0000
0000
0000
0000
7e00
c300
8180
f180
6180
6180
6180
6180
7980
6980
3980
0000
0000
0000
0000
ENDCHAR
STARTCHAR 3631
ENCODING 13873
SWIDTH 714 0
DWIDTH 12 0
BBX 12 24 0 -4
BITMAP
0000
0100
0300
6e00
d800
c600
db00
6e00
0000
7e00
c300
8180
f180
6180
6180
6180
6180
7980
6980
3980
0000
0000
0000
0000
ENDCHAR
STARTCHAR 3632
ENCODING 13874
SWIDTH 714 0
DWIDTH 12 0
BBX 12 24 0 -4
BITMAP
0000
0000
0000
0000
0c00
0c00
0c00
0c00
0000
7e00
c300
8180
f180
6180
6180
6180
6180
7980
6980
3980
0000
0000
0000
0000
ENDCHAR
STARTCHAR 3633
ENCODING 13875
SWIDTH 714 0
DWIDTH 12 0
BBX 12 24 0 -4
BITMAP
0000
0000
0000
0000
1c40
14c0
0d80
1f00
0000
7e00
c300
8180
f180
6180
6180
6180
6180
7980
6980
3980
0000
0000
0000
0000
ENDCHAR
STARTCHAR 3636
ENCODING 13878
SWIDTH 714 0
DWIDTH 12 0
BBX 12 24 0 -4
BITMAP
0000
0000
0000
0000
0020
03c0
0500
0300
0000
7e00
c300
8180
f180
6180
6180
6180
6180
7980
6980
3980
0000
0000
0000
0000
ENDCHAR
STARTCHAR 3637
ENCODING 13879
SWIDTH 714 0
DWIDTH 12 0
BBX 12 24 0 -4
BITMAP
0000
0000
0000
0000
1800
2400
1800
0000
0000
7e00
c300
8180
f180
6180
6180
6180
6180
7980
6980
3980
0000
0000
0000
0000
ENDCHAR
STARTCHAR 3638
ENCODING 13880
SWIDTH 714 0
DWIDTH 12 0
BBX 12 24 0 -4
BITMAP
0000
0000
0000
0000
7080
d980
f300
7e00
0000
7e00
c300
8180
f180
6180
6180
6180
6180
7980
6980
3980
0000
0000
0000
0000
ENDCHAR
STARTCHAR 363a
ENCODING 13882
SWIDTH 714 0
DWIDTH 12 0
BBX 12 24 0 -4
BITMAP
0c00
0c00
0c00
0c00
7080
d980
f300
7e00
0000
7e00
c300
8180
f180
6180
6180
6180
6180
7980
6980
3980
0000
0000
0000
0000
ENDCHAR
STARTCHAR 363b
ENCODING 13883
SWIDTH 714 0
DWIDTH 12 0
BBX 12 24 0 -4
BITMAP
1c40
14c0
0d80
1f00
7080
d980
f300
7e00
0000
7e00
c300
8180
f180
6180
6180
6180
6180
7980
6980
3980
0000
0000
0000
0000
ENDCHAR
STARTCHAR 3640
ENCODING 13888
SWIDTH 714 0
DWIDTH 12 0
BBX 12 24 0 -4
BITMAP
0000
0000
0000
0000
7c00
c200
fd00
0300
0000
7e00
c300
8180
f180
6180
6180
6180
6180
7980
6980
3980
0000
0000
0000
0000
ENDCHAR
STARTCHAR 3642
ENCODING 13890
SWIDTH 714 0
DWIDTH 12 0
BBX 12 24 0 -4
BITMAP
0c00
0c00
0c00
0c00
7c00
c200
fd00
0300
0000
7e00
c300
8180
f180
6180
6180
6180
6180
7980
6980
3980
0000
0000
0000
0000
ENDCHAR
STARTCHAR 3643
ENCODING 13891
SWIDTH 714 0
DWIDTH 12 0
BBX 12 24 0 -4
BITMAP
1c40
14c0
0d80
1f00
7c00
c200
fd00
0300
0000
7e00
c300
8180
f180
6180
6180
6180
6180
7980
6980
3980
0000
0000
0000
0000
ENDCHAR
STARTCHAR 3648
ENCODING 13896
SWIDTH 714 0
DWIDTH 12 0
BBX 12 24 0 -4
BITMAP
0000
0000
0000
0000
7300
8b00
f700
0f00
0000
7e00
c300
8180
f180
6180
6180
6180
6180
7980
6980
3980
0000
0000
0000
0000
ENDCHAR
STARTCHAR 364a
ENCODING 13898
SWIDTH 714 0
DWIDTH 12 0
BBX 12 24 0 -4
BITMAP
0c00
0c00
0c00
0c00
7300
8b00
f700
0f00
0000
7e00
c300
8180
f180
6180
6180
6180
6180
7980
6980
3980
0000
0000
0000
0000
ENDCHAR
STARTCHAR 364b
ENCODING 13899
SWIDTH 714 0
DWIDTH 12 0
BBX 12 24 0 -4
BITMAP
1c40
14c0
0d80
1f00
7300
8b00
f700
0f00
0000
7e00
c300
8180
f180
6180
6180
6180
6180
7980
6980
3980
0000
0000
0000
0000
ENDCHAR
STARTCHAR 3650
ENCODING 13904
SWIDTH 714 0
DWIDTH 12 0
BBX 12 24 0 -4
BITMAP
0000
0000
0000
0000
7700
c900
f600
1f00
0000
7e00
c300
8180
f180
6180
6180
6180
6180
7980
6980
3980
0000
0000
0000
0000
ENDCHAR
STARTCHAR 3652
ENCODING 13906
SWIDTH 714 0
DWIDTH 12 0
BBX 12 24 0 -4
BITMAP
0c00
0c00
0c00
0c00
7700
c900
f600
1f00
0000
7e00
c300
8180
f180
6180
6180
6180
6180
7980
6980
3980
0000
0000
0000
0000
ENDCHAR
STARTCHAR 3653
ENCODING 13907
SWIDTH 714 0
DWIDTH 12 0
BBX 12 24 0 -4
BITMAP
1c40
14c0
0d80
1f00
7700
c900
f600
1f00
0000
7e00
c300
8180
f180
6180
6180
6180
6180
7980
6980
3980
0000
0000
0000
0000
ENDCHAR
STARTCHAR 3658
ENCODING 13912
SWIDTH 714 0
DWIDTH 12 0
BBX 12 24 0 -4
BITMAP
0000
0000
0000
0000
4d80
ad80
9d80
0580
0000
7e00
c300
8180
f180
6180
6180
6180
6180
7980
6980
3980
0000
0000
0000
0000
ENDCHAR
STARTCHAR 365a
ENCODING 13914
SWIDTH 714 0
DWIDTH 12 0
BBX 12 24 0 -4
BITMAP
0c00
0c00
0c00
0c00
4d80
ad80
9d80
0580
0000
7e00
c300
8180
f180
6180
6180
6180
6180
7980
6980
3980
0000
0000
0000
0000
ENDCHAR
STARTCHAR 365b
ENCODING 13915
SWIDTH 714 0
DWIDTH 12 0
BBX 12 24 0 -4
BITMAP
1c40
14c0
0d80
1f00
4d80
ad80
9d80
0580
0000
7e00
c300
8180
f180
6180
6180
6180
6180
7980
6980
3980
0000
0000
0000
0000
ENDCHAR
STARTCHAR 3660
ENCODING 13920
SWIDTH 714 0
DWIDTH 12 0
BBX 12 24 0 -4
BITMAP
0000
0000
0000
0000
0000
0000
0000
0000
0000
7e00
c300
8180
f180
6180
6180
6180
6180
7980
6980
3980
0f00
1300
0f00
0300
ENDCHAR
STARTCHAR 3662
ENCODING 13922
SWIDTH 714 0
DWIDTH 12 0
BBX 12 24 0 -4
BITMAP
0000
0000
0000
0000
0c00
0c00
0c00
0c00
0000
7e00
c300
8180
f180
6180
6180
6180
6180
7980
6980
3980
0f00
1300
0f00
0300
ENDCHAR
STARTCHAR 3663
ENCODING 13923
SWIDTH 714 0
DWIDTH 12 0
BBX 12 24 0 -4
BITMAP
0000
0000
0000
0000
1c40
14c0
0d80
1f00
0000
7e00
c300
8180
f180
6180
6180
6180
6180
7980
6980
3980
0f00
1300
0f00
0300
ENDCHAR
STARTCHAR 3666
ENCODING 13926
SWIDTH 714 0
DWIDTH 12 0
BBX 12 24 0 -4
BITMAP
0000
0000
0000
0000
0020
03c0
0500
0300
0000
7e00
c300
8180
f180
6180
6180
6180
6180
7980
6980
3980
0f00
1300
0f00
0300
ENDCHAR
STARTCHAR 3668
ENCODING 13928
SWIDTH 714 0
DWIDTH 12 0
BBX 12 24 0 -4
BITMAP
0000
0000
0000
0000
0000
0000
0000
0000
0000
7e00
c300
8180
f180
6180
6180
6180
6180
7980
6980
3980
3b00
2b00
3b00
0f00
ENDCHAR
STARTCHAR 366a
ENCODING 13930
SWIDTH 714 0
DWIDTH 12 0
BBX 12 24 0 -4
BITMAP
0000
0000
0000
0000
0c00
0c00
0c00
0c00
0000
7e00
c300
8180
f180
6180
6180
6180
6180
7980
6980
3980
3b00
2b00
3b00
0f00
ENDCHAR
STARTCHAR 366b
ENCODING 13931
SWIDTH 714 0
DWIDTH 12 0
BBX 12 24 0 -4
BITMAP
0000
0000
0000
0000
1c40
14c0
0d80
1f00
0000
7e00
c300
8180
f180
6180
6180
6180
6180
7980
6980
3980
3b00
2b00
3b00
0f00
ENDCHAR
STARTCHAR 3670
ENCODING 13936
SWIDTH 714 0
DWIDTH 12 0
BBX 12 24 0 -4
BITMAP
0000
0000
0000
0000
0000
0000
0000
0000
0000
7e00
c300
8180
f180
6180
6180
6180
6180
7980
6980
3980
0000
1800
1800
0000
ENDCHAR
STARTCHAR 3678
ENCODING 13944
SWIDTH 714 0
DWIDTH 12 0
BBX 12 24 0 -4
BITMAP
0000
0000
0f00
1000
3800
4000
4200
3c00
0000
7e00
c300
8180
f180
6180
6180
6180
6180
7980
6980
3980
0000
0000
0000
0000
ENDCHAR
STARTCHAR 3730
ENCODING 14128
SWIDTH 714 0
DWIDTH 12 0
BBX 12 24 0 -4
BITMAP
0000
0000
0000
0000
0000
0000
0000
0000
0000
6080
b1c0
b2c0
72c0
34c0
34c0
38c0
38c0
30c0
30c0
30c0
0000
0000
0000
0000
ENDCHAR
STARTCHAR 3731
ENCODING 14129
SWIDTH 714 0
DWIDTH 12 0
BBX 12 24 0 -4
BITMAP
0000
0100
0300
6e00
d800
c600
db00
6e00
0000
6080
b1c0
b2c0
72c0
34c0
34c0
38c0
38c0
30c0
30c0
30c0
0000
0000
0000
0000
ENDCHAR
STARTCHAR 3732
ENCODING 14130
SWIDTH 714 0
DWIDTH 12 0
BBX 12 24 0 -4
BITMAP
0000
0000
0000
0000
0c00
0c00
0c00
0c00
0000
6080
b1c0
b2c0
72c0
34c0
34c0
38c0
38c0
30c0
30c0
30c0
0000
0000
0000
0000
ENDCHAR
STARTCHAR 3733
ENCODING 14131
SWIDTH 714 0
DWIDTH 12 0
BBX 12 24 0 -4
BITMAP
0000
0000
0000
0000
1c40
14c0
0d80
1f00
0000
6080
b1c0
b2c0
72c0
34c0
34c0
38c0
38c0
30c0
30c0
30c0
0000
0000
0000
0000
ENDCHAR
STARTCHAR 3734
ENCODING 14132
SWIDTH 714 0
DWIDTH 12 0
BBX 12 24 0 -4
BITMAP
0000
0000
0000
0000
3640
6b40
6340
3780
0000
6080
b1c0
b2c0
72c0
34c0
34c0
38c0
38c0
30c0
30c0
30c0
0000
0000
0000
0000
ENDCHAR
STARTCHAR 3736
ENCODING 14134
SWIDTH 714 0
DWIDTH 12 0
BBX 12 24 0 -4
BITMAP
0000
0000
0000
0000
0020
03c0
0500
0300
0000
6080
b1c0
b2c0
72c0
34c0
34c0
38c0
38c0
30c0
30c0
30c0
0000
0000
0000
0000
ENDCHAR
STARTCHAR 3737
ENCODING 14135
SWIDTH 714 0
DWIDTH 12 0
BBX 12 24 0 -4
BITMAP
0000
0000
0000
0000
1800
2400
1800
0000
0000
6080
b1c0
b2c0
72c0
34c0
34c0
38c0
38c0
30c0
30c0
30c0
0000
0000
0000
0000
ENDCHAR
STARTCHAR 3738
ENCODING 14136
SWIDTH 714 0
DWIDTH 12 0
BBX 12 24 0 -4
BITMAP
0000
0000
0000
0000
7080
d980
f300
7e00
0000
6080
b1c0
b2c0
72c0
34c0
34c0
38c0
38c0
30c0
30c0
30c0
0000
0000
0000
0000
ENDCHAR
STARTCHAR 373a
ENCODING 14138
SWIDTH 714 0
DWIDTH 12 0
BBX 12 24 0 -4
BITMAP
0c00
0c00
0c00
0c00
7080
d980
f300
7e00
0000
6080
b1c0
b2c0
72c0
34c0
34c0
38c0
38c0
30c0
30c0
30c0
0000
0000
0000
0000
ENDCHAR
STARTCHAR 373b
ENCODING 14139
SWIDTH 714 0
DWIDTH 12 0
BBX 12 24 0 -4
BITMAP
1c40
14c0
0d80
1f00
7080
d980
f300
7e00
0000
6080
b1c0
b2c0
72c0
34c0
34c0
38c0
38c0
30c0
30c0
30c0
0000
0000
0000
0000
ENDCHAR
STARTCHAR 373c
ENCODING 14140
SWIDTH 714 0
DWIDTH 12 0
BBX 12 24 0 -4
BITMAP
3640
6b40
6340
3780
7080
d980
f300
7e00
0000
6080
b1c0
b2c0
72c0
34c0
34c0
38c0
38c0
30c0
30c0
30c0
0000
0000
0000
0000
ENDCHAR
STARTCHAR 3740
ENCODING 14144
SWIDTH 714 0
DWIDTH 12 0
BBX 12 24 0 -4
BITMAP
0000
0000
0000
0000
7c00
c200
fd00
0300
0000
6080
b1c0
b2c0
72c0
34c0
34c0
38c0
38c0
30c0
30c0
30c0
0000
0000
0000
0000
ENDCHAR
STARTCHAR 3742
ENCODING 14146
SWIDTH 714 0
DWIDTH 12 0
BBX 12 24 0 -4
BITMAP
0c00
0c00
0c00
0c00
7c00
c200
fd00
0300
0000
6080
b1c0
b2c0
72c0
34c0
34c0
38c0
38c0
30c0
30c0
30c0
0000
0000
0000
0000
ENDCHAR
STARTCHAR 3743
ENCODING 14147
SWIDTH 714 0
DWIDTH 12 0
BBX 12 24 0 -4
BITMAP
1c40
14c0
0d80
1f00
7c00
c200
fd00
0300
0000
6080
b1c0
b2c0
72c0
34c0
34c0
38c0
38c0
30c0
30c0
30c0
0000
0000
0000
0000
ENDCHAR
STARTCHAR 3744
ENCODING 14148
SWIDTH 714 0
DWIDTH 12 0
BBX 12 24 0 -4
BITMAP
3640
6b40
6340
3780
7c00
c200
fd00
0300
0000
6080
b1c0
b2c0
72c0
34c0
34c0
38c0
38c0
30c0
30c0
30c0
0000
0000
0000
0000
ENDCHAR
STARTCHAR 3748
ENCODING 14152
SWIDTH 714 0
DWIDTH 12 0
BBX 12 24 0 -4
BITMAP
0000
0000
0000
0000
7300
8b00
f700
0f00
0000
6080
b1c0
b2c0
72c0
34c0
34c0
38c0
38c0
30c0
30c0
30c0
0000
0000
0000
0000
ENDCHAR
STARTCHAR 374a
ENCODING 14154
SWIDTH 714 0
DWIDTH 12 0
BBX 12 24 0 -4
BITMAP
0c00
0c00
0c00
0c00
7300
8b00
f700
0f00
0000
6080
b1c0
b2c0
72c0
34c0
34c0
38c0
38c0
30c0
30c0
30c0
0000
0000
0000
0000
ENDCHAR
STARTCHAR 374b
ENCODING 14155
SWIDTH 714 0
DWIDTH 12 0
BBX 12 24 0 -4
BITMAP
1c40
14c0
0d80
1f00
7300
8b00
f700
0f00
0000
6080
b1c0
b2c0
72c0
34c0
34c0
38c0
38c0
30c0
30c0
30c0
0000
0000
0000
0000
ENDCHAR
STARTCHAR 374c
ENCODING 14156
SWIDTH 714 0
DWIDTH 12 0
BBX 12 24 0 -4
BITMAP
3640
6b40
6340
3780
7300
8b00
f700
0f00
0000
6080
b1c0
b2c0
72c0
34c0
34c0
38c0
38c0
30c0
30c0
30c0
0000
0000
0000
0000
ENDCHAR
STARTCHAR 3750
ENCODING 14160
SWIDTH 714 0
DWIDTH 12 0
BBX 12 24 0 -4
BITMAP
0000
0000
0000
0000
7700
c900
f600
1f00
0000
6080
b1c0
b2c0
72c0
34c0
34c0
38c0
38c0
30c0
30c0
30c0
0000
0000
0000
0000
ENDCHAR
STARTCHAR 3752
ENCODING 14162
SWIDTH 714 0
DWIDTH 12 0
BBX 12 24 0 -4
BITMAP
0c00
0c00
0c00
0c00
7700
c900
f600
1f00
0000
6080
b1c0
b2c0
72c0
34c0
34c0
38c0
38c0
30c0
30c0
30c0
0000
0000
0000
0000
ENDCHAR
STARTCHAR 3753
ENCODING 14163
SWIDTH 714 0
DWIDTH 12 0
BBX 12 24 0 -4
BITMAP
1c40
14c0
0d80
1f00
7700
c900
f600
1f00
0000
6080
b1c0
b2c0
72c0
34c0
34c0
38c0
38c0
30c0
30c0
30c0
0000
0000
0000
0000
ENDCHAR
STARTCHAR 3754
ENCODING 14164
SWIDTH 714 0
DWIDTH 12 0
BBX 12 24 0 -4
BITMAP
3640
6b40
6340
3780
7700
c900
f600
1f00
0000
6080
b1c0
b2c0
72c0
34c0
34c0
38c0
38c0
30c0
30c0
30c0
0000
0000
0000
0000
ENDCHAR
STARTCHAR 3758
ENCODING 14168
SWIDTH 714 0
DWIDTH 12 0
BBX 12 24 0 -4
BITMAP
0000
0000
0000
0000
4d80
ad80
9d80
0580
0000
6080
b1c0
b2c0
72c0
34c0
34c0
38c0
38c0
30c0
30c0
30c0
0000
0000
0000
0000
ENDCHAR
STARTCHAR 375a
ENCODING 14170
SWIDTH 714 0
DWIDTH 12 0
BBX 12 24 0 -4
BITMAP
0c00
0c00
0c00
0c00
4d80
ad80
9d80
0580
0000
6080
b1c0
b2c0
72c0
34c0
34c0
38c0
38c0
30c0
30c0
30c0
0000
0000
0000
0000
ENDCHAR
STARTCHAR 375b
ENCODING 14171
SWIDTH 714 0
DWIDTH 12 0
BBX 12 24 0 -4
BITMAP
1c40
14c0
0d80
1f00
4d80
ad80
9d80
0580
0000
6080
b1c0
b2c0
72c0
34c0
34c0
38c0
38c0
30c0
30c0
30c0
0000
0000
0000
0000
ENDCHAR
STARTCHAR 375c
ENCODING 14172
SWIDTH 714 0
DWIDTH 12 0
BBX 12 24 0 -4
BITMAP
3640
6b40
6340
3780
4d80
ad80
9d80
0580
0000
6080
b1c0
b2c0
72c0
34c0
34c0
38c0
38c0
30c0
30c0
30c0
0000
0000
0000
0000
ENDCHAR
STARTCHAR 3760
ENCODING 14176
SWIDTH 714 0
DWIDTH 12 0
BBX 12 24 0 -4
BITMAP
0000
0000
0000
0000
0000
0000
0000
0000
0000
6080
b1c0
b2c0
72c0
34c0
34c0
38c0
38c0
30c0
30c0
30c0
0f00
1300
0f00
0300
ENDCHAR
STARTCHAR 3762
ENCODING 14178
SWIDTH 714 0
DWIDTH 12 0
BBX 12 24 0 -4
BITMAP
0000
0000
0000
0000
0c00
0c00
0c00
0c00
0000
6080
b1c0
b2c0
72c0
34c0
34c0
38c0
38c0
30c0
30c0
30c0
0f00
1300
0f00
0300
ENDCHAR
STARTCHAR 3763
ENCODING 14179
SWIDTH 714 0
DWIDTH 12 0
BBX 12 24 0 -4
BITMAP
0000
0000
0000
0000
1c40
14c0
0d80
1f00
0000
6080
b1c0
b2c0
72c0
34c0
34c0
38c0
38c0
30c0
30c0
30c0
0f00
1300
0f00
0300
ENDCHAR
STARTCHAR 3764
ENCODING 14180
SWIDTH 714 0
DWIDTH 12 0
BBX 12 24 0 -4
BITMAP
0000
0000
0000
0000
3640
6b40
6340
3780
0000
6080
b1c0
b2c0
72c0
34c0
34c0
38c0
38c0
30c0
30c0
30c0
0f00
1300
0f00
0300
ENDCHAR
STARTCHAR 3766
ENCODING 14182
SWIDTH 714 0
DWIDTH 12 0
BBX 12 24 0 -4
BITMAP
0000
0000
0000
0000
0020
03c0
0500
0300
0000
6080
b1c0
b2c0
72c0
34c0
34c0
38c0
38c0
30c0
30c0
30c0
0f00
1300
0f00
0300
ENDCHAR
STARTCHAR 3768
ENCODING 14184
SWIDTH 714 0
DWIDTH 12 0
BBX 12 24 0 -4
BITMAP
0000
0000
0000
0000
0000
0000
0000
0000
0000
6080
b1c0
b2c0
72c0
34c0
34c0
38c0
38c0
30c0
30c0
30c0
3b00
2b00
3b00
0f00
ENDCHAR
STARTCHAR 376a
ENCODING 14186
SWIDTH 714 0
DWIDTH 12 0
BBX 12 24 0 -4
BITMAP
0000
0000
0000
0000
0c00
0c00
0c00
0c00
0000
6080
b1c0
b2c0
72c0
34c0
34c0
38c0
38c0
30c0
30c0
30c0
3b00
2b00
3b00
0f00
ENDCHAR
STARTCHAR 376b
ENCODING 14187
SWIDTH 714 0
DWIDTH 12 0
BBX 12 24 0 -4
BITMAP
0000
0000
0000
0000
1c40
14c0
0d80
1f00
0000
6080
b1c0
b2c0
72c0
34c0
34c0
38c0
38c0
30c0
30c0
30c0
3b00
2b00
3b00
0f00
ENDCHAR
STARTCHAR 376c
ENCODING 14188
SWIDTH 714 0
DWIDTH 12 0
BBX 12 24 0 -4
BITMAP
0000
0000
0000
0000
3640
6b40
6340
3780
0000
6080
b1c0
b2c0
72c0
34c0
34c0
38c0
38c0
30c0
30c0
30c0
3b00
2b00
3b00
0f00
ENDCHAR
STARTCHAR 3770
ENCODING 14192
SWIDTH 714 0
DWIDTH 12 0
BBX 12 24 0 -4
BITMAP
0000
0000
0000
0000
0000
0000
0000
0000
0000
6080
b1c0
b2c0
72c0
34c0
34c0
38c0
38c0
30c0
30c0
30c0
0000
1800
1800
0000
ENDCHAR
STARTCHAR 3778
ENCODING 14200
SWIDTH 714 0
DWIDTH 12 0
BBX 12 24 0 -4
BITMAP
0000
0000
0f00
1000
3800
4000
4200
3c00
0000
6080
b1c0
b2c0
72c0
34c0
34c0
38c0
38c0
30c0
30c0
30c0
0000
0000
0000
0000
ENDCHAR
STARTCHAR 3830
ENCODING 14384
SWIDTH 714 0
DWIDTH 12 0
BBX 12 24 0 -4
BITMAP
0000
0000
0000
0000
0000
0000
0000
0000
0000
3f80
5f00
8000
7e00
3300
3300
3300
3300
3300
3300
7e00
0000
0000
0000
0000
ENDCHAR
STARTCHAR 3831
ENCODING 14385
SWIDTH 714 0
DWIDTH 12 0
BBX 12 24 0 -4
BITMAP
0000
0100
0300
6e00
d800
c600
db00
6e00
0000
3f80
5f00
8000
7e00
3300
3300
3300
3300
3300
3300
7e00
0000
0000
0000
0000
ENDCHAR
STARTCHAR 3832
ENCODING 14386
SWIDTH 714 0
DWIDTH 12 0
BBX 12 24 0 -4
BITMAP
0000
0000
0000
0000
0c00
0c00
0c00
0c00
0000
3f80
5f00
8000
7e00
3300
3300
3300
3300
3300
3300
7e00
0000
0000
0000
0000
ENDCHAR
STARTCHAR 3833
ENCODING 14387
SWIDTH 714 0
DWIDTH 12 0
BBX 12 24 0 -4
BITMAP
0000
0000
0000
0000
1c40
14c0
0d80
1f00
0000
3f80
5f00
8000
7e00
3300
3300
3300
3300
3300
3300
7e00
0000
0000
0000
0000
ENDCHAR
STARTCHAR 3834
ENCODING 14388
SWIDTH 714 0
DWIDTH 12 0
BBX 12 24 0 -4
BITMAP
0000
0000
0000
0000
3640
6b40
6340
3780
0000
3f80
5f00
8000
7e00
3300
3300
3300
3300
3300
3300
7e00
0000
0000
0000
0000
ENDCHAR
STARTCHAR 3836
ENCODING 14390
SWIDTH 714 0
DWIDTH 12 0
BBX 12 24 0 -4
BITMAP
0000
0000
0000
0000
0020
03c0
0500
0300
0000
3f80
5f00
8000
7e00
3300
3300
3300
3300
3300
3300
7e00
0000
0000
0000
0000
ENDCHAR
STARTCHAR 3837
ENCODING 14391
SWIDTH 714 0
DWIDTH 12 0
BBX 12 24 0 -4
BITMAP
0000
0000
0000
0000
1800
2400
1800
0000
0000
3f80
5f00
8000
7e00
3300
3300
3300
3300
3300
3300
7e00
0000
0000
0000
0000
ENDCHAR
STARTCHAR 3838
ENCODING 14392
SWIDTH 714 0
DWIDTH 12 0
BBX 12 24 0 -4
BITMAP
0000
0000
0000
0000
7080
d980
f300
7e00
0000
3f80
5f00
8000
7e00
3300
3300
3300
3300
3300
3300
7e00
0000
0000
0000
0000
ENDCHAR
STARTCHAR 383a
ENCODING 14394
SWIDTH 714 0
DWIDTH 12 0
BBX 12 24 0 -4
BITMAP
0c00
0c00
0c00
0c00
7080
d980
f300
7e00
0000
3f80
5f00
8000
7e00
3300
3300
3300
3300
3300
3300
7e00
0000
0000
0000
0000
ENDCHAR
STARTCHAR 383b
ENCODING 14395
SWIDTH 714 0
DWIDTH 12 0
BBX 12 24 0 -4
BITMAP
1c40
14c0
0d80
1f00
7080
d980
f300
7e00
0000
3f80
5f00
8000
7e00
3300
3300
3300
3300
3300
3300
7e00
0000
0000
0000
0000
ENDCHAR
STARTCHAR 383c
ENCODING 14396
SWIDTH 714 0
DWIDTH 12 0
BBX 12 24 0 -4
BITMAP
3640
6b40
6340
3780
7080
d980
f300
7e00
0000
3f80
5f00
8000
7e00
3300
3300
3300
3300
3300
3300
7e00
0000
0000
0000
0000
ENDCHAR
STARTCHAR 3840
ENCODING 14400
SWIDTH 714 0
DWIDTH 12 0
BBX 12 24 0 -4
BITMAP
0000
0000
0000
0000
7c00
c200
fd00
0300
0000
3f80
5f00
8000
7e00
3300
3300
3300
3300
3300
3300
7e00
0000
0000
0000
0000
ENDCHAR
STARTCHAR 3842
ENCODING 14402
SWIDTH 714 0
DWIDTH 12 0
BBX 12 24 0 -4
BITMAP
0c00
0c00
0c00
0c00
7c00
c200
fd00
0300
0000
3f80
5f00
8000
7e00
3300
3300
3300
3300
3300
3300
7e00
0000
0000
0000
0000
ENDCHAR
STARTCHAR 3843
ENCODING 14403
SWIDTH 714 0
DWIDTH 12 0
BBX 12 24 0 -4
BITMAP
1c40
14c0
0d80
1f00
7c00
c200
fd00
0300
0000
3f80
5f00
8000
7e00
3300
3300
3300
3300
3300
3300
7e00
0000
0000
0000
0000
ENDCHAR
STARTCHAR 3844
ENCODING 14404
SWIDTH 714 0
DWIDTH 12 0
BBX 12 24 0 -4
BITMAP
3640
6b40
6340
3780
7c00
c200
fd00
0300
0000
3f80
5f00
8000
7e00
3300
3300
3300
3300
3300
3300
7e00
0000
0000
0000
0000
ENDCHAR
STARTCHAR 3846
ENCODING 14406
SWIDTH 714 0
DWIDTH 12 0
BBX 12 24 0 -4
BITMAP
0020
03c0
0500
0300
7c00
c200
fd00
0300
0000
3f80
5f00
8000
7e00
3300
3300
3300
3300
3300
3300
7e00
0000
0000
0000
0000
ENDCHAR
STARTCHAR 3848
ENCODING 14408
SWIDTH 714 0
DWIDTH 12 0
BBX 12 24 0 -4
BITMAP
0000
0000
0000
0000
7300
8b00
f700
0f00
0000
3f80
5f00
8000
7e00
3300
3300
3300
3300
3300
3300
7e00
0000
0000
0000
0000
ENDCHAR
STARTCHAR 384a
ENCODING 14410
SWIDTH 714 0
DWIDTH 12 0
BBX 12 24 0 -4
BITMAP
0c00
0c00
0c00
0c00
7300
8b00
f700
0f00
0000
3f80
5f00
8000
7e00
3300
3300
3300
3300
3300
3300
7e00
0000
0000
0000
0000
ENDCHAR
STARTCHAR 384b
ENCODING 14411
SWIDTH 714 0
DWIDTH 12 0
BBX 12 24 0 -4
BITMAP
1c40
14c0
0d80
1f00
7300
8b00
f700
0f00
0000
3f80
5f00
8000
7e00
3300
3300
3300
3300
3300
3300
7e00
0000
0000
0000
0000
ENDCHAR
STARTCHAR 384c
ENCODING 14412
SWIDTH 714 0
DWIDTH 12 0
BBX 12 24 0 -4
BITMAP
3640
6b40
6340
3780
7300
8b00
f700
0f00
0000
3f80
5f00
8000
7e00
3300
3300
3300
3300
3300
3300
7e00
0000
0000
0000
0000
ENDCHAR
STARTCHAR 3850
ENCODING 14416
SWIDTH 714 0
DWIDTH 12 0
BBX 12 24 0 -4
BITMAP
0000
0000
0000
0000
7700
c900
f600
1f00
0000
3f80
5f00
8000
7e00
3300
3300
3300
3300
3300
3300
7e00
0000
0000
0000
0000
ENDCHAR
STARTCHAR 3852
ENCODING 14418
SWIDTH 714 0
DWIDTH 12 0
BBX 12 24 0 -4
BITMAP
0c00
0c00
0c00
0c00
7700
c900
f600
1f00
0000
3f80
5f00
8000
7e00
3300
3300
3300
3300
3300
3300
7e00
0000
0000
0000
0000
ENDCHAR
STARTCHAR 3853
ENCODING 14419
SWIDTH 714 0
DWIDTH 12 0
BBX 12 24 0 -4
BITMAP
1c40
14c0
0d80
1f00
7700
c900
f600
1f00
0000
3f80
5f00
8000
7e00
3300
3300
3300
3300
3300
3300
7e00
0000
0000
0000
0000
ENDCHAR
STARTCHAR 3854
ENCODING 14420
SWIDTH 714 0
DWIDTH 12 0
BBX 12 24 0 -4
BITMAP
3640
6b40
6340
3780
7700
c900
f600
1f00
0000
3f80
5f00
8000
7e00
3300
3300
3300
3300
3300
3300
7e00
0000
0000
0000
0000
ENDCHAR
STARTCHAR 3858
ENCODING 14424
SWIDTH 714 0
DWIDTH 12 0
BBX 12 24 0 -4
BITMAP
0000
0000
0000
0000
4d80
ad80
9d80
0580
0000
3f80
5f00
8000
7e00
3300
3300
3300
3300
3300
3300
7e00
0000
0000
0000
0000
ENDCHAR
STARTCHAR 385a
ENCODING 14426
SWIDTH 714 0
DWIDTH 12 0
BBX 12 24 0 -4
BITMAP
0c00
0c00
0c00
0c00
4d80
ad80
9d80
0580
0000
3f80
5f00
8000
7e00
3300
3300
3300
3300
3300
3300
7e00
0000
0000
0000
0000
ENDCHAR
STARTCHAR 385b
ENCODING 14427
SWIDTH 714 0
DWIDTH 12 0
BBX 12 24 0 -4
BITMAP
1c40
14c0
0d80
1f00
4d80
ad80
9d80
0580
0000
3f80
5f00
8000
7e00
3300
3300
3300
3300
3300
3300
7e00
0000
0000
0000
0000
ENDCHAR
STARTCHAR 385c
ENCODING 14428
SWIDTH 714 0
DWIDTH 12 0
BBX 12 24 0 -4
BITMAP
3640
6b40
6340
3780
4d80
ad80
9d80
0580
0000
3f80
5f00
8000
7e00
3300
3300
3300
3300
3300
3300
7e00
0000
0000
0000
0000
ENDCHAR
STARTCHAR 3860
ENCODING 14432
SWIDTH 714 0
DWIDTH 12 0
BBX 12 24 0 -4
BITMAP
0000
0000
0000
0000
0000
0000
0000
0000
0000
3f80
5f00
8000
7e00
3300
3300
3300
3300
3300
3300
7e00
0f00
1300
0f00
0300
ENDCHAR
STARTCHAR 3862
ENCODING 14434
SWIDTH 714 0
DWIDTH 12 0
BBX 12 24 0 -4
BITMAP
0000
0000
0000
0000
0c00
0c00
0c00
0c00
0000
3f80
5f00
8000
7e00
3300
3300
3300
3300
3300
3300
7e00
0f00
1300
0f00
0300
ENDCHAR
STARTCHAR 3863
ENCODING 14435
SWIDTH 714 0
DWIDTH 12 0
BBX 12 24 0 -4
BITMAP
0000
0000
0000
0000
1c40
14c0
0d80
1f00
0000
3f80
5f00
8000
7e00
3300
3300
3300
3300
3300
3300
7e00
0f00
1300
0f00
0300
ENDCHAR
STARTCHAR 3864
ENCODING 14436
SWIDTH 714 0
DWIDTH 12 0
BBX 12 24 0 -4
BITMAP
0000
0000
0000
0000
3640
6b40
6340
3780
0000
3f80
5f00
8000
7e00
3300
3300
3300
3300
3300
3300
7e00
0f00
1300
0f00
0300
ENDCHAR
STARTCHAR 3866
ENCODING 14438
SWIDTH 714 0
DWIDTH 12 0
BBX 12 24 0 -4
BITMAP
0000
0000
0000
0000
0020
03c0
0500
0300
0000
3f80
5f00
8000
7e00
3300
3300
3300
3300
3300
3300
7e00
0f00
1300
0f00
0300
ENDCHAR
STARTCHAR 3868
ENCODING 14440
SWIDTH 714 0
DWIDTH 12 0
BBX 12 24 0 -4
BITMAP
0000
0000
0000
0000
0000
0000
0000
0000
0000
3f80
5f00
8000
7e00
3300
3300
3300
3300
3300
3300
7e00
3b00
2b00
3b00
0f00
ENDCHAR
STARTCHAR 386a
ENCODING 14442
SWIDTH 714 0
DWIDTH 12 0
BBX 12 24 0 -4
BITMAP
0000
0000
0000
0000
0c00
0c00
0c00
0c00
0000
3f80
5f00
8000
7e00
3300
3300
3300
3300
3300
3300
7e00
3b00
2b00
3b00
0f00
ENDCHAR
STARTCHAR 386b
ENCODING 14443
SWIDTH 714 0
DWIDTH 12 0
BBX 12 24 0 -4
BITMAP
0000
0000
0000
0000
1c40
14c0
0d80
1f00
0000
3f80
5f00
8000
7e00
3300
3300
3300
3300
3300
3300
7e00
3b00
2b00
3b00
0f00
ENDCHAR
STARTCHAR 386c
ENCODING 14444
SWIDTH 714 0
DWIDTH 12 0
BBX 12 24 0 -4
BITMAP
0000
0000
0000
0000
3640
6b40
6340
3780
0000
3f80
5f00
8000
7e00
3300
3300
3300
3300
3300
3300
7e00
3b00
2b00
3b00
0f00
ENDCHAR
STARTCHAR 3870
ENCODING 14448
SWIDTH 714 0
DWIDTH 12 0
BBX 12 24 0 -4
BITMAP
0000
0000
0000
0000
0000
0000
0000
0000
0000
3f80
5f00
8000
7e00
3300
3300
3300
3300
3300
3300
7e00
0000
1800
1800
0000
ENDCHAR
STARTCHAR 3878
ENCODING 14456
SWIDTH 714 0
DWIDTH 12 0
BBX 12 24 0 -4
BITMAP
0000
0000
0f00
1000
3800
4000
4200
3c00
0000
3f80
5f00
8000
7e00
3300
3300
3300
3300
3300
3300
7e00
0000
0000
0000
0000
ENDCHAR
STARTCHAR 3930
ENCODING 14640
SWIDTH 714 0
DWIDTH 12 0
BBX 12 24 0 -4
BITMAP
0000
0000
0000
0000
0000
0000
0000
0000
0000
6180
b180
b180
7180
3180
3180
3180
33c0
35a0
39a0
31c0
0000
0000
0000
0000
ENDCHAR
STARTCHAR 3931
ENCODING 14641
SWIDTH 714 0
DWIDTH 12 0
BBX 12 24 0 -4
BITMAP
0000
0100
0300
6e00
d800
c600
db00
6e00
0000
6180
b180
b180
7180
3180
3180
3180
33c0
35a0
39a0
31c0
0000
0000
0000
0000
ENDCHAR
STARTCHAR 3932
ENCODING 14642
SWIDTH 714 0
DWIDTH 12 0
BBX 12 24 0 -4
BITMAP
0000
0000
0000
0000
0c00
0c00
0c00
0c00
0000
6180
b180
b180
7180
3180
3180
3180
33c0
35a0
39a0
31c0
0000
0000
0000
0000
ENDCHAR
STARTCHAR 3933
ENCODING 14643
SWIDTH 714 0
DWIDTH 12 0
BBX 12 24 0 -4
BITMAP
0000
0000
0000
0000
1c40
14c0
0d80
1f00
0000
6180
b180
b180
7180
3180
3180
3180
33c0
35a0
39a0
31c0
0000
0000
0000
0000
ENDCHAR
STARTCHAR 3934
ENCODING 14644
SWIDTH 714 0
DWIDTH 12 0
BBX 12 24 0 -4
BITMAP
0000
0000
0000
0000
3640
6b40
6340
3780
0000
6180
b180
b180
7180
3180
3180
3180
33c0
35a0
39a0
31c0
0000
0000
0000
0000
ENDCHAR
STARTCHAR 3935
ENCODING 14645
SWIDTH 714 0
DWIDTH 12 0
BBX 12 24 0 -4
BITMAP
0000
0000
0000
0000
0c00
1e00
1e00
0c00
0000
6180
b180
b180
7180
3180
3180
3180
33c0
35a0
39a0
31c0
0000
0000
0000
0000
ENDCHAR
STARTCHAR 3936
ENCODING 14646
SWIDTH 714 0
DWIDTH 12 0
BBX 12 24 0 -4
BITMAP
0000
0000
0000
0000
0020
03c0
0500
0300
0000
6180
b180
b180
7180
3180
3180
3180
33c0
35a0
39a0
31c0
0000
0000
0000
0000
ENDCHAR
STARTCHAR 3937
ENCODING 14647
SWIDTH 714 0
DWIDTH 12 0
BBX 12 24 0 -4
BITMAP
0000
0000
0000
0000
1800
2400
1800
0000
0000
6180
b180
b180
7180
3180
3180
3180
33c0
35a0
39a0
31c0
0000
0000
0000
0000
ENDCHAR
STARTCHAR 3938
ENCODING 14648
SWIDTH 714 0
DWIDTH 12 0
BBX 12 24 0 -4
BITMAP
0000
0000
0000
0000
7080
d980
f300
7e00
0000
6180
b180
b180
7180
3180
3180
3180
33c0
35a0
39a0
31c0
0000
0000
0000
0000
ENDCHAR
STARTCHAR 393a
ENCODING 14650
SWIDTH 714 0
DWIDTH 12 0
BBX 12 24 0 -4
BITMAP
0c00
0c00
0c00
0c00
7080
d980
f300
7e00
0000
6180
b180
b180
7180
3180
3180
3180
33c0
35a0
39a0
31c0
0000
0000
0000
0000
ENDCHAR
STARTCHAR 393b
ENCODING 14651
SWIDTH 714 0
DWIDTH 12 0
BBX 12 24 0 -4
BITMAP
1c40
14c0
0d80
1f00
7080
d980
f300
7e00
0000
6180
b180
b180
7180
3180
3180
3180
33c0
35a0
39a0
31c0
0000
0000
0000
0000
ENDCHAR
STARTCHAR 393c
ENCODING 14652
SWIDTH 714 0
DWIDTH 12 0
BBX 12 24 0 -4
BITMAP
3640
6b40
6340
3780
7080
d980
f300
7e00
0000
6180
b180
b180
7180
3180
3180
3180
33c0
35a0
39a0
31c0
0000
0000
0000
0000
ENDCHAR
STARTCHAR 393d
ENCODING 14653
SWIDTH 714 0
DWIDTH 12 0
BBX 12 24 0 -4
BITMAP
0c00
1e00
1e00
0c00
7080
d980
f300
7e00
0000
6180
b180
b180
7180
3180
3180
3180
33c0
35a0
39a0
31c0
0000
0000
0000
0000
ENDCHAR
STARTCHAR 3940
ENCODING 14656
SWIDTH 714 0
DWIDTH 12 0
BBX 12 24 0 -4
BITMAP
0000
0000
0000
0000
7c00
c200
fd00
0300
0000
6180
b180
b180
7180
3180
3180
3180
33c0
35a0
39a0
31c0
0000
0000
0000
0000
ENDCHAR
STARTCHAR 3942
ENCODING 14658
SWIDTH 714 0
DWIDTH 12 0
BBX 12 24 0 -4
BITMAP
0c00
0c00
0c00
0c00
7c00
c200
fd00
0300
0000
6180
b180
b180
7180
3180
3180
3180
33c0
35a0
39a0
31c0
0000
0000
0000
0000
ENDCHAR
STARTCHAR 3943
ENCODING 14659
SWIDTH 714 0
DWIDTH 12 0
BBX 12 24 0 -4
BITMAP
1c40
14c0
0d80
1f00
7c00
c200
fd00
0300
0000
6180
b180
b180
7180
3180
3180
3180
33c0
35a0
39a0
31c0
0000
0000
0000
0000
ENDCHAR
STARTCHAR 3944
ENCODING 14660
SWIDTH 714 0
DWIDTH 12 0
BBX 12 24 0 -4
BITMAP
3640
6b40
6340
3780
7c00
c200
fd00
0300
0000
6180
b180
b180
7180
3180
3180
3180
33c0
35a0
39a0
31c0
0000
0000
0000
0000
ENDCHAR
STARTCHAR 3945
ENCODING 14661
SWIDTH 714 0
DWIDTH 12 0
BBX 12 24 0 -4
BITMAP
0c00
1e00
1e00
0c00
7c00
c200
fd00
0300
0000
6180
b180
b180
7180
3180
3180
3180
33c0
35a0
39a0
31c0
0000
0000
0000
0000
ENDCHAR
STARTCHAR 3948
ENCODING 14664
SWIDTH 714 0
DWIDTH 12 0
BBX 12 24 0 -4
BITMAP
0000
0000
0000
0000
7300
8b00
f700
0f00
0000
6180
b180
b180
7180
3180
3180
3180
33c0
35a0
39a0
31c0
0000
0000
0000
0000
ENDCHAR
STARTCHAR 394a
ENCODING 14666
SWIDTH 714 0
DWIDTH 12 0
BBX 12 24 0 -4
BITMAP
0c00
0c00
0c00
0c00
7300
8b00
f700
0f00
0000
6180
b180
b180
7180
3180
3180
3180
33c0
35a0
39a0
31c0
0000
0000
0000
0000
ENDCHAR
STARTCHAR 394b
ENCODING 14667
SWIDTH 714 0
DWIDTH 12 0
BBX 12 24 0 -4
BITMAP
1c40
14c0
0d80
1f00
7300
8b00
f700
0f00
0000
6180
b180
b180
7180
3180
3180
3180
33c0
35a0
39a0
31c0
0000
0000
0000
0000
ENDCHAR
STARTCHAR 394c
ENCODING 14668
SWIDTH 714 0
DWIDTH 12 0
BBX 12 24 0 -4
BITMAP
3640
6b40
6340
3780
7300
8b00
f700
0f00
0000
6180
b180
b180
7180
3180
3180
3180
33c0
35a0
39a0
31c0
0000
0000
0000
0000
ENDCHAR
STARTCHAR 394d
ENCODING 14669
SWIDTH 714 0
DWIDTH 12 0
BBX 12 24 0 -4
BITMAP
0c00
1e00
1e00
0c00
7300
8b00
f700
0f00
0000
6180
b180
b180
7180
3180
3180
3180
33c0
35a0
39a0
31c0
0000
0000
0000
0000
ENDCHAR
STARTCHAR 3950
ENCODING 14672
SWIDTH 714 0
DWIDTH 12 0
BBX 12 24 0 -4
BITMAP
0000
0000
0000
0000
7700
c900
f600
1f00
0000
6180
b180
b180
7180
3180
3180
3180
33c0
35a0
39a0
31c0
0000
0000
0000
0000
ENDCHAR
STARTCHAR 3952
ENCODING 14674
SWIDTH 714 0
DWIDTH 12 0
BBX 12 24 0 -4
BITMAP
0c00
0c00
0c00
0c00
7700
c900
f600
1f00
0000
6180
b180
b180
7180
3180
3180
3180
33c0
35a0
39a0
31c0
0000
0000
0000
0000
ENDCHAR
STARTCHAR 3953
ENCODING 14675
SWIDTH 714 0
DWIDTH 12 0
BBX 12 24 0 -4
BITMAP
1c40
14c0
0d80
1f00
7700
c900
f600
1f00
0000
6180
b180
b180
7180
3180
3180
3180
33c0
35a0
39a0
31c0
0000
0000
0000
0000
ENDCHAR
STARTCHAR 3954
ENCODING 14676
SWIDTH 714 0
DWIDTH 12 0
BBX 12 24 0 -4
BITMAP
3640
6b40
6340
3780
7700
c900
f600
1f00
0000
6180
b180
b180
7180
3180
3180
3180
33c0
35a0
39a0
31c0
0000
0000
0000
0000
ENDCHAR
STARTCHAR 3955
ENCODING 14677
SWIDTH 714 0
DWIDTH 12 0
BBX 12 24 0 -4
BITMAP
0c00
1e00
1e00
0c00
7700
c900
f600
1f00
0000
6180
b180
b180
7180
3180
3180
3180
33c0
35a0
39a0
31c0
0000
0000
0000
0000
ENDCHAR
STARTCHAR 3958
ENCODING 14680
SWIDTH 714 0
DWIDTH 12 0
BBX 12 24 0 -4
BITMAP
0000
0000
0000
0000
4d80
ad80
9d80
0580
0000
6180
b180
b180
7180
3180
3180
3180
33c0
35a0
39a0
31c0
0000
0000
0000
0000
ENDCHAR
STARTCHAR 395a
ENCODING 14682
SWIDTH 714 0
DWIDTH 12 0
BBX 12 24 0 -4
BITMAP
0c00
0c00
0c00
0c00
4d80
ad80
9d80
0580
0000
6180
b180
b180
7180
3180
3180
3180
33c0
35a0
39a0
31c0
0000
0000
0000
0000
ENDCHAR
STARTCHAR 395b
ENCODING 14683
SWIDTH 714 0
DWIDTH 12 0
BBX 12 24 0 -4
BITMAP
1c40
14c0
0d80
1f00
4d80
ad80
9d80
0580
0000
6180
b180
b180
7180
3180
3180
3180
33c0
35a0
39a0
31c0
0000
0000
0000
0000
ENDCHAR
STARTCHAR 395c
ENCODING 14684
SWIDTH 714 0
DWIDTH 12 0
BBX 12 24 0 -4
BITMAP
3640
6b40
6340
3780
4d80
ad80
9d80
0580
0000
6180
b180
b180
7180
3180
3180
3180
33c0
35a0
39a0
31c0
0000
0000
0000
0000
ENDCHAR
STARTCHAR 395d
ENCODING 14685
SWIDTH 714 0
DWIDTH 12 0
BBX 12 24 0 -4
BITMAP
0c00
1e00
1e00
0c00
4d80
ad80
9d80
0580
0000
6180
b180
b180
7180
3180
3180
3180
33c0
35a0
39a0
31c0
0000
0000
0000
0000
ENDCHAR
STARTCHAR 3960
ENCODING 14688
SWIDTH 714 0
DWIDTH 12 0
BBX 12 24 0 -4
BITMAP
0000
0000
0000
0000
0000
0000
0000
0000
0000
6180
b180
b180
7180
3180
3180
3180
33c0
35a0
39a0
31c0
0f00
1300
0f00
0300
ENDCHAR
STARTCHAR 3962
ENCODING 14690
SWIDTH 714 0
DWIDTH 12 0
BBX 12 24 0 -4
BITMAP
0000
0000
0000
0000
0c00
0c00
0c00
0c00
0000
6180
b180
b180
7180
3180
3180
3180
33c0
35a0
39a0
31c0
0f00
1300
0f00
0300
ENDCHAR
STARTCHAR 3963
ENCODING 14691
SWIDTH 714 0
DWIDTH 12 0
BBX 12 24 0 -4
BITMAP
0000
0000
0000
0000
1c40
14c0
0d80
1f00
0000
6180
b180
b180
7180
3180
3180
3180
33c0
35a0
39a0
31c0
0f00
1300
0f00
0300
ENDCHAR
STARTCHAR 3964
ENCODING 14692
SWIDTH 714 0
DWIDTH 12 0
BBX 12 24 0 -4
BITMAP
0000
0000
0000
0000
3640
6b40
6340
3780
0000
6180
b180
b180
7180
3180
3180
3180
33c0
35a0
39a0
31c0
0f00
1300
0f00
0300
ENDCHAR
STARTCHAR 3965
ENCODING 14693
SWIDTH 714 0
DWIDTH 12 0
BBX 12 24 0 -4
BITMAP
0000
0000
0000
0000
0c00
1e00
1e00
0c00
0000
6180
b180
b180
7180
3180
3180
3180
33c0
35a0
39a0
31c0
0f00
1300
0f00
0300
ENDCHAR
STARTCHAR 3968
ENCODING 14696
SWIDTH 714 0
DWIDTH 12 0
BBX 12 24 0 -4
BITMAP
0000
0000
0000
0000
0000
0000
0000
0000
0000
6180
b180
b180
7180
3180
3180
3180
33c0
35a0
39a0
31c0
3b00
2b00
3b00
0f00
ENDCHAR
STARTCHAR 396a
ENCODING 14698
SWIDTH 714 0
DWIDTH 12 0
BBX 12 24 0 -4
BITMAP
0000
0000
0000
0000
0c00
0c00
0c00
0c00
0000
6180
b180
b180
7180
3180
3180
3180
33c0
35a0
39a0
31c0
3b00
2b00
3b00
0f00
ENDCHAR
STARTCHAR 396b
ENCODING 14699
SWIDTH 714 0
DWIDTH 12 0
BBX 12 24 0 -4
BITMAP
0000
0000
0000
0000
1c40
14c0
0d80
1f00
0000
6180
b180
b180
7180
3180
3180
3180
33c0
35a0
39a0
31c0
3b00
2b00
3b00
0f00
ENDCHAR
STARTCHAR 396c
ENCODING 14700
SWIDTH 714 0
DWIDTH 12 0
BBX 12 24 0 -4
BITMAP
0000
0000
0000
0000
3640
6b40
6340
3780
0000
6180
b180
b180
7180
3180
3180
3180
33c0
35a0
39a0
31c0
3b00
2b00
3b00
0f00
ENDCHAR
STARTCHAR 396d
ENCODING 14701
SWIDTH 714 0
DWIDTH 12 0
BBX 12 24 0 -4
BITMAP
0000
0000
0000
0000
0c00
1e00
1e00
0c00
0000
6180
b180
b180
7180
3180
3180
3180
33c0
35a0
39a0
31c0
3b00
2b00
3b00
0f00
ENDCHAR
STARTCHAR 3970
ENCODING 14704
SWIDTH 714 0
DWIDTH 12 0
BBX 12 24 0 -4
BITMAP
0000
0000
0000
0000
0000
0000
0000
0000
0000
6180
b180
b180
7180
3180
3180
3180
33c0
35a0
39a0
31c0
0000
1800
1800
0000
ENDCHAR
STARTCHAR 3978
ENCODING 14712
SWIDTH 714 0
DWIDTH 12 0
BBX 12 24 0 -4
BITMAP
0000
0000
0f00
1000
3800
4000
4200
3c00
0000
6180
b180
b180
7180
3180
3180
3180
33c0
35a0
39a0
31c0
0000
0000
0000
0000
ENDCHAR
STARTCHAR 3a30
ENCODING 14896
SWIDTH 714 0
DWIDTH 12 0
BBX 12 24 0 -4
BITMAP
0000
0000
0000
0000
0000
0000
0000
0000
0000
6180
b180
b180
7180
3180
3180
3180
3180
3180
3180
7f00
0000
0000
0000
0000
ENDCHAR
STARTCHAR 3a31
ENCODING 14897
SWIDTH 714 0
DWIDTH 12 0
BBX 12 24 0 -4
BITMAP
0000
0100
0300
6e00
d800
c600
db00
6e00
0000
6180
b180
b180
7180
3180
3180
3180
3180
3180
3180
7f00
0000
0000
0000
0000
ENDCHAR
STARTCHAR 3a32
ENCODING 14898
SWIDTH 714 0
DWIDTH 12 0
BBX 12 24 0 -4
BITMAP
0000
0000
0000
0000
0c00
0c00
0c00
0c00
0000
6180
b180
b180
7180
3180
3180
3180
3180
3180
3180
7f00
0000
0000
0000
0000
ENDCHAR
ENDFONT
